<svg xmlns="http://www.w3.org/2000/svg" width="70.376" height="45.468" viewBox="0 0 70.376 45.468">
  <path id="中マド_1" data-name="中マド 1" d="M43.511,47.734a2.052,2.052,0,0,1-1.393-.555A1.968,1.968,0,0,1,41.5,45.73V4.271a2.012,2.012,0,0,1,2.011-2,1.964,1.964,0,0,1,1.27.467L69.656,23.464a2,2,0,0,1,0,3.073L44.78,47.266A1.965,1.965,0,0,1,43.511,47.734Zm4.1-36.42a1,1,0,0,0-1,1v25.37a1.006,1.006,0,0,0,1.005,1,.982.982,0,0,0,.635-.234L63.47,25.768a1,1,0,0,0,0-1.536L48.248,11.547A.983.983,0,0,0,47.613,11.313ZM37,28.5H21a1,1,0,0,1-1-1v-9a1,1,0,0,1,1-1H37a1,1,0,0,1,1,1v9A1,1,0,0,1,37,28.5Zm-14.5-7a.5.5,0,0,0-.5.5v2a.5.5,0,0,0,.5.5h13A.5.5,0,0,0,36,24V22a.5.5,0,0,0-.5-.5Zm-5.5,7H1a1,1,0,0,1-1-1v-9a1,1,0,0,1,1-1H17a1,1,0,0,1,1,1v9A1,1,0,0,1,17,28.5Zm-14.5-7A.5.5,0,0,0,2,22v2a.5.5,0,0,0,.5.5h13A.5.5,0,0,0,16,24V22a.5.5,0,0,0-.5-.5Z" transform="translate(0 -2.266)" fill="#fff"/>
</svg>
