<svg xmlns="http://www.w3.org/2000/svg" width="50" height="50" viewBox="0 0 50 50">
  <path id="Icon_awesome-gift" data-name="Icon awesome-gift" d="M3.125,48.679A3.367,3.367,0,0,0,6.25,52.25H21.875V34.393H3.125Zm25,3.571H43.75a3.367,3.367,0,0,0,3.125-3.571V34.393H28.125Zm18.75-35.714H42.764a10.853,10.853,0,0,0,.986-4.464c0-5.413-3.857-9.821-8.594-9.821-4.062,0-6.689,2.377-10.059,7.623-3.369-5.246-6-7.623-10.059-7.623-4.736,0-8.594,4.408-8.594,9.821a10.7,10.7,0,0,0,.986,4.464H3.125A3.367,3.367,0,0,0,0,20.107v8.929a1.69,1.69,0,0,0,1.563,1.786H48.438A1.69,1.69,0,0,0,50,29.036V20.107A3.367,3.367,0,0,0,46.875,16.536Zm-31.846,0a4.212,4.212,0,0,1-3.906-4.464,4.212,4.212,0,0,1,3.906-4.464c1.943,0,3.379.368,8.408,8.929H15.029Zm20.127,0H26.748C31.768,8,33.164,7.607,35.156,7.607a4.212,4.212,0,0,1,3.906,4.464A4.212,4.212,0,0,1,35.156,16.536Z" transform="translate(0 -2.25)" fill="#fff"/>
</svg>
