<svg xmlns="http://www.w3.org/2000/svg" width="136.61" height="136.61" viewBox="0 0 136.61 136.61">
  <g id="logo" transform="translate(-0.025 -0.025)">
    <g id="レイヤー_2" data-name="レイヤー 2">
      <rect id="長方形_1" data-name="長方形 1" width="135.9" height="135.9" rx="12" transform="translate(0.38 0.38)" fill="#fffef0" stroke="#7ecad1" stroke-miterlimit="10" stroke-width="0.71"/>
    </g>
    <g id="レイヤー_1" data-name="レイヤー 1">
      <text id="ぽ" transform="translate(38.63 73.33)" fill="#eded97" stroke="#eba227" stroke-linecap="round" stroke-miterlimit="10" stroke-width="1.42" font-size="25.51" font-family="HiraginoSans-W3, Hiragino Sans"><tspan x="0" y="0">ぽ</tspan></text>
      <text id="ち" transform="translate(6.97 94.79)" fill="#dea8cb" stroke="#e1318a" stroke-linecap="round" stroke-miterlimit="10" stroke-width="1.42" font-size="25.51" font-family="HiraginoSans-W3, Hiragino Sans"><tspan x="0" y="0">ち</tspan></text>
      <text id="ポ" transform="translate(22.36 124.47)" fill="#8fd2ef" stroke="#0069b4" stroke-linecap="round" stroke-linejoin="round" stroke-width="1.42" font-size="25.51" font-family="HiraginoSans-W3, Hiragino Sans"><tspan x="0" y="0">ポ</tspan></text>
      <path id="パス_1" data-name="パス 1" d="M253.58,56.18c-3.91-2.85-4.45-5.89-4.09-7.32a.29.29,0,0,1,.41-.2l.9.37a.42.42,0,0,0,.58-.33l.17-1.29a.32.32,0,0,1,.48-.22C255.44,49.31,253.58,56.18,253.58,56.18Z" transform="translate(-239.05 -45.17)" fill="#ebafce"/>
      <path id="パス_2" data-name="パス 2" d="M253.46,56c-4.64,1.33-7.38-.12-8.28-1.29a.3.3,0,0,1,.09-.45l.85-.48a.42.42,0,0,0,.1-.66l-.91-.92a.32.32,0,0,1,.12-.52C249.2,50.28,253.46,56,253.46,56Z" transform="translate(-239.05 -45.17)" fill="#ebafce"/>
      <path id="パス_3" data-name="パス 3" d="M253.46,56c-2,4.41-4.83,5.57-6.31,5.52a.31.31,0,0,1-.28-.37l.18-1a.42.42,0,0,0-.44-.5l-1.3.1a.32.32,0,0,1-.32-.42C246.36,55.58,253.46,56,253.46,56Z" transform="translate(-239.05 -45.17)" fill="#ebafce"/>
      <path id="パス_4" data-name="パス 4" d="M253.46,56c2.12,4.34,1.17,7.29.18,8.38a.3.3,0,0,1-.46,0l-.62-.75a.43.43,0,0,0-.67,0l-.75,1a.31.31,0,0,1-.53,0C248.59,61.17,253.46,56,253.46,56Z" transform="translate(-239.05 -45.17)" fill="#ebafce"/>
      <path id="パス_5" data-name="パス 5" d="M253.46,56c4.7,1.17,6.34,3.79,6.54,5.25a.3.3,0,0,1-.31.34h-1a.42.42,0,0,0-.41.53l.32,1.25a.32.32,0,0,1-.36.39C254.31,63,253.46,56,253.46,56Z" transform="translate(-239.05 -45.17)" fill="#ebafce"/>
      <path id="パス_6" data-name="パス 6" d="M253.46,56c3.92-2.85,7-2.42,8.23-1.63a.29.29,0,0,1,.06.45l-.63.74a.42.42,0,0,0,.14.65l1.17.57a.31.31,0,0,1,.06.52C259.42,59.87,253.46,56,253.46,56Z" transform="translate(-239.05 -45.17)" fill="#ebafce"/>
      <path id="パス_7" data-name="パス 7" d="M253.46,56c.34-4.83,2.64-6.9,4-7.35a.3.3,0,0,1,.39.24l.15,1a.43.43,0,0,0,.59.32l1.18-.54a.32.32,0,0,1,.45.29C260.28,53.92,253.46,56,253.46,56Z" transform="translate(-239.05 -45.17)" fill="#ebafce"/>
      <line id="線_1" data-name="線 1" x1="0.61" y1="2.04" transform="translate(13.8 8.77)" fill="none" stroke="#fff200" stroke-linecap="round" stroke-miterlimit="10" stroke-width="0.28"/>
      <line id="線_2" data-name="線 2" x1="1.95" y1="0.84" transform="translate(12.46 9.97)" fill="none" stroke="#fff200" stroke-linecap="round" stroke-miterlimit="10" stroke-width="0.28"/>
      <line id="線_3" data-name="線 3" x1="1.9" y2="0.96" transform="translate(12.51 10.81)" fill="none" stroke="#fff200" stroke-linecap="round" stroke-miterlimit="10" stroke-width="0.28"/>
      <line id="線_4" data-name="線 4" x1="0.49" y2="2.07" transform="translate(13.92 10.81)" fill="none" stroke="#fff200" stroke-linecap="round" stroke-miterlimit="10" stroke-width="0.28"/>
      <line id="線_5" data-name="線 5" x2="1.27" y2="1.71" transform="translate(14.41 10.81)" fill="none" stroke="#fff200" stroke-linecap="round" stroke-miterlimit="10" stroke-width="0.28"/>
      <line id="線_6" data-name="線 6" x2="2.13" y2="0.12" transform="translate(14.41 10.81)" fill="none" stroke="#fff200" stroke-linecap="round" stroke-miterlimit="10" stroke-width="0.28"/>
      <line id="線_7" data-name="線 7" y1="1.55" x2="1.46" transform="translate(14.41 9.26)" fill="none" stroke="#fff200" stroke-linecap="round" stroke-miterlimit="10" stroke-width="0.28"/>
      <path id="パス_8" data-name="パス 8" d="M361.39,74.05c4.41,2,5.57,4.83,5.52,6.31a.3.3,0,0,1-.36.28l-1-.18a.43.43,0,0,0-.5.45l.1,1.29a.32.32,0,0,1-.42.32C361,81.15,361.39,74.05,361.39,74.05Z" transform="translate(-239.05 -45.17)" fill="#ebafce"/>
      <path id="パス_9" data-name="パス 9" d="M256.52,89.28c-.58,4.8-3,6.76-4.41,7.14a.3.3,0,0,1-.37-.27l-.11-1a.42.42,0,0,0-.57-.35l-1.21.47a.31.31,0,0,1-.43-.3C249.61,91,256.52,89.28,256.52,89.28Z" transform="translate(-239.05 -45.17)" fill="#ebafce"/>
      <path id="パス_10" data-name="パス 10" d="M270.5,108c-2,4.41-4.84,5.57-6.32,5.52a.31.31,0,0,1-.28-.37l.18-1a.42.42,0,0,0-.44-.5l-1.29.1a.32.32,0,0,1-.33-.42C263.39,107.63,270.5,108,270.5,108Z" transform="translate(-239.05 -45.17)" fill="#ebafce"/>
      <path id="パス_11" data-name="パス 11" d="M253.33,163.26c-2,4.42-4.83,5.58-6.31,5.52a.29.29,0,0,1-.28-.36l.18-1a.42.42,0,0,0-.45-.49l-1.29.1a.32.32,0,0,1-.32-.43C246.23,162.87,253.33,163.26,253.33,163.26Z" transform="translate(-239.05 -45.17)" fill="#ebafce"/>
      <path id="パス_12" data-name="パス 12" d="M292.42,169.33c2.12,4.35,1.16,7.29.17,8.38a.3.3,0,0,1-.46,0l-.62-.76a.41.41,0,0,0-.66,0l-.76,1.05a.32.32,0,0,1-.53,0C287.55,174.52,292.42,169.33,292.42,169.33Z" transform="translate(-239.05 -45.17)" fill="#ebafce"/>
      <path id="パス_13" data-name="パス 13" d="M291,129.31c2.11,4.34,1.16,7.29.17,8.38a.3.3,0,0,1-.46,0l-.62-.75a.42.42,0,0,0-.66,0l-.76,1.06a.32.32,0,0,1-.53,0C286.17,134.5,291,129.31,291,129.31Z" transform="translate(-239.05 -45.17)" fill="#ebafce"/>
      <path id="パス_14" data-name="パス 14" d="M368.32,110.42c2.12,4.35,1.17,7.3.18,8.39a.3.3,0,0,1-.46,0l-.62-.75a.43.43,0,0,0-.67,0l-.75,1a.31.31,0,0,1-.53,0C363.45,115.62,368.32,110.42,368.32,110.42Z" transform="translate(-239.05 -45.17)" fill="#ebafce"/>
      <path id="パス_15" data-name="パス 15" d="M241.15,113.36c4.69,1.17,6.33,3.79,6.53,5.25a.29.29,0,0,1-.31.34h-1a.43.43,0,0,0-.41.53l.32,1.25a.32.32,0,0,1-.36.39C242,120.43,241.15,113.36,241.15,113.36Z" transform="translate(-239.05 -45.17)" fill="#ebafce"/>
      <path id="パス_16" data-name="パス 16" d="M328.87,170.59c4.69,1.17,6.34,3.8,6.54,5.26a.3.3,0,0,1-.31.34h-1a.41.41,0,0,0-.41.52L334,178a.32.32,0,0,1-.36.39C329.72,177.66,328.87,170.59,328.87,170.59Z" transform="translate(-239.05 -45.17)" fill="#ebafce"/>
      <path id="パス_17" data-name="パス 17" d="M317.93,52c-.42,4.82-2.75,6.85-4.16,7.28a.3.3,0,0,1-.39-.25l-.14-1a.42.42,0,0,0-.58-.32l-1.19.51A.31.31,0,0,1,311,58C311.08,54,317.93,52,317.93,52Z" transform="translate(-239.05 -45.17)" fill="#ebafce"/>
      <path id="パス_18" data-name="パス 18" d="M247.52,76.72c-2.35-1.7-2.67-3.53-2.45-4.39a.17.17,0,0,1,.24-.12l.54.22a.25.25,0,0,0,.35-.2l.1-.77a.19.19,0,0,1,.29-.13C248.64,72.6,247.52,76.72,247.52,76.72Z" transform="translate(-239.05 -45.17)" fill="#ebafce"/>
      <path id="パス_19" data-name="パス 19" d="M247.45,76.6c-2.79.8-4.43-.07-5-.77a.18.18,0,0,1,.06-.27l.51-.29a.25.25,0,0,0,0-.39l-.54-.56a.19.19,0,0,1,.07-.31C244.89,73.18,247.45,76.6,247.45,76.6Z" transform="translate(-239.05 -45.17)" fill="#ebafce"/>
      <path id="パス_20" data-name="パス 20" d="M247.45,76.6c-1.18,2.65-2.9,3.35-3.79,3.31a.17.17,0,0,1-.16-.22l.1-.57a.25.25,0,0,0-.26-.3l-.78.06a.18.18,0,0,1-.19-.25C243.19,76.36,247.45,76.6,247.45,76.6Z" transform="translate(-239.05 -45.17)" fill="#ebafce"/>
      <path id="パス_21" data-name="パス 21" d="M247.45,76.6c1.27,2.61.7,4.37.1,5a.17.17,0,0,1-.27,0l-.37-.45a.25.25,0,0,0-.4,0l-.45.63a.19.19,0,0,1-.32,0C244.53,79.71,247.45,76.6,247.45,76.6Z" transform="translate(-239.05 -45.17)" fill="#ebafce"/>
      <path id="パス_22" data-name="パス 22" d="M247.45,76.6c2.82.7,3.8,2.28,3.92,3.15a.18.18,0,0,1-.18.21h-.59a.26.26,0,0,0-.24.32l.19.75a.19.19,0,0,1-.22.23C248,80.84,247.45,76.6,247.45,76.6Z" transform="translate(-239.05 -45.17)" fill="#ebafce"/>
      <path id="パス_23" data-name="パス 23" d="M247.45,76.6c2.35-1.7,4.19-1.45,4.94-1a.19.19,0,0,1,0,.28l-.37.44a.25.25,0,0,0,.08.39l.7.34a.19.19,0,0,1,0,.31C251,78.94,247.45,76.6,247.45,76.6Z" transform="translate(-239.05 -45.17)" fill="#ebafce"/>
      <path id="パス_24" data-name="パス 24" d="M247.45,76.6c.2-2.89,1.58-4.14,2.43-4.41a.18.18,0,0,1,.23.15l.1.57a.24.24,0,0,0,.35.19l.71-.32a.19.19,0,0,1,.26.17C251.54,75.36,247.45,76.6,247.45,76.6Z" transform="translate(-239.05 -45.17)" fill="#ebafce"/>
      <line id="線_8" data-name="線 8" x1="0.37" y1="1.22" transform="translate(8.03 30.21)" fill="none" stroke="#fff200" stroke-linecap="round" stroke-miterlimit="10" stroke-width="0.28"/>
      <line id="線_9" data-name="線 9" x1="1.17" y1="0.5" transform="translate(7.23 30.93)" fill="none" stroke="#fff200" stroke-linecap="round" stroke-miterlimit="10" stroke-width="0.28"/>
      <line id="線_10" data-name="線 10" x1="1.14" y2="0.58" transform="translate(7.26 31.43)" fill="none" stroke="#fff200" stroke-linecap="round" stroke-miterlimit="10" stroke-width="0.28"/>
      <line id="線_11" data-name="線 11" x1="0.29" y2="1.25" transform="translate(8.11 31.43)" fill="none" stroke="#fff200" stroke-linecap="round" stroke-miterlimit="10" stroke-width="0.28"/>
      <line id="線_12" data-name="線 12" x2="0.76" y2="1.03" transform="translate(8.4 31.43)" fill="none" stroke="#fff200" stroke-linecap="round" stroke-miterlimit="10" stroke-width="0.28"/>
      <line id="線_13" data-name="線 13" x2="1.27" y2="0.08" transform="translate(8.4 31.43)" fill="none" stroke="#fff200" stroke-linecap="round" stroke-miterlimit="10" stroke-width="0.28"/>
      <line id="線_14" data-name="線 14" y1="0.93" x2="0.88" transform="translate(8.4 30.5)" fill="none" stroke="#fff200" stroke-linecap="round" stroke-miterlimit="10" stroke-width="0.28"/>
      <path id="パス_25" data-name="パス 25" d="M291.6,85.21c-2.34-1.7-2.67-3.53-2.45-4.39a.18.18,0,0,1,.25-.12l.54.22a.24.24,0,0,0,.34-.19l.11-.77a.19.19,0,0,1,.29-.14C292.72,81.09,291.6,85.21,291.6,85.21Z" transform="translate(-239.05 -45.17)" fill="#ebafce"/>
      <path id="パス_26" data-name="パス 26" d="M291.53,85.09c-2.78.8-4.42-.07-5-.77a.18.18,0,0,1,.06-.27l.51-.29a.25.25,0,0,0,.06-.39l-.55-.56a.19.19,0,0,1,.07-.31C289,81.67,291.53,85.09,291.53,85.09Z" transform="translate(-239.05 -45.17)" fill="#ebafce"/>
      <path id="パス_27" data-name="パス 27" d="M291.53,85.09c-1.18,2.65-2.9,3.35-3.78,3.31a.17.17,0,0,1-.17-.21l.11-.58a.25.25,0,0,0-.27-.29l-.78.05a.19.19,0,0,1-.19-.25C287.27,84.85,291.53,85.09,291.53,85.09Z" transform="translate(-239.05 -45.17)" fill="#ebafce"/>
      <path id="パス_28" data-name="パス 28" d="M291.53,85.09c1.28,2.61.7,4.38.11,5a.18.18,0,0,1-.28,0l-.37-.45a.25.25,0,0,0-.4,0l-.45.64a.19.19,0,0,1-.32,0C288.61,88.21,291.53,85.09,291.53,85.09Z" transform="translate(-239.05 -45.17)" fill="#ebafce"/>
      <path id="パス_29" data-name="パス 29" d="M291.53,85.09c2.82.7,3.8,2.28,3.93,3.16a.19.19,0,0,1-.19.2h-.58a.26.26,0,0,0-.25.32l.19.75a.19.19,0,0,1-.21.24C292,89.33,291.53,85.09,291.53,85.09Z" transform="translate(-239.05 -45.17)" fill="#ebafce"/>
      <path id="パス_30" data-name="パス 30" d="M291.53,85.09c2.35-1.7,4.19-1.45,4.94-1a.18.18,0,0,1,0,.27l-.38.44a.25.25,0,0,0,.08.39l.7.34a.19.19,0,0,1,0,.32C295.11,87.43,291.53,85.09,291.53,85.09Z" transform="translate(-239.05 -45.17)" fill="#ebafce"/>
      <path id="パス_31" data-name="パス 31" d="M291.53,85.09c.21-2.89,1.59-4.14,2.43-4.41a.18.18,0,0,1,.23.15l.1.58a.25.25,0,0,0,.35.18l.71-.32a.2.2,0,0,1,.27.18C295.62,83.86,291.53,85.09,291.53,85.09Z" transform="translate(-239.05 -45.17)" fill="#ebafce"/>
      <line id="線_15" data-name="線 15" x1="0.36" y1="1.23" transform="translate(52.12 38.7)" fill="none" stroke="#fff200" stroke-linecap="round" stroke-miterlimit="10" stroke-width="0.28"/>
      <line id="線_16" data-name="線 16" x1="1.17" y1="0.51" transform="translate(51.31 39.42)" fill="none" stroke="#fff200" stroke-linecap="round" stroke-miterlimit="10" stroke-width="0.28"/>
      <line id="線_17" data-name="線 17" x1="1.14" y2="0.57" transform="translate(51.34 39.93)" fill="none" stroke="#fff200" stroke-linecap="round" stroke-miterlimit="10" stroke-width="0.28"/>
      <line id="線_18" data-name="線 18" x1="0.29" y2="1.24" transform="translate(52.19 39.93)" fill="none" stroke="#fff200" stroke-linecap="round" stroke-miterlimit="10" stroke-width="0.28"/>
      <line id="線_19" data-name="線 19" x2="0.77" y2="1.02" transform="translate(52.48 39.93)" fill="none" stroke="#fff200" stroke-linecap="round" stroke-miterlimit="10" stroke-width="0.28"/>
      <line id="線_20" data-name="線 20" x2="1.28" y2="0.07" transform="translate(52.48 39.93)" fill="none" stroke="#fff200" stroke-linecap="round" stroke-miterlimit="10" stroke-width="0.28"/>
      <line id="線_21" data-name="線 21" y1="0.93" x2="0.88" transform="translate(52.48 39)" fill="none" stroke="#fff200" stroke-linecap="round" stroke-miterlimit="10" stroke-width="0.28"/>
      <path id="パス_32" data-name="パス 32" d="M341.44,164.67c-2.35-1.7-2.67-3.53-2.46-4.39a.19.19,0,0,1,.25-.12l.54.22a.25.25,0,0,0,.35-.19l.1-.78a.19.19,0,0,1,.29-.13C342.56,160.55,341.44,164.67,341.44,164.67Z" transform="translate(-239.05 -45.17)" fill="#ebafce"/>
      <path id="パス_33" data-name="パス 33" d="M341.37,164.55c-2.79.8-4.43-.07-5-.77a.18.18,0,0,1,.06-.27l.5-.29a.24.24,0,0,0,.06-.39l-.54-.56a.19.19,0,0,1,.07-.31C338.81,161.13,341.37,164.55,341.37,164.55Z" transform="translate(-239.05 -45.17)" fill="#ebafce"/>
      <path id="パス_34" data-name="パス 34" d="M341.37,164.55c-1.18,2.65-2.9,3.35-3.79,3.31a.17.17,0,0,1-.17-.21l.11-.58a.26.26,0,0,0-.27-.3l-.77.06a.19.19,0,0,1-.2-.25C337.1,164.31,341.37,164.55,341.37,164.55Z" transform="translate(-239.05 -45.17)" fill="#ebafce"/>
      <path id="パス_35" data-name="パス 35" d="M341.37,164.55c1.27,2.61.7,4.38.1,5a.17.17,0,0,1-.27,0l-.37-.45a.25.25,0,0,0-.4,0l-.46.63a.18.18,0,0,1-.31,0C338.45,167.67,341.37,164.55,341.37,164.55Z" transform="translate(-239.05 -45.17)" fill="#ebafce"/>
      <path id="パス_36" data-name="パス 36" d="M341.37,164.55c2.81.7,3.8,2.28,3.92,3.16a.18.18,0,0,1-.19.2h-.58a.26.26,0,0,0-.25.32l.2.75a.2.2,0,0,1-.22.24C341.88,168.79,341.37,164.55,341.37,164.55Z" transform="translate(-239.05 -45.17)" fill="#ebafce"/>
      <path id="パス_37" data-name="パス 37" d="M341.37,164.55c2.35-1.7,4.19-1.45,4.94-1a.18.18,0,0,1,0,.27l-.38.44a.25.25,0,0,0,.08.39l.71.34a.2.2,0,0,1,0,.32C344.94,166.89,341.37,164.55,341.37,164.55Z" transform="translate(-239.05 -45.17)" fill="#ebafce"/>
      <path id="パス_38" data-name="パス 38" d="M341.37,164.55c.2-2.89,1.58-4.14,2.42-4.41a.19.19,0,0,1,.24.15l.09.58a.25.25,0,0,0,.36.18l.7-.32a.2.2,0,0,1,.27.18C345.46,163.32,341.37,164.55,341.37,164.55Z" transform="translate(-239.05 -45.17)" fill="#ebafce"/>
      <line id="線_22" data-name="線 22" x1="0.37" y1="1.22" transform="translate(101.95 118.16)" fill="none" stroke="#fff200" stroke-linecap="round" stroke-miterlimit="10" stroke-width="0.28"/>
      <line id="線_23" data-name="線 23" x1="1.18" y1="0.5" transform="translate(101.14 118.88)" fill="none" stroke="#fff200" stroke-linecap="round" stroke-miterlimit="10" stroke-width="0.28"/>
      <line id="線_24" data-name="線 24" x1="1.14" y2="0.58" transform="translate(101.18 119.38)" fill="none" stroke="#fff200" stroke-linecap="round" stroke-miterlimit="10" stroke-width="0.28"/>
      <line id="線_25" data-name="線 25" x1="0.3" y2="1.25" transform="translate(102.02 119.38)" fill="none" stroke="#fff200" stroke-linecap="round" stroke-miterlimit="10" stroke-width="0.28"/>
      <line id="線_26" data-name="線 26" x2="0.76" y2="1.03" transform="translate(102.32 119.38)" fill="none" stroke="#fff200" stroke-linecap="round" stroke-miterlimit="10" stroke-width="0.28"/>
      <line id="線_27" data-name="線 27" x2="1.27" y2="0.08" transform="translate(102.32 119.38)" fill="none" stroke="#fff200" stroke-linecap="round" stroke-miterlimit="10" stroke-width="0.28"/>
      <line id="線_28" data-name="線 28" y1="0.92" x2="0.87" transform="translate(102.32 118.46)" fill="none" stroke="#fff200" stroke-linecap="round" stroke-miterlimit="10" stroke-width="0.28"/>
      <path id="パス_39" data-name="パス 39" d="M363.77,56.38c-2.34-1.71-2.67-3.54-2.45-4.4a.17.17,0,0,1,.25-.11l.54.22a.25.25,0,0,0,.34-.2l.11-.77a.19.19,0,0,1,.28-.14C364.89,52.26,363.77,56.38,363.77,56.38Z" transform="translate(-239.05 -45.17)" fill="#ebafce"/>
      <path id="パス_40" data-name="パス 40" d="M363.7,56.26c-2.79.79-4.43-.08-5-.78a.17.17,0,0,1,.06-.26l.51-.29a.26.26,0,0,0,.05-.4l-.54-.55a.19.19,0,0,1,.07-.31C361.14,52.84,363.7,56.26,363.7,56.26Z" transform="translate(-239.05 -45.17)" fill="#ebafce"/>
      <path id="パス_41" data-name="パス 41" d="M363.7,56.26c-1.18,2.65-2.9,3.34-3.78,3.31a.18.18,0,0,1-.17-.22l.1-.57a.25.25,0,0,0-.26-.3l-.78.06a.19.19,0,0,1-.19-.25C359.44,56,363.7,56.26,363.7,56.26Z" transform="translate(-239.05 -45.17)" fill="#ebafce"/>
      <path id="パス_42" data-name="パス 42" d="M363.7,56.26c1.27,2.6.7,4.37.11,5a.19.19,0,0,1-.28,0l-.37-.45a.25.25,0,0,0-.4,0l-.45.63a.19.19,0,0,1-.32,0C360.78,59.37,363.7,56.26,363.7,56.26Z" transform="translate(-239.05 -45.17)" fill="#ebafce"/>
      <path id="パス_43" data-name="パス 43" d="M363.7,56.26c2.82.7,3.8,2.27,3.92,3.15a.17.17,0,0,1-.18.2h-.59a.25.25,0,0,0-.24.31l.19.76a.19.19,0,0,1-.22.23C364.21,60.5,363.7,56.26,363.7,56.26Z" transform="translate(-239.05 -45.17)" fill="#ebafce"/>
      <path id="パス_44" data-name="パス 44" d="M363.7,56.26c2.35-1.71,4.19-1.45,4.94-1a.18.18,0,0,1,0,.27l-.38.45a.25.25,0,0,0,.08.39l.7.34a.19.19,0,0,1,0,.31C367.28,58.59,363.7,56.26,363.7,56.26Z" transform="translate(-239.05 -45.17)" fill="#ebafce"/>
      <path id="パス_45" data-name="パス 45" d="M363.7,56.26c.21-2.9,1.59-4.14,2.43-4.41a.17.17,0,0,1,.23.14l.1.58a.25.25,0,0,0,.35.19l.71-.32a.19.19,0,0,1,.27.17C367.79,55,363.7,56.26,363.7,56.26Z" transform="translate(-239.05 -45.17)" fill="#ebafce"/>
      <line id="線_29" data-name="線 29" x1="0.36" y1="1.22" transform="translate(124.29 9.87)" fill="none" stroke="#fff200" stroke-linecap="round" stroke-miterlimit="10" stroke-width="0.28"/>
      <line id="線_30" data-name="線 30" x1="1.17" y1="0.51" transform="translate(123.48 10.58)" fill="none" stroke="#fff200" stroke-linecap="round" stroke-miterlimit="10" stroke-width="0.28"/>
      <line id="線_31" data-name="線 31" x1="1.14" y2="0.57" transform="translate(123.51 11.09)" fill="none" stroke="#fff200" stroke-linecap="round" stroke-miterlimit="10" stroke-width="0.28"/>
      <line id="線_32" data-name="線 32" x1="0.29" y2="1.24" transform="translate(124.36 11.09)" fill="none" stroke="#fff200" stroke-linecap="round" stroke-miterlimit="10" stroke-width="0.28"/>
      <line id="線_33" data-name="線 33" x2="0.77" y2="1.02" transform="translate(124.65 11.09)" fill="none" stroke="#fff200" stroke-linecap="round" stroke-miterlimit="10" stroke-width="0.28"/>
      <line id="線_34" data-name="線 34" x2="1.28" y2="0.07" transform="translate(124.65 11.09)" fill="none" stroke="#fff200" stroke-linecap="round" stroke-miterlimit="10" stroke-width="0.28"/>
      <line id="線_35" data-name="線 35" y1="0.93" x2="0.88" transform="translate(124.65 10.16)" fill="none" stroke="#fff200" stroke-linecap="round" stroke-miterlimit="10" stroke-width="0.28"/>
      <path id="パス_46" data-name="パス 46" d="M362.21,172c2.17.21,4.6-1.68,4.88-2.9a4.58,4.58,0,0,0-3.74-1.74,3.91,3.91,0,0,0,.9-5.2,3.9,3.9,0,0,0-4.55,2.69,4.54,4.54,0,0,0-2.95-2.88c-1,.68-1.95,3.63-1,5.58a2.94,2.94,0,0,0-2.29,1,4.92,4.92,0,0,0,4,2.61l-.78,1.13.79.54.78-1.13a4.91,4.91,0,0,0,3.84,2.78,2.92,2.92,0,0,0,.12-2.48Z" transform="translate(-239.05 -45.17)" fill="#f6b956" stroke="#b46c3a" stroke-miterlimit="10" stroke-width="0.71"/>
      <line id="線_36" data-name="線 36" x1="3.65" y2="5.29" transform="translate(119.79 119.51)" fill="#f6b956" stroke="#b46c3a" stroke-miterlimit="10" stroke-width="0.71"/>
      <line id="線_37" data-name="線 37" x1="6.33" y2="0.06" transform="translate(118.66 124.02)" fill="#f6b956" stroke="#b46c3a" stroke-miterlimit="10" stroke-width="0.71"/>
      <line id="線_38" data-name="線 38" x2="2.27" y2="5.99" transform="translate(118.58 119.55)" fill="#f6b956" stroke="#b46c3a" stroke-miterlimit="10" stroke-width="0.71"/>
      <path id="パス_47" data-name="パス 47" d="M275.88,81.68c1.87-1.11,2.71-4.08,2.21-5.22a4.58,4.58,0,0,0-4,.81,3.9,3.9,0,0,0-2.36-4.72,3.9,3.9,0,0,0-2.06,4.86,4.58,4.58,0,0,0-4.09-.57c-.43,1.17.59,4.09,2.52,5.08a3,3,0,0,0-1.24,2.18,5,5,0,0,0,4.74-.25v1.37h1V83.85a4.91,4.91,0,0,0,4.74,0,3,3,0,0,0-1.46-2.17Z" transform="translate(-239.05 -45.17)" fill="#f6b956" stroke="#b46c3a" stroke-miterlimit="10" stroke-width="0.71"/>
      <line id="線_39" data-name="線 39" x2="0.19" y2="6.42" transform="translate(32.73 30.48)" fill="#f6b956" stroke="#b46c3a" stroke-miterlimit="10" stroke-width="0.71"/>
      <line id="線_40" data-name="線 40" x1="5.06" y2="3.81" transform="translate(31.59 33.19)" fill="#f6b956" stroke="#b46c3a" stroke-miterlimit="10" stroke-width="0.71"/>
      <line id="線_41" data-name="線 41" x2="5.38" y2="3.48" transform="translate(28.84 33.39)" fill="#f6b956" stroke="#b46c3a" stroke-miterlimit="10" stroke-width="0.71"/>
      <path id="パス_48" data-name="パス 48" d="M287.25,51.81c-2.09-.58-4.82.87-5.29,2a4.51,4.51,0,0,0,3.38,2.36,3.89,3.89,0,0,0-1.78,5,3.9,3.9,0,0,0,4.94-1.86,4.53,4.53,0,0,0,2.42,3.34c1.13-.5,2.54-3.24,1.92-5.33a3,3,0,0,0,2.43-.61,4.9,4.9,0,0,0-3.45-3.25l1-1-.69-.67-1,1a4.91,4.91,0,0,0-3.31-3.4,3,3,0,0,0-.57,2.42Z" transform="translate(-239.05 -45.17)" fill="#f6b956" stroke="#b46c3a" stroke-miterlimit="10" stroke-width="0.71"/>
      <line id="線_42" data-name="線 42" y1="4.58" x2="4.5" transform="translate(46.68 9.2)" fill="#f6b956" stroke="#b46c3a" stroke-miterlimit="10" stroke-width="0.71"/>
      <line id="線_43" data-name="線 43" x2="6.26" y2="1.03" transform="translate(45.92 9.07)" fill="#f6b956" stroke="#b46c3a" stroke-miterlimit="10" stroke-width="0.71"/>
      <line id="線_44" data-name="線 44" x1="1.21" y1="6.3" transform="translate(50.26 8.28)" fill="#f6b956" stroke="#b46c3a" stroke-miterlimit="10" stroke-width="0.71"/>
      <text id="_ー" data-name="ー" transform="translate(49.86 125.13)" fill="#eee800" stroke="#a0cc58" stroke-linecap="round" stroke-linejoin="round" stroke-width="1.42" font-size="28.06" font-family="HiraginoSans-W3, Hiragino Sans"><tspan x="0" y="0">ー</tspan></text>
      <path id="パス_49" data-name="パス 49" d="M360.18,76.08c.55,10.76-6.05,24.29-23.79,23.78-19.2-.55-24-12.34-24-24.42,0-13.14,10.87-23.15,24-23.15S359.5,63,360.18,76.08Z" transform="translate(-239.05 -45.17)" fill="#fff" stroke="#b2ce70" stroke-linecap="round" stroke-miterlimit="10" stroke-width="0.71"/>
      <path id="パス_50" data-name="パス 50" d="M311.31,71.72c1.08-7.56,10.84-17.12,19.67-19.07,8.21-1.82,26,1.48,29.24,20.08,1.71,7.87-4.44,10.08-5.66,5.07a.35.35,0,0,0-.67-.08c-.87,2.07-3.1,4.37-5.7-1.08a.3.3,0,0,0-.53,0c-2.1,4.1-4.68,1.93-6.53-2.16a.11.11,0,0,0-.19,0c-1.9,4-5.08,5.2-6.57.14a.06.06,0,0,0-.12,0c-1.67,3.94-4.61,3.83-6-.37a.23.23,0,0,0-.43,0c-1.65,3.78-4.39,4.43-6.05,0a.37.37,0,0,0-.71,0c-1.43,3.92-5.42,3.54-5.64-.36a.17.17,0,0,0-.33-.07C313.85,76.28,310.83,75.08,311.31,71.72Z" transform="translate(-239.05 -45.17)" fill="#edf4d7" stroke="#b2ce70" stroke-linecap="round" stroke-miterlimit="10" stroke-width="0.71"/>
      <ellipse id="楕円形_1" data-name="楕円形 1" cx="1.5" cy="1.92" rx="1.5" ry="1.92" transform="translate(84.37 33.63)" fill="#040000" stroke="#040000" stroke-linecap="round" stroke-miterlimit="10" stroke-width="0.28"/>
      <ellipse id="楕円形_2" data-name="楕円形 2" cx="1.5" cy="1.92" rx="1.5" ry="1.92" transform="translate(96.37 33.99)" fill="#040000" stroke="#040000" stroke-linecap="round" stroke-miterlimit="10" stroke-width="0.28"/>
      <path id="パス_51" data-name="パス 51" d="M324,86.27a4.18,4.18,0,0,1-4.29,4.49c-2.89.1-4.39-2.28-4.39-4.59s2.24-3.79,4.39-3.79A4.13,4.13,0,0,1,324,86.27Z" transform="translate(-239.05 -45.17)" fill="#f9dae8"/>
      <path id="パス_52" data-name="パス 52" d="M351.93,88.76c0,2.31-1.89,4-4.78,4.09a4.28,4.28,0,0,1-4.58-4.09A4.47,4.47,0,0,1,347.15,84a4.52,4.52,0,0,1,4.78,4.76Z" transform="translate(-239.05 -45.17)" fill="#f9dae8"/>
      <path id="パス_53" data-name="パス 53" d="M342.06,99.47c2.86-.4,3.81,20.33,3.5,27.43H318.37l5.88-29.22C329.88,100.4,335.51,100.4,342.06,99.47Z" transform="translate(-239.05 -45.17)" fill="#ffea63" stroke="#b2ce70" stroke-linecap="round" stroke-miterlimit="10" stroke-width="0.71"/>
      <path id="パス_54" data-name="パス 54" d="M341.73,139.46c-1-.16-8.91-6.3-9.15-6.07-5.87,5.56-16.06,17.31-21.94,19.47l-7.72-5.25c4.33-3.09,14.83-14.84,15.45-20.71h27.19c4,4.95,13.6,12.67,18.54,17.62L357,151s-7.59-6-15.26-11.55" transform="translate(-239.05 -45.17)" fill="none" stroke="#b2ce70" stroke-linecap="round" stroke-miterlimit="10" stroke-width="0.71"/>
      <path id="パス_55" data-name="パス 55" d="M357.73,150.55c-.54,2-1.34,9.15,6.06.54,4-3.77,3.32-6.82.31-6.57Z" transform="translate(-239.05 -45.17)" fill="#a5cc26"/>
      <path id="パス_56" data-name="パス 56" d="M303,147.8c-2.09-.09-9.22.68.79,6,4.56,3.12,7.39,1.76,6.49-1.12Z" transform="translate(-239.05 -45.17)" fill="#a5cc26"/>
      <circle id="楕円形_3" data-name="楕円形 3" cx="1.79" cy="1.79" r="1.79" transform="translate(89.1 43.74)" fill="none" stroke="#151515" stroke-miterlimit="10" stroke-width="0.28"/>
      <path id="パス_57" data-name="パス 57" d="M325,111.34" transform="translate(-239.05 -45.17)" fill="none" stroke="#b8d672" stroke-miterlimit="10" stroke-width="0.28"/>
      <path id="パス_58" data-name="パス 58" d="M325.52,103.69" transform="translate(-239.05 -45.17)" fill="none" stroke="#b8d672" stroke-miterlimit="10" stroke-width="0.28"/>
      <path id="パス_59" data-name="パス 59" d="M321.1,127.7a12.38,12.38,0,0,1-1.67,3.73A58.89,58.89,0,0,1,304.56,148l.5-.57" transform="translate(-239.05 -45.17)" fill="none" stroke="#b2ce70" stroke-linecap="round" stroke-miterlimit="10" stroke-width="0.28"/>
      <path id="パス_60" data-name="パス 60" d="M306.65,149.17a11,11,0,0,0,4.78-2.71,22.4,22.4,0,0,0,2.53-3.12l9.84-13.77" transform="translate(-239.05 -45.17)" fill="none" stroke="#b2ce70" stroke-linecap="round" stroke-miterlimit="10" stroke-width="0.28"/>
      <path id="パス_61" data-name="パス 61" d="M329,127.87q-7.14,9.39-15,18.24c-1.46,1.66-3.06,3.38-5.2,4" transform="translate(-239.05 -45.17)" fill="none" stroke="#b2ce70" stroke-linecap="round" stroke-miterlimit="10" stroke-width="0.28"/>
      <path id="パス_62" data-name="パス 62" d="M332,127.71c-6.72,8.75-13.61,17.65-22.73,23.85" transform="translate(-239.05 -45.17)" fill="none" stroke="#b2ce70" stroke-linecap="round" stroke-miterlimit="10" stroke-width="0.28"/>
      <path id="パス_63" data-name="パス 63" d="M342.21,127.65a13.38,13.38,0,0,1,4.24,3.1c1,1.1,1.84,2.36,2.77,3.54a45.862,45.862,0,0,0,4.15,4.33c2.42,2.31,4.92,4.68,8,5.89" transform="translate(-239.05 -45.17)" fill="none" stroke="#b2ce70" stroke-linecap="round" stroke-miterlimit="10" stroke-width="0.28"/>
      <path id="パス_64" data-name="パス 64" d="M340,129.3a118.5,118.5,0,0,0,19.8,17.14" transform="translate(-239.05 -45.17)" fill="none" stroke="#b2ce70" stroke-linecap="round" stroke-miterlimit="10" stroke-width="0.28"/>
      <path id="パス_65" data-name="パス 65" d="M334.52,128.86l13.05,10.65a71.271,71.271,0,0,0,11.14,8c.18.09.54,0,.42-.15" transform="translate(-239.05 -45.17)" fill="none" stroke="#b2ce70" stroke-linecap="round" stroke-miterlimit="10" stroke-width="0.28"/>
      <path id="パス_66" data-name="パス 66" d="M332.11,130.31c6.72,6.26,17.43,13.16,27.11,18.77" transform="translate(-239.05 -45.17)" fill="none" stroke="#b2ce70" stroke-linecap="round" stroke-miterlimit="10" stroke-width="0.28"/>
      <path id="パス_67" data-name="パス 67" d="M304.17,146.81c3.34.74,4.72,3.06,7.89,4.36" transform="translate(-239.05 -45.17)" fill="none" stroke="#b2ce70" stroke-linecap="round" stroke-miterlimit="10" stroke-width="0.28"/>
      <path id="パス_68" data-name="パス 68" d="M306.43,145.38a30.33,30.33,0,0,1,7.1,3.35c.39.24.67,1,1,.61" transform="translate(-239.05 -45.17)" fill="none" stroke="#b2ce70" stroke-linecap="round" stroke-miterlimit="10" stroke-width="0.28"/>
      <path id="パス_69" data-name="パス 69" d="M308.39,143.23c2.47,1.51,4.4,3.19,7,4.52" transform="translate(-239.05 -45.17)" fill="none" stroke="#b2ce70" stroke-linecap="round" stroke-miterlimit="10" stroke-width="0.28"/>
      <path id="パス_70" data-name="パス 70" d="M309.86,141.72A35.531,35.531,0,0,0,317.6,146" transform="translate(-239.05 -45.17)" fill="none" stroke="#b2ce70" stroke-linecap="round" stroke-miterlimit="10" stroke-width="0.28"/>
      <path id="パス_71" data-name="パス 71" d="M311,139.64a41.321,41.321,0,0,0,9.5,5.4c.24.1-.05.26,0,0" transform="translate(-239.05 -45.17)" fill="none" stroke="#b2ce70" stroke-linecap="round" stroke-miterlimit="10" stroke-width="0.28"/>
      <path id="パス_72" data-name="パス 72" d="M312.4,137.72a6.75,6.75,0,0,0,3,2.31,49.6,49.6,0,0,0,6.68,2.94" transform="translate(-239.05 -45.17)" fill="none" stroke="#b2ce70" stroke-linecap="round" stroke-miterlimit="10" stroke-width="0.28"/>
      <path id="パス_73" data-name="パス 73" d="M313.85,136.42c1.23.6,2.22,1.65,3.48,2.21a10,10,0,0,0,1.79.54c1.73.42,3.85,1.05,5.57,1.46" transform="translate(-239.05 -45.17)" fill="none" stroke="#b2ce70" stroke-linecap="round" stroke-miterlimit="10" stroke-width="0.28"/>
      <path id="パス_74" data-name="パス 74" d="M315.32,134.77a44.91,44.91,0,0,0,11.06,4" transform="translate(-239.05 -45.17)" fill="none" stroke="#b2ce70" stroke-linecap="round" stroke-miterlimit="10" stroke-width="0.28"/>
      <path id="パス_75" data-name="パス 75" d="M316.8,133.05a53.16,53.16,0,0,0,12,4.25h0" transform="translate(-239.05 -45.17)" fill="none" stroke="#b2ce70" stroke-linecap="round" stroke-miterlimit="10" stroke-width="0.28"/>
      <path id="パス_76" data-name="パス 76" d="M317.33,131.15c2.16.65,4.62.8,6.78,1.45A57.3,57.3,0,0,0,331,134" transform="translate(-239.05 -45.17)" fill="none" stroke="#b2ce70" stroke-linecap="round" stroke-miterlimit="10" stroke-width="0.28"/>
      <path id="パス_77" data-name="パス 77" d="M318.34,128.27c9.2.52,18.38,1.24,27.58.8" transform="translate(-239.05 -45.17)" fill="none" stroke="#b2ce70" stroke-linecap="round" stroke-miterlimit="10" stroke-width="0.28"/>
      <path id="パス_78" data-name="パス 78" d="M317.84,130.14c8.2,1,24.29,1.27,31,.59" transform="translate(-239.05 -45.17)" fill="none" stroke="#b2ce70" stroke-linecap="round" stroke-miterlimit="10" stroke-width="0.28"/>
      <path id="パス_79" data-name="パス 79" d="M334.55,134.49c4.9-.36,11.31-1.43,16.21-1.79" transform="translate(-239.05 -45.17)" fill="none" stroke="#b2ce70" stroke-linecap="round" stroke-miterlimit="10" stroke-width="0.28"/>
      <path id="パス_80" data-name="パス 80" d="M338.47,137.29A61,61,0,0,0,352,134.73" transform="translate(-239.05 -45.17)" fill="none" stroke="#b2ce70" stroke-linecap="round" stroke-miterlimit="10" stroke-width="0.28"/>
      <path id="パス_81" data-name="パス 81" d="M342.64,139.4c1.08-.2,1.63-.39,2.71-.58a10.749,10.749,0,0,0,2.49-.65c.6-.26,1.38-.45,2-.68,1.16-.43,4.3-1.25,4.64-1.3" transform="translate(-239.05 -45.17)" fill="none" stroke="#b2ce70" stroke-linecap="round" stroke-miterlimit="10" stroke-width="0.28"/>
      <path id="パス_82" data-name="パス 82" d="M344.15,141.21c1.08-.19,1.63-.39,2.71-.58a11.248,11.248,0,0,0,2.49-.64c.6-.26,1.38-.46,2-.69,1.16-.43,4.3-1.24,4.64-1.29" transform="translate(-239.05 -45.17)" fill="none" stroke="#b2ce70" stroke-linecap="round" stroke-miterlimit="10" stroke-width="0.28"/>
      <path id="パス_83" data-name="パス 83" d="M347,143.17a28,28,0,0,0,10.78-3.56" transform="translate(-239.05 -45.17)" fill="none" stroke="#b2ce70" stroke-linecap="round" stroke-miterlimit="10" stroke-width="0.28"/>
      <path id="パス_84" data-name="パス 84" d="M350.16,145.2c3.19-1.14,5.7-2.28,8.8-3.64" transform="translate(-239.05 -45.17)" fill="none" stroke="#b2ce70" stroke-linecap="round" stroke-miterlimit="10" stroke-width="0.28"/>
      <path id="パス_85" data-name="パス 85" d="M352.36,147.31a42.739,42.739,0,0,0,8.38-4" transform="translate(-239.05 -45.17)" fill="none" stroke="#b2ce70" stroke-linecap="round" stroke-miterlimit="10" stroke-width="0.28"/>
      <path id="パス_86" data-name="パス 86" d="M355.24,149.55a59.59,59.59,0,0,1,7-4.27" transform="translate(-239.05 -45.17)" fill="none" stroke="#b2ce70" stroke-linecap="round" stroke-miterlimit="10" stroke-width="0.28"/>
      <path id="パス_87" data-name="パス 87" d="M328.68,55.84c-5.25,1.84-12.29,11.86-12.95,14.91" transform="translate(-239.05 -45.17)" fill="none" stroke="#b2ce70" stroke-linecap="round" stroke-miterlimit="10" stroke-width="0.28"/>
      <path id="パス_88" data-name="パス 88" d="M331.25,57.19c-2.45,1.59-8.36,9.1-9.29,13.08" transform="translate(-239.05 -45.17)" fill="none" stroke="#b2ce70" stroke-linecap="round" stroke-miterlimit="10" stroke-width="0.28"/>
      <path id="パス_89" data-name="パス 89" d="M335.16,56.33c-2.08,2.81-6.6,12.47-6.72,14.55" transform="translate(-239.05 -45.17)" fill="none" stroke="#b2ce70" stroke-linecap="round" stroke-miterlimit="10" stroke-width="0.28"/>
      <path id="パス_90" data-name="パス 90" d="M335.89,59.14c-.85,3.79-1.59,10-1.34,12.23" transform="translate(-239.05 -45.17)" fill="none" stroke="#b2ce70" stroke-linecap="round" stroke-miterlimit="10" stroke-width="0.28"/>
      <path id="パス_91" data-name="パス 91" d="M338.58,59.39A57.579,57.579,0,0,1,341,72.71" transform="translate(-239.05 -45.17)" fill="none" stroke="#b2ce70" stroke-linecap="round" stroke-miterlimit="10" stroke-width="0.28"/>
      <path id="パス_92" data-name="パス 92" d="M339.8,56.33c4.4,4.65,8.28,16.61,8.07,18.46" transform="translate(-239.05 -45.17)" fill="none" stroke="#b2ce70" stroke-linecap="round" stroke-miterlimit="10" stroke-width="0.28"/>
      <path id="パス_93" data-name="パス 93" d="M344.32,56.33c3.3,3.3,9.66,15.89,10,19.56" transform="translate(-239.05 -45.17)" fill="none" stroke="#b2ce70" stroke-linecap="round" stroke-miterlimit="10" stroke-width="0.28"/>
      <path id="パス_94" data-name="パス 94" d="M329.94,90.7l-18.31,5.23c-1.55-1.55-5.24-3.88-4.27-1.75s2.63,5,3.11,6c.3.65,1,1.94,1,1.94,1.66-.19,1.34-3.16,1.16-3.88-.23-1,17.35-6.72,17.35-6.72Z" transform="translate(-239.05 -45.17)" fill="#fff" stroke="#b2ce70" stroke-linecap="round" stroke-miterlimit="10" stroke-width="0.71"/>
      <path id="パス_95" data-name="パス 95" d="M325.43,112.1c-2.85.08-8.49-7.55-10.05-10.06l3-1.6s4.44,6.12,7.1,5.89" transform="translate(-239.05 -45.17)" fill="#fff" stroke="#b2ce70" stroke-miterlimit="10" stroke-width="0.71"/>
      <path id="パス_96" data-name="パス 96" d="M318.41,98.39c.33-1,.84-2.31.09-2.72s-1.3,1.13-1.4,1.66" transform="translate(-239.05 -45.17)" fill="none" stroke="#b2ce70" stroke-miterlimit="10" stroke-width="0.71"/>
      <circle id="楕円形_4" data-name="楕円形 4" cx="2.42" cy="2.42" r="2.42" transform="translate(74.69 51.88)" fill="#fff" stroke="#b2ce70" stroke-miterlimit="10" stroke-width="0.71"/>
      <path id="パス_97" data-name="パス 97" d="M331.5,101.23c-.86,1.18-4.33,3.5-5.55,3.58a.37.37,0,0,0-.35.33c-.16,1.45-.35,5.75-.41,7.35a.44.44,0,0,0,.57.43c2.34-.77,7.58-3.7,8.7-5.49" transform="translate(-239.05 -45.17)" fill="none" stroke="#b8d672" stroke-miterlimit="10" stroke-width="0.71"/>
    </g>
  </g>
</svg>
