<svg
      xmlns="http://www.w3.org/2000/svg"
      width="631.692"
      height="799.967"
      viewBox="0 0 631.692 799.967"
    >
      <g
        id="グループ_49"
        data-name="グループ 49"
        transform="translate(-3079.572 -171.625)"
      >
        <path
          id="パス_6"
          data-name="パス 6"
          d="M5441.069,4725.53c-1.234-1.882-2.518-4.091-2.061-6.363.36-1.788,1.77-3.528,1.106-5.206-.26-.656-.8-1.131-1.079-1.778-.9-2.1,1.226-5.122-.31-6.707-.678-.7-1.769-.661-2.5-1.29-.822-.7-.954-1.991-1.2-3.111a10.425,10.425,0,0,0-.762-2.208h-.1l-4.79-.087a1.208,1.208,0,0,0-.628.1c-.47.266-.481.983-.57,1.56a6.694,6.694,0,0,1-2.047,3.385l-4.262,4.577-4.3,4.622-2.214,2.377c.025.075.059.146.083.222s.068.163.093.248c1.1,3.741.594,8.625,3.564,10.767a9.789,9.789,0,0,0-3.212,3.648c-.651,1.561-.369,3.747,1.009,4.534.576.329,1.289.4,1.745.907,1.165,1.306-.56,3.561-.029,5.3.461,1.511,2.262,1.769,3.7,1.711a10.826,10.826,0,0,1,3.711.293c.1.033.195.081.293.121a9.336,9.336,0,0,1,2.477-.7c1.111-.121,2.231.085,3.347.046a8.645,8.645,0,0,0,7.274-5.062,16.8,16.8,0,0,0,1.045-8.556,4.375,4.375,0,0,1,.085-1.814,2.513,2.513,0,0,1,.715-1c.036-.033.065-.072.1-.1C5441.256,4725.818,5441.162,4725.672,5441.069,4725.53Z"
          transform="translate(-2052.767 -3978.175)"
          fill="#fbb0c8"
          stroke="#fff"
          stroke-miterlimit="10"
          stroke-width="1"
        />

        <path
          id="パス_15"
          data-name="パス 15"
          d="M6563.83,3997.036c-.052-.127-.106-.253-.16-.379-.2-.46-.4-.913-.61-1.348-1.208-2.52-2.505-5.15-4.669-6.691a10.906,10.906,0,0,0-6.4-1.689,16.509,16.509,0,0,0-4.293.5c-3.078.818-5.8,2.771-8.449,4.691l-4.163,3.014c-2.8,2.03-5.605,4.073-8.332,6.227,0,.175,0,.347.007.519,0,.114,0,.23,0,.341.127,2.479.667,5.072-.175,7.372-.585,1.6-1.827,3.191-1.294,4.81.791,2.4,4.159,1.621,6.029,3.114l-1.731,7.789c-.463,2.085-.857,4.537.394,6.175,2.146,2.811,6.975.594,9.193,3.334a4.164,4.164,0,0,1,.846,2.4,6.454,6.454,0,0,1-.083,1.47,10.307,10.307,0,0,1,3.759-.669,2.413,2.413,0,0,0,1.185-.158,2.846,2.846,0,0,0,1.04-1.522,18.347,18.347,0,0,1,7.609-8.8,5,5,0,0,1,3.632-.842,4.018,4.018,0,0,0,1.65.345c1-.18,1.43-1.486,1.615-2.589a34.186,34.186,0,0,0,.248-9.494,4.173,4.173,0,0,1,.042-1.8,6.258,6.258,0,0,1,1.132-1.6c1.639-2.209.786-5.463.757-8.325A17.023,17.023,0,0,1,6563.83,3997.036Z"
          transform="translate(-3028.114 -3352.576)"
          fill="#fd9654"
          stroke="#fff"
          stroke-miterlimit="10"
          stroke-width="1"
        />

        <path
          id="パス_18"
          data-name="パス 18"
          d="M6290.192,4080.446c-2.219-2.741-7.047-.523-9.193-3.334-1.251-1.638-.857-4.09-.394-6.176l1.73-7.789c-1.869-1.493-5.238-.712-6.028-3.114-.533-1.619.709-3.213,1.294-4.811.842-2.3.3-4.893.175-7.372-.006-.112,0-.228,0-.341-.145-.056-.289-.111-.431-.172a6.931,6.931,0,0,1-2.458-1.634,7.806,7.806,0,0,1-1.279-2.008c-.065-.138-.126-.278-.188-.419a2.961,2.961,0,0,1-1.733-.286c-1.167-.584-1.889-1.875-2.8-2.873s-2.385-1.726-3.437-.916c-1.091.84-1,2.763-1.969,3.772a9.238,9.238,0,0,1-1.726,1.082c-2.083,1.4-2.173,4.652-2.016,7.348a2.73,2.73,0,0,0-3.184,1.567c-.286.634-.4,1.414-.9,1.85-.593.513-1.436.313-2.187.342a3.792,3.792,0,0,0-1.676.509c-2.013,1.091-3.487,3.718-5.55,5.021a17.375,17.375,0,0,0-2.891,1.707c-2.005,1.882-1.605,5.37-1.028,8.214a3.243,3.243,0,0,0,1.052,2.166c.917.591,2.062-.116,3.121-.064a3.407,3.407,0,0,1,2.718,2.532,12.552,12.552,0,0,1,.388,4.128q-.059,4.781.193,9.558a4.68,4.68,0,0,0,.405,1.991c.491.9,1.5,1.294,2.11,2.1a3.829,3.829,0,0,1,.673,1.742,24.314,24.314,0,0,0,8.3-2.625,7.222,7.222,0,0,0,1.936-1.366c.671-.713,1.119-1.659,1.816-2.34a1.848,1.848,0,0,1,2.526-.332,11.432,11.432,0,0,1,.779-5.447c.832-1.617,2.836-2.644,4.244-1.633.68.488,1.1,1.346,1.8,1.8,1.23.79,2.752.063,4.149-.222s3.332.507,3.119,2.067c.726.476,1.193-1.036,1.959-1.425.54-.274,1.151.073,1.7.327a5.533,5.533,0,0,0,4.73-.141,6.686,6.686,0,0,0,1-.583A4.166,4.166,0,0,0,6290.192,4080.446Z"
          transform="translate(-2779.128 -3398.211)"
          fill="#e3f235"
          stroke="#fff"
          stroke-miterlimit="10"
          stroke-width="1"
        />
        <path
          id="パス_19"
          data-name="パス 19"
          d="M5622.731,4366.405c-.879-.607-1.941-1.035-2.472-2.022a5.935,5.935,0,0,1-.489-2.029,23.286,23.286,0,0,0-2.459-7.733c-1.355-2.566-3.869-5.049-6.418-4.133,1.962-4.823,6.218-7.873,10.025-11.055a2.293,2.293,0,0,0,.872-1.139,2.829,2.829,0,0,0-.352-1.715,15.85,15.85,0,0,1-.017-11.944,8.035,8.035,0,0,0,.828-2.58c.083-1.481-.794-2.712-1.648-3.914-.2-.287-.406-.572-.594-.858l-.011-.019-10.031-1.247a4.3,4.3,0,0,1-2.7-1.005,11.2,11.2,0,0,0-1.053-1.24,2.029,2.029,0,0,0-2.623.455,7.642,7.642,0,0,0-1.424,2.737c-.7,1.915-1.518,3.908-3.052,5.076s-3.989,1.08-4.929-.7c-.345,2.653-.8,5.539-2.61,7.31a3.763,3.763,0,0,1-2.312,1.008,21.781,21.781,0,0,0-.161,7.157c.023.191.054.382.079.573-.217-.027-.434-.055-.651-.086-2.037,1.989-1.88,6.124.348,7.867,1.011.791,2.53,1.6,2.216,2.931a2.252,2.252,0,0,1-.774,1.113,8.37,8.37,0,0,1-6.064,2.15,4.653,4.653,0,0,0-2.193.107,12.034,12.034,0,0,0-1.5,1.084c-2.284,1.469-5.854-.6-7.527,1.671a6.306,6.306,0,0,0-.838,2.322,23.375,23.375,0,0,1-1.2,3.579c.019.038.038.074.056.112a10.425,10.425,0,0,1,.762,2.208c.246,1.12.376,2.407,1.2,3.111.734.628,1.824.589,2.5,1.29,1.536,1.585-.592,4.6.31,6.707.277.647.819,1.122,1.079,1.778.663,1.678-.747,3.418-1.106,5.206-.457,2.272.827,4.481,2.061,6.363.093.142.187.289.281.432l.066.1.517-.011c2.248-.049,4.725-.01,6.417,1.634.386.375.729.8,1.09,1.206a40.5,40.5,0,0,0,.36-4.366,19.935,19.935,0,0,1,1.874-8.418c1.345-2.508,3.853-4.431,6.469-4.152,4.624.493,7.139,7.083,11.735,7.831a1.306,1.306,0,0,0,.943-.115c.439-.291.53-.937.759-1.445a2.572,2.572,0,0,1,3.367-1.15,6.113,6.113,0,0,1,2.7,2.955,4.147,4.147,0,0,0,1.208,1.683,2.814,2.814,0,0,0,1.833.265,18.994,18.994,0,0,0,4.646-1.086c.21-.077.418-.156.625-.24,0-.15.008-.3.008-.448q.007-3.887.016-7.774a6.969,6.969,0,0,1,.694-3.71,5.419,5.419,0,0,0,.532-.859C5624.422,4368.176,5623.611,4367.013,5622.731,4366.405Z"
          transform="translate(-2189.556 -3639.543)"
          fill="#a73396"
          stroke="#fff"
          stroke-miterlimit="10"
          stroke-width="1"
        />
        <path
          id="パス_24"
          data-name="パス 24"
          d="M6217.313,4547.346a13.422,13.422,0,0,1-4.229-4.572c-.07-.136-.128-.279-.191-.419-.08-.179-.156-.359-.224-.544-.593-.324-1.183-.653-1.757-1.016a5.965,5.965,0,0,0-2.268-1.061c-.633-.086-1.281.065-1.91-.054a3,3,0,0,1-.893-.345,6.837,6.837,0,0,1-.66-.429,2.016,2.016,0,0,1-.269.127c-2.224.7-4.237-2.882-6.435-2.09a13.08,13.08,0,0,1-1.426.683c-1.249.281-2.217-1.11-3.034-2.2s-2.42-1.994-3.234-.9a5.774,5.774,0,0,0-.528,1.282c-.577,1.389-2.071,1.952-3.027,3.053a8.443,8.443,0,0,0-1.567,4.175,52.229,52.229,0,0,0-.71,9.327c.1.105.2.214.3.323.242.26.48.524.705.805a15.125,15.125,0,0,1,3.164,9.723,25.568,25.568,0,0,1-1.392,6.954c.961,1.612,3.51-.776,4.906.377,1.252,1.034.106,3.617,1.218,4.832,2.251-.25,4.265.923,6.051,2.568a40,40,0,0,1-.417-6.525,9.064,9.064,0,0,1,1.043-4.25,3.543,3.543,0,0,1,3.389-1.92c1.29.208,2.407,1.392,3.7,1.249a4.068,4.068,0,0,0,2.035-1.144l6.307-5.357,3.246-2.757a6.4,6.4,0,0,0,2.5-3.385C6222.281,4551.021,6219.5,4548.932,6217.313,4547.346Z"
          transform="translate(-2729.118 -3833.391)"
          fill="#fbb0c8"
          stroke="#fff"
          stroke-miterlimit="10"
          stroke-width="1"
        />
        <path
          id="パス_25"
          data-name="パス 25"
          d="M5954.617,4124.82a14.314,14.314,0,0,1-1.358-2.659,31.57,31.57,0,0,1-.467-3.923,3.829,3.829,0,0,0-.673-1.742c-.614-.805-1.619-1.2-2.11-2.1a4.68,4.68,0,0,1-.405-1.991q-.251-4.773-.193-9.558a12.552,12.552,0,0,0-.388-4.128,3.406,3.406,0,0,0-2.718-2.532c-1.059-.052-2.2.655-3.121.064a3.244,3.244,0,0,1-1.052-2.167c-.577-2.844-.977-6.332,1.028-8.214a17.374,17.374,0,0,1,2.891-1.706c2.063-1.3,3.537-3.93,5.55-5.021a7.471,7.471,0,0,0-2.945-7.392c-.876-.561-1.938-.946-2.437-1.923a19.847,19.847,0,0,1-.6-2.228,3.256,3.256,0,0,0-3.087-2.038,6.109,6.109,0,0,0-3.524,1.449,14.417,14.417,0,0,0-4.755,6.617,2.46,2.46,0,0,1-.624,1.132c-.968.781-2.336-.73-3.46-.273-.728.3-1.043,1.305-1.749,1.663-1.434.727-2.463-1.529-3.413-2.926a4.47,4.47,0,0,0-5.771-1.49,1.766,1.766,0,0,0-.792.767c-.314.693.062,1.506.134,2.278a3.512,3.512,0,0,1-2.431,3.445,4.859,4.859,0,0,1-1.194.226,7.9,7.9,0,0,1,.282.924c.942,4.113-2.862,8.514-1.279,12.376.333.812.882,1.785.39,2.491a2.444,2.444,0,0,1-1.077.66c-1.315.634-2.009,2.212-2.594,3.666l-.382.952-.305.759c.854,1.2,1.732,2.433,1.648,3.914a8.042,8.042,0,0,1-.828,2.58,15.848,15.848,0,0,0,.017,11.944,2.827,2.827,0,0,1,.351,1.715,2.294,2.294,0,0,1-.871,1.139c-3.807,3.182-8.063,6.232-10.025,11.055,2.548-.916,5.063,1.567,6.418,4.133a23.286,23.286,0,0,1,2.459,7.733,5.935,5.935,0,0,0,.489,2.029c.531.988,1.593,1.415,2.472,2.022s1.69,1.771,1.271,2.823a5.46,5.46,0,0,1-.532.86,6.972,6.972,0,0,0-.695,3.71q-.007,3.887-.015,7.774c0,.146,0,.3-.008.448,0,.11,0,.219-.009.33a5.25,5.25,0,0,1,2.687.544c.895.615,1.29,1.832,2.028,2.655l7.921-5.476a18.038,18.038,0,0,0,3.49-2.877,15.456,15.456,0,0,0,2.324-3.885,36.114,36.114,0,0,0,2.971-11.572,3.744,3.744,0,0,1,.8-2.5,1.827,1.827,0,0,1,.432-.267c0-.154-.01-.308-.012-.462a52.229,52.229,0,0,1,.71-9.327,8.443,8.443,0,0,1,1.567-4.175c.956-1.1,2.45-1.664,3.027-3.053a5.774,5.774,0,0,1,.528-1.282c.813-1.089,2.417-.181,3.234.9s1.786,2.478,3.034,2.2a13.08,13.08,0,0,0,1.426-.683c2.2-.792,4.211,2.787,6.435,2.09a2.016,2.016,0,0,0,.269-.127,2.461,2.461,0,0,0,.459-.288A11.2,11.2,0,0,0,5954.617,4124.82Z"
          transform="translate(-2478.939 -3421.684)"
          fill="#45af6d"
          stroke="#fff"
          stroke-miterlimit="10"
          stroke-width="1"
        />

        <path
          id="パス_33"
          data-name="パス 33"
          d="M3792.025,5967.586c-.683-1.2-1.213-2.508-1.958-3.662-.933-1.445-2.425-2.681-4.01-2.424-1.4.227-2.484,1.546-3.866,1.886a5.8,5.8,0,0,1-2.11-.006l-7.735-.972c-.372-.046-.75-.089-1.128-.128-2.017-.207-4.088-.218-5.821.878a7.847,7.847,0,0,0-3.065,4.4,5.994,5.994,0,0,1-.959,2.287c-1.028,1.159-2.952.859-3.891,2.106-.768,1.02-.493,2.539-.176,3.821l1,4.05a2.136,2.136,0,0,0,.409.955c.2.217.484.324.672.554a1.925,1.925,0,0,1,.318.877l.943,5.022a1.883,1.883,0,0,1-.081,1.338,2.457,2.457,0,0,1-.868.631,2.489,2.489,0,0,0-.287,3.614c.211.2.479.38.524.683a1,1,0,0,1-.461.841c-3.641,3.046-8.809,2.265-13.032,4.171a4.671,4.671,0,0,0-1.625,1.1,5.4,5.4,0,0,0-.757,1.227,13.541,13.541,0,0,0,1.163,2.833,10.686,10.686,0,0,0,3.271,2.6,4.346,4.346,0,0,1,2.217,3.508,7.929,7.929,0,0,1-.89,2.627,8.057,8.057,0,0,0,.5,7.169,5.342,5.342,0,0,0,5.963,2.431,8.829,8.829,0,0,0,.46,4.8c.732,1.42,2.686,2.152,3.705.971.2-.23.346-.512.561-.724.845-.832,2.294-.092,2.747,1.058a7.455,7.455,0,0,1,.064,3.71c-.182,1.318-.3,2.647-.358,3.979.074.073.144.15.215.226a7.414,7.414,0,0,1,1.449,2.191c.481,1.142,1.275,2.721,2.3,2.191a2.487,2.487,0,0,1,.439-2.515c.522-.7,1.219-1.237,1.675-1.995,1.083-1.8.566-4.391,1.713-6.138.5-.764,1.343-1.545,1.054-2.436-.1-.308-.327-.546-.444-.846a2.624,2.624,0,0,1-.052-1.261l1.146-9.4a16.092,16.092,0,0,1,.945-4.353c.764-1.8,2.188-3.269,2.558-5.216a20.643,20.643,0,0,0-.052-4.125,20.616,20.616,0,0,1,1.843-7.569l2.7-7.023c.522-1.358,1.137-2.828,2.337-3.466.79-.42,1.987-.8,1.815-1.757a2.365,2.365,0,0,1-2.145-1.611,3.031,3.031,0,0,0,3.392-2.523l-3.429.026a4.535,4.535,0,0,1,4.913-2.969,22.45,22.45,0,0,1,.23-4.9,1.955,1.955,0,0,0,2.847,1.359,3.9,3.9,0,0,0,1.624-3.268C3792.354,5968.153,3792.188,5967.871,3792.025,5967.586Z"
          transform="translate(-583.978 -5087.873)"
          fill="#45af6d"
          stroke="#fff"
          stroke-miterlimit="10"
          stroke-width="1"
        />
        <path
          id="パス_35"
          data-name="パス 35"
          d="M3532.814,5818.017a7.4,7.4,0,0,0-.134-1.96,4.5,4.5,0,0,0-1.269-1.681,14.387,14.387,0,0,1-3.929-8.263,10.194,10.194,0,0,0-.691-3.4,3.649,3.649,0,0,0-5.236-1.183,7.205,7.205,0,0,0-2.7,5.6,27.079,27.079,0,0,1-6.243-3.934c-.114.038-.23.068-.343.109a13.678,13.678,0,0,0-1.323.549,4.651,4.651,0,0,1-2.022.676c-1.669-.033-2.991-2.181-4.628-1.816-1.229.274-1.856,1.913-1.691,3.293a1.226,1.226,0,0,1-.075.84.843.843,0,0,1-.739.253l-6.118-.012h-.355l-1.032,1.234a3.3,3.3,0,0,0-.86,1.526,3.429,3.429,0,0,0,1.1,2.582,19.427,19.427,0,0,0,5.256,4.92,17.6,17.6,0,0,1,3.606,1.962,15.154,15.154,0,0,0-4.3,5.117,7.991,7.991,0,0,0-1.33,4.706,5.04,5.04,0,0,0-3.954,3.877c-.231.989-.271,2.179-1.028,2.758-1.089.832-2.7-.34-3.867.339-.589.341-.914,1.074-1.467,1.482-1.177.871-3.039-.551-2.728-2.084-.909-.5-1.968.08-2.906.506s-2.239.582-2.764-.381a3.732,3.732,0,0,0-1.712,2.188c-.2.967.437,2.168,1.328,2.088l-1.337,1.71a9.723,9.723,0,0,0-1.789,2.969,3.547,3.547,0,0,0,.491,3.362,1.7,1.7,0,0,0,2.768-.283c.442-.292.952.466.754.994a1.908,1.908,0,0,1-1.22.964l-4.515,1.786a18.313,18.313,0,0,1,4.4,7.625c.8-.936,1.669-2.093,1.44-3.36a10.54,10.54,0,0,1-.405-1.581,2.97,2.97,0,0,1,1.08-2l8.838-9.156a3.191,3.191,0,0,1,.948-.761,1.545,1.545,0,0,1,1.923.716,1.953,1.953,0,0,1-.309,2.226c-.5.48-1.207.573-1.766.957s-.888,1.4-.334,1.8a1.034,1.034,0,0,0,.765.11,5.056,5.056,0,0,0,3.925-3.679c.581-2.076.095-4.693,1.543-6.155.35-.354.8-.622.994-1.1.288-.735-.176-1.548-.241-2.347a2.9,2.9,0,0,1,1.878-2.78,6.963,6.963,0,0,1,3.337-.184,1.256,1.256,0,0,1,.9.362c.827,1.042-1.62,2.731-.726,3.7a1.737,1.737,0,0,1-1.665.088q-.156,2.391-.41,4.771c-.245,2.3-.653,4.789-2.218,6.318a5.725,5.725,0,0,0-1.146,1.211,4.529,4.529,0,0,0-.4,1.361,19.181,19.181,0,0,1-.565,2.21,6.721,6.721,0,0,1-.847,1.852,4.07,4.07,0,0,1-1.1,1.028c0,.043.013.086.015.129,1.459.2,2.98.21,4.439.267,3.1.12,6.636.919,8.131,3.932a7.944,7.944,0,0,1,.314.757,5.4,5.4,0,0,1,.757-1.227,4.671,4.671,0,0,1,1.625-1.1c4.223-1.906,9.391-1.125,13.032-4.171a1,1,0,0,0,.461-.841c-.045-.3-.313-.485-.524-.683a2.489,2.489,0,0,1,.287-3.614,2.457,2.457,0,0,0,.868-.631,1.883,1.883,0,0,0,.081-1.338l-.943-5.022a1.925,1.925,0,0,0-.318-.877c-.189-.229-.472-.337-.672-.554a2.136,2.136,0,0,1-.409-.955l-1-4.05c-.316-1.282-.592-2.8.176-3.821.939-1.247,2.863-.948,3.891-2.106a5.994,5.994,0,0,0,.959-2.287,7.847,7.847,0,0,1,3.065-4.4c1.733-1.1,3.8-1.085,5.821-.878A8.7,8.7,0,0,1,3532.814,5818.017Z"
          transform="translate(-346.465 -4946.759)"
          fill="#e3f235"
          stroke="#fff"
          stroke-miterlimit="10"
          stroke-width="1"
        />

        <path
          id="パス_40"
          data-name="パス 40"
          d="M3594.446,5476.348a14.416,14.416,0,0,0-1.715-3.317,8.635,8.635,0,0,1-1.16-1.824,8.612,8.612,0,0,0-.542-1.464c-.648-1.039-2.29-1.4-2.24-2.665.03-.757.745-1.4.58-2.135-.2-.878-1.475-1.037-1.621-1.927-.1-.58.357-1.068.729-1.489a4.366,4.366,0,0,0,1.227-2.945c-.038-1.111-.864-2.224-1.864-2.169-1.026.055-1.7,1.164-2.5,1.873a3.753,3.753,0,0,1-4.332.449,10.985,10.985,0,0,0-1.845-1.144c-2.015-.677-3.772,1.724-5.827,2.232-1.223.3-2.558-.081-3.721.439a4.567,4.567,0,0,0-2.225,3.549,33.54,33.54,0,0,0-.115,4.509,17.552,17.552,0,0,1-1.583,6.907c-.9-.5-1.964-.1-2.957.071s-2.278-.111-2.517-1.2c-.105-.479.03-1.02-.183-1.452a1.7,1.7,0,0,0-.645-.622,5.653,5.653,0,0,0-3.278-1.288,2.24,2.24,0,0,0-2.061,2.546c.168.7.734,1.222.921,1.92a4.5,4.5,0,0,1-.241,2.229c-.067.264-.09.538-.141.807l.45.378.5.422a8.23,8.23,0,0,0,2.342,1.552c1.461.536,3.049.141,4.587.152a17.552,17.552,0,0,1,5.566,1.286.742.742,0,0,1,.427.278.91.91,0,0,1,.059.568,33.946,33.946,0,0,1-4.274,13.054,19,19,0,0,0-1.643,3.314,6.638,6.638,0,0,0,1.258.269,1.586,1.586,0,0,1,.364.118,2,2,0,0,1,.71.662,9.205,9.205,0,0,1,1.148,3.7c.021.117.042.233.065.349l6.118.012a.843.843,0,0,0,.739-.253,1.226,1.226,0,0,0,.075-.84c-.165-1.38.462-3.019,1.691-3.293,1.637-.365,2.958,1.784,4.628,1.816a4.651,4.651,0,0,0,2.022-.676,13.678,13.678,0,0,1,1.323-.549c.047-.09.1-.175.15-.265a16.369,16.369,0,0,1,1.171-1.867,5.452,5.452,0,0,0,1.016-1.745,1.6,1.6,0,0,0-.571-1.809c-.2-.1-.432-.124-.634-.227a1.579,1.579,0,0,1-.41-2.036,3.989,3.989,0,0,1,1.6-1.479,7.11,7.11,0,0,1,.184-5.142c-1.088-.7-1.25-2.5-.6-3.7a5.18,5.18,0,0,1,3.065-2.274,31.629,31.629,0,0,0,3.627-1.137,9.8,9.8,0,0,0,3.111-2.5Z"
          transform="translate(-416.947 -4644.011)"
          fill="#d5c12b"
          stroke="#fff"
          stroke-miterlimit="10"
          stroke-width="1"
        />
        <path
          id="パス_41"
          data-name="パス 41"
          d="M3470.6,5634.472a.742.742,0,0,0-.427-.278,17.552,17.552,0,0,0-5.566-1.286c-1.539-.011-3.126.384-4.587-.152a8.241,8.241,0,0,1-2.342-1.552l-.5-.422a2.847,2.847,0,0,1-.529.072c-1.027.041-2.177-.292-2.9.477a2.828,2.828,0,0,0-.527.967,12.074,12.074,0,0,1-.953,2.25,2.323,2.323,0,0,1-1.853,1.224,1.449,1.449,0,0,1-1.359-1.591,4.159,4.159,0,0,1,.44-1.052,3.329,3.329,0,0,0,.182-2.192c-.217-.822-.953-1.591-1.689-1.337a2.709,2.709,0,0,0-.936.793,3.957,3.957,0,0,1-2.88,1.243c-.311,0-.673-.025-.872.24a.934.934,0,0,0-.119.657c.23,2.046,2.6,2.755,3.73,4.388a4.164,4.164,0,0,1,.529,3.48,3.621,3.621,0,0,1-2.307,2.427,4.479,4.479,0,0,1-1.258.159c-.25.864-.639,1.689-.917,2.548a4.088,4.088,0,0,0,.229,3.632c.6.785,1.583,1.027,2.352,1.6a7.4,7.4,0,0,1,1.65,1.991,52.318,52.318,0,0,0,6.329,7.583c1.634,1.743.638,3.026.752,4.792,1.232.249,2.464.573,3.463-.157a4.662,4.662,0,0,0,1.175-1.541,3.321,3.321,0,0,0,.607-2.417c-.247-.88-1.115-1.306-1.725-1.93a7.624,7.624,0,0,1-1.565-4.105,1.713,1.713,0,0,1,0-.855,1.532,1.532,0,0,1,.374-.524l3.58-3.742a3.206,3.206,0,0,0,3.188,2.521,4.736,4.736,0,0,0,1.153-.154,6.953,6.953,0,0,1,.225-.819,18.988,18.988,0,0,1,1.643-3.314,33.943,33.943,0,0,0,4.274-13.054A.91.91,0,0,0,3470.6,5634.472Z"
          transform="translate(-319.083 -4796.173)"
          fill="#a73396"
          stroke="#fff"
          stroke-miterlimit="10"
          stroke-width="1"
        />
        <path
          id="パス_42"
          data-name="パス 42"
          d="M3571.1,6231.178c-.453-1.15-1.9-1.89-2.747-1.058-.215.211-.362.494-.561.724-1.019,1.181-2.973.449-3.705-.971a8.829,8.829,0,0,1-.46-4.8,5.342,5.342,0,0,1-5.963-2.431,8.056,8.056,0,0,1-.5-7.168,7.935,7.935,0,0,0,.89-2.628,4.346,4.346,0,0,0-2.217-3.508,10.692,10.692,0,0,1-3.271-2.6,13.556,13.556,0,0,1-1.163-2.833,7.882,7.882,0,0,0-.315-.757c-1.5-3.013-5.036-3.812-8.131-3.932-1.459-.057-2.98-.063-4.439-.267a2.076,2.076,0,0,1-.261,1.256c-.493.78-1.532.878-2.124,1.569a8.677,8.677,0,0,0-.86,1.843c-.3.608-1,1.12-1.533.751-.611-.425-.614-1.75-1.335-1.746-.767.006-1.37,1.658-1.857,1a4.654,4.654,0,0,1-.41-3.337,8.72,8.72,0,0,1,.912-1.4c1.148-1.779.818-4.208.437-6.356a20.788,20.788,0,0,0-2.21,4.676,1.535,1.535,0,0,0-2.138.429,5.174,5.174,0,0,0-.836,2.456c-.3,1.989-.161,4.568,1.528,5.308.739.323,1.691.229,2.189.917.865,1.2-.718,2.884-.475,4.4.209,1.308,1.737,2.092,1.694,3.419-.047,1.465-1.833,1.912-2.67,3.047-.955,1.293-.481,3.287.418,4.629s2.159,2.374,2.918,3.819c1,1.9.992,4.217.959,6.412a17.507,17.507,0,0,1-.9,6.424c-.821,1.984-2.634,3.635-4.59,3.414a11.408,11.408,0,0,0-2.532-.435c-.006,1.4,1.155,2.407,1.862,3.569s.553,3.316-.71,3.337a15.714,15.714,0,0,0,10.944,2.619,2.9,2.9,0,0,1,1.8.1,3.012,3.012,0,0,1,1.041,1.227,10.582,10.582,0,0,0,2.331,3.217,2.588,2.588,0,0,0,3.452.041,2.072,2.072,0,0,0,.086-2.062.5.5,0,0,1-.267-.415,1.688,1.688,0,0,1,.267.415.747.747,0,0,0,.936-.106,2.469,2.469,0,0,0,.4-1.63l.043-5.586c-1.986.527-4.614.749-5.533-1.276a5.168,5.168,0,0,1-.354-1.713,36.113,36.113,0,0,1,2.233-15.811c.561-1.46,1.314-2.981,2.624-3.616,2.292-1.113,4.738,1.01,6.51,2.97a2.185,2.185,0,0,1,.611,1,2.375,2.375,0,0,1-.155,1.143l-1.158,3.741c-.127.412-.309.881-.688.989-.406.115-.786-.257-1.04-.627a6.931,6.931,0,0,1-1.085-4.835l-1.944,1.623c-.945.789-2.006,2.012-1.526,3.213.622,1.558,3.213,1.228,3.592,2.88.125.546-.068,1.129.022,1.684.272,1.667,2.65,1.815,3.234,3.38.571,1.53-.932,2.976-1.368,4.56-.4,1.455.135,3.049-.146,4.538-.392,2.069-2.281,4.182-1.194,5.917l-2.354,1.185a13.889,13.889,0,0,0,.241,4.406c1.853-1.929,4.46-2.59,6.88-3.446s4.972-2.187,6.025-4.754a11.407,11.407,0,0,1,.744-1.8,7.092,7.092,0,0,1,2.076-1.773,4.79,4.79,0,0,0,2.15-3.3c.125-1.4-.967-2.933-2.211-2.681-.63.127-1.45.576-1.777-.035a1.09,1.09,0,0,1-.066-.663,3.964,3.964,0,0,1,3.066-3.053,26.31,26.31,0,0,1,4.355-.318,6.815,6.815,0,0,0,2-.5c0-.11.012-.22.018-.33.06-1.332.176-2.66.358-3.979A7.455,7.455,0,0,0,3571.1,6231.178Z"
          transform="translate(-391.323 -5290.945)"
          fill="#5060a9"
          stroke="#fff"
          stroke-miterlimit="10"
          stroke-width="1"
        />
        <path
          id="パス_43"
          data-name="パス 43"
          d="M4788.475,5357.63a2.8,2.8,0,0,1-.955-.389,1.333,1.333,0,0,1,.075-1.758,3.081,3.081,0,0,1,1.619-.78,15.86,15.86,0,0,0-5.566-5.349,2.085,2.085,0,0,1-.845-.684,2.3,2.3,0,0,1-.234-.769c-.246-1.364-.235-3.235.969-3.62.366-.118.767-.047,1.13-.173.964-.337,1.141-1.743,1.142-2.866,0-2.036-.565-4.758-2.4-4.778a3.793,3.793,0,0,0-1.659.572,12.454,12.454,0,0,1-2.332.882,7.2,7.2,0,0,1-.289.7,5.594,5.594,0,0,1-3.1,3.088,11.892,11.892,0,0,1-3.342.43,31.366,31.366,0,0,0-8.751,1.725,2.653,2.653,0,0,0-1.64,1.16c-.3.6-.226,1.417-.659,1.912a2.112,2.112,0,0,1-1.537.484c-3.782.281-7,3.583-8.4,7.5a18.305,18.305,0,0,0-.97,4.711c.913.042,1.943-.168,2.518.587.638.839.394,2.563,1.37,2.741,1.388.251.9-2.978,2.218-3.533.2,1.064,1.539,1.212,2.471.878s1.958-.894,2.826-.391a3.4,3.4,0,0,1,1.139,1.583,28.926,28.926,0,0,0,4.071,6.317c1.291,1.519,2.826,3.093,2.953,5.177.055.9-.11,1.989.526,2.555.018.017.041.022.059.037.458-.194.911-.4,1.36-.62a33.071,33.071,0,0,0,6.153-3.837,4.669,4.669,0,0,0,1.648-1.953c.407-1.109.168-2.606,1.035-3.317.775-.636,1.953-.178,2.773-.738,1.052-.719.934-2.667,1.991-3.377.772-.519,1.8-.114,2.65-.456C4789.84,5360.738,4789.825,5358.151,4788.475,5357.63Z"
          transform="translate(-1468.681 -4538.598)"
          fill="#e3f235"
          stroke="#fff"
          stroke-miterlimit="10"
          stroke-width="1"
        />
        <path
          id="パス_44"
          data-name="パス 44"
          d="M4432.27,5524.01c-.019-.015-.041-.021-.059-.037-.636-.565-.472-1.652-.526-2.555-.126-2.084-1.661-3.659-2.952-5.177a28.91,28.91,0,0,1-4.072-6.317,3.4,3.4,0,0,0-1.139-1.583c-.868-.5-1.895.057-2.826.391s-2.27.186-2.47-.878c-1.314.555-.831,3.784-2.218,3.533-.976-.177-.732-1.9-1.37-2.741-.574-.755-1.605-.545-2.518-.587-.085,0-.171-.007-.254-.016-1.379-.156-2.471-1.315-3.722-1.979a6.028,6.028,0,0,0-.661-.3c-3.24-1.246-6.91.616-10.019,2.451l-7.651,4.517a14.11,14.11,0,0,0-4.012,3.084,5.7,5.7,0,0,0-1.227,5.018c.3,1.005.978,2.008.677,3.013-.476,1.589-2.735,1.346-3.689,2.642-.269.365-.437.856-.82,1.06-.69.368-1.378-.438-1.956-1a3.8,3.8,0,0,0-4.31-.7c1.61,3.274,1.753,7.16,1.859,10.888a3.541,3.541,0,0,1-.149,1.4,3,3,0,0,1-1.489,1.377l-5.258,2.932a2.652,2.652,0,0,0-1.252,1.122,3.149,3.149,0,0,0-.128,1.538q.423,5.1.846,10.2l.1,1.205a4.063,4.063,0,0,1-.185,2.061c-.38.8-1.217,1.17-1.87,1.718a5,5,0,0,0-.5,6.6,3.962,3.962,0,0,0,1.911-1.306,2.665,2.665,0,0,0,2.56,3.131c1.478,0,2.776-1.051,3.88-2.141.952-.939,2.152-2.027,3.348-1.542,1.139.461,1.541,2.113,2.614,2.737a3.511,3.511,0,0,0,2.684,0c.171-2.9-2.776-4.647-5.242-5.629a8.972,8.972,0,0,0,3.685-8.261,2.345,2.345,0,0,1,.067-1.257,1.314,1.314,0,0,1,1.758-.394,5.922,5.922,0,0,0,1.825.773c2.833-.95,1.942-6.682,4.7-7.875a3.455,3.455,0,0,0,1.292-.607,2.445,2.445,0,0,0,.457-1.483q.267-3.171.535-6.342a5.9,5.9,0,0,1,.443-2.112c.674-1.369,2.211-1.807,3.534-2.332s2.773-1.625,2.664-3.18l8.811-1.979c.269-.061.6-.1.77.138a.227.227,0,0,1,.024.118l2.69-2.241c1.621,1.541,4.226.108,6.208.986a6.286,6.286,0,0,1,1.9,1.563c3.238,3.45,6.477,6.9,9.542,10.542a5.172,5.172,0,0,0,1.828-2.851,52.7,52.7,0,0,0,2.557-11A2.372,2.372,0,0,1,4432.27,5524.01Z"
          transform="translate(-1130.065 -4687.03)"
          fill="#a73396"
          stroke="#fff"
          stroke-miterlimit="10"
          stroke-width="1"
        />

        <path
          id="パス_48"
          data-name="パス 48"
          d="M4245.056,5406.691a3.181,3.181,0,0,0-.341-1.167,3.33,3.33,0,0,0-.935-.879c-.1.053-.194.111-.294.155a22.281,22.281,0,0,0-1.016,6.391c-2.172.719-4.021-1.911-6.211-2.555a7.5,7.5,0,0,0-4.356.5c-.7.226-1.5.556-1.716,1.327a6.41,6.41,0,0,1-.236,1.292,1.342,1.342,0,0,1-.568.517c-2.029,1.124-4.57.07-6.178-1.706s-2.546-4.139-3.675-6.322c-.436-.843-.992-1.738-1.846-1.952s-1.886.8-1.454,1.649c.237.464.758.621,1.165.905s.708.972.342,1.318a5.7,5.7,0,0,0-4.46.767c-1.8,1.168-2.945,3.257-3.871,5.334a20.454,20.454,0,0,0-2.024,7.473,7.856,7.856,0,0,1-.3,2.58c-.7,1.77-2.722,2.184-4.3,3-2.914,1.516-4.658,4.884-7.252,7-1.874,1.528-4.126,2.351-6.2,3.521a23.422,23.422,0,0,0-8.167,7.846c.782.627,1.857.042,2.672-.531a109.057,109.057,0,0,1,9.23-5.823,1.815,1.815,0,0,1,1.149-.34c.867.15,1.135,1.412,1.01,2.376s-.423,2.024.035,2.855a4.481,4.481,0,0,1,5.561,5.949c1.418-.061,3.438.645,3.06,2.165-.3,1.223-1.82,1.222-2.958,1.318s-2.471,1.547-1.6,2.364l-3.762-1.536a5.8,5.8,0,0,1,.785,6.388A3.418,3.418,0,0,1,4200,5461.1a4.127,4.127,0,0,1-1.091,4.461l8.055-.849q-.423-5.1-.846-10.2a3.148,3.148,0,0,1,.128-1.538,2.651,2.651,0,0,1,1.251-1.122l5.258-2.932a3,3,0,0,0,1.489-1.377,3.532,3.532,0,0,0,.148-1.4c-.106-3.729-.249-7.614-1.859-10.888a3.8,3.8,0,0,1,4.311.7c.578.558,1.266,1.364,1.956,1,.382-.2.551-.7.819-1.06.955-1.3,3.214-1.053,3.689-2.642.3-1.005-.377-2.008-.677-3.013a5.7,5.7,0,0,1,1.227-5.018,14.112,14.112,0,0,1,4.013-3.084l7.651-4.517c3.108-1.835,6.779-3.7,10.019-2.451A46.776,46.776,0,0,0,4245.056,5406.691Z"
          transform="translate(-968.126 -4596.423)"
          fill="#d5c12b"
          stroke="#fff"
          stroke-miterlimit="10"
          stroke-width="1"
        />
        <path
          id="パス_49"
          data-name="パス 49"
          d="M4732.256,5275.518c-1.81-2.217-3.585-4.467-5.285-6.789-.4-.548-.934-1.159-1.56-1.028a3.007,3.007,0,0,1-.51.134c-.931.025-.687-1.938-1.538-2.358-.714-.354-1.373.7-2.149.8-.72.094-1.3-.636-1.983-.895-1.724-.65-3.075,1.67-3.7,3.568a3.108,3.108,0,0,0-3.1-2.586,4.047,4.047,0,0,0-.942.216,17.219,17.219,0,0,0-5.263,3.415l-1.329,1.112c-1.3,1.083-2.733,2.515-2.541,4.3a3.028,3.028,0,0,0-3.232-.385,8.236,8.236,0,0,1,.811,7.031,4.544,4.544,0,0,1-1.632,1.973,4.325,4.325,0,0,1-.4.224,3.33,3.33,0,0,1,.935.879,3.181,3.181,0,0,1,.341,1.167,46.776,46.776,0,0,1,.488,8.467,5.98,5.98,0,0,1,.661.3c1.251.664,2.343,1.823,3.722,1.979.083.009.169.012.254.016a18.326,18.326,0,0,1,.97-4.711c1.4-3.914,4.619-7.216,8.4-7.5a2.112,2.112,0,0,0,1.537-.484c.433-.494.358-1.308.659-1.912a2.653,2.653,0,0,1,1.64-1.16,31.366,31.366,0,0,1,8.751-1.725,11.887,11.887,0,0,0,3.341-.43,5.6,5.6,0,0,0,3.1-3.088C4732.553,5275.872,4732.4,5275.7,4732.256,5275.518Z"
          transform="translate(-1422.25 -4476.027)"
          fill="#fbb0c8"
          stroke="#fff"
          stroke-miterlimit="10"
          stroke-width="1"
        />
        <path
          id="パス_50"
          data-name="パス 50"
          d="M3842.949,5618.513c-.747,1.361-2.151,2.921-3.361,2.063-.427-.3-.733-.884-1.238-.928-.839-.074-1.36,1.4-2.181,1.191a1.192,1.192,0,0,1-.633-.559,5.079,5.079,0,0,1-.368-4.637,4.189,4.189,0,0,1,3.5-2.564,2.451,2.451,0,0,0-1.3-3.111,7.826,7.826,0,0,0-2.441.035c-.818,0-1.79-.5-1.813-1.41-.019-.742.594-1.282.967-1.9a3.2,3.2,0,0,0-1.194-4.314,4.763,4.763,0,0,0-1.774-.3l-5.87-.241a9.893,9.893,0,0,1-5.3-1.235c-1.557-1.056-2.564-3.406-1.673-5.174a5.64,5.64,0,0,0,2.915,1.311,2.126,2.126,0,0,0,2.2-2.014c-.01-.482-.195-1.029.077-1.405.249-.344.718-.31,1.115-.3a5.087,5.087,0,0,0,4.565-2.847,6.294,6.294,0,0,0-.146-5.812,11.516,11.516,0,0,1-.934-1.613c-.24-.629-.267-1.333-.446-1.987a3.662,3.662,0,0,0-4.312-2.681c-3.06.886-4.236,5.858-7.38,6.236-.968.116-1.949-.258-2.913-.1s-1.932,1.285-1.46,2.231c-.187.494-.91.233-1.131-.243s-.226-1.075-.544-1.477a1.858,1.858,0,0,0-1.143-.549l-4.682-.994-.018.021a9.8,9.8,0,0,1-3.111,2.5,31.618,31.618,0,0,1-3.627,1.137,5.179,5.179,0,0,0-3.064,2.274c-.648,1.2-.486,3,.6,3.7a7.109,7.109,0,0,0-.184,5.142,3.989,3.989,0,0,0-1.6,1.479,1.579,1.579,0,0,0,.41,2.036c.2.1.432.125.634.227a1.6,1.6,0,0,1,.571,1.809,5.447,5.447,0,0,1-1.016,1.745,16.335,16.335,0,0,0-1.171,1.867c.063.054.13.1.193.156a27.079,27.079,0,0,0,6.243,3.934,7.205,7.205,0,0,1,2.7-5.6,3.648,3.648,0,0,1,5.236,1.182,10.194,10.194,0,0,1,.691,3.4,14.382,14.382,0,0,0,3.929,8.262,4.5,4.5,0,0,1,1.269,1.682,7.388,7.388,0,0,1,.133,1.959,8.71,8.71,0,0,0,.891,3.148c.379.039.756.082,1.128.128l7.735.972a5.8,5.8,0,0,0,2.11.006c1.382-.339,2.465-1.659,3.866-1.886,1.585-.257,3.076.979,4.01,2.424.745,1.154,1.275,2.465,1.958,3.662a4.419,4.419,0,0,0,.491-.14,4.6,4.6,0,0,0,2.533-2.312l1.057-.646c-1.255-.951-.762-3.332.524-4.229s2.927-.762,4.439-.594A3.918,3.918,0,0,0,3842.949,5618.513Z"
          transform="translate(-626.526 -4750.844)"
          fill="#bf8e9f"
          stroke="#fff"
          stroke-miterlimit="10"
          stroke-width="1"
        />

        <path
          id="パス_53"
          data-name="パス 53"
          d="M5741.794,4822.123c-.648-1.385-2.481-1.308-3.594-2.261a2.86,2.86,0,0,1-.251-.289c-.738-.823-1.133-2.04-2.028-2.654a5.25,5.25,0,0,0-2.687-.544c-.126-.01-.253-.014-.376-.031-.083-.011-.159-.043-.24-.059a18.994,18.994,0,0,1-4.646,1.086,2.814,2.814,0,0,1-1.833-.265,4.147,4.147,0,0,1-1.208-1.683,6.113,6.113,0,0,0-2.7-2.955,2.572,2.572,0,0,0-3.367,1.15c-.229.508-.319,1.155-.759,1.445a1.306,1.306,0,0,1-.943.115c-4.6-.748-7.111-7.338-11.735-7.831-2.616-.279-5.124,1.644-6.469,4.152a19.935,19.935,0,0,0-1.874,8.418,40.5,40.5,0,0,1-.36,4.366,5.031,5.031,0,0,0,.524.544c.466.381,1.013.626,1.474,1.014a3.554,3.554,0,0,1,.468.487,3.963,3.963,0,0,1,.282.414,21.176,21.176,0,0,1,3.81-1.678,1.185,1.185,0,0,1,.764-.092c.587.2.609,1.1.512,1.777q-.4,2.8-.808,5.591c-.562,3.887-.846,8.609,1.975,10.993a4.615,4.615,0,0,0,4.126.969c.521-1-.36-2.142-1.012-3.045a9.148,9.148,0,0,1-.343-9.677c1.371.4,1.767,2.345,1.711,3.917s-.237,3.372.75,4.5c1.525,1.748,4.2.294,6.34.808a2.268,2.268,0,0,1,1.312-2.494,4.224,4.224,0,0,1,2.808.009,2.19,2.19,0,0,1,.913.422c1.178,1.044-.078,3.071-1.28,4.08-2.413,2.025-4.956,4.113-7.94,4.652a1.734,1.734,0,0,0-.839.294c-.641.534-.217,1.794.535,2.1a3.1,3.1,0,0,0,2.33-.33l10.422-4.417c1.248-.529,2.61-1.064,3.888-.634a2.992,2.992,0,0,1,.417.2c.043-.143.083-.286.128-.428a32.959,32.959,0,0,1,1.695-4.309,27.422,27.422,0,0,0,1.479-3.286c.527-1.6.792-3.569,2.144-4.378,1.051-.629,2.581-.4,3.222-1.523a7.717,7.717,0,0,0,.425-2.235,7.63,7.63,0,0,1,1.978-3.008C5741.688,4824.6,5742.316,4823.239,5741.794,4822.123Z"
          transform="translate(-2300.046 -4073.568)"
          fill="#d5c12b"
          stroke="#fff"
          stroke-miterlimit="10"
          stroke-width="1"
        />

        <path
          id="パス_58"
          data-name="パス 58"
          d="M5478.832,4961.747c-2.37-2.592-6.311-3.254-7.984-6.447a7.721,7.721,0,0,0-1.337-2.326c-.822-.729-2.019-.66-2.927-1.249-2.242-1.452-1.246-5.224-.079-7.8a104.454,104.454,0,0,0,5.3-14.508c.069-.243.146-.483.213-.726a3.554,3.554,0,0,0-.468-.487c-.461-.388-1.008-.633-1.474-1.014a4.985,4.985,0,0,1-.524-.544c-.361-.4-.7-.831-1.09-1.206-1.692-1.645-4.169-1.683-6.417-1.634l-.516.011-.168,0a2.513,2.513,0,0,0-.715,1,4.375,4.375,0,0,0-.085,1.814,16.8,16.8,0,0,1-1.045,8.556,8.645,8.645,0,0,1-7.274,5.062c-1.116.039-2.235-.167-3.347-.046a9.336,9.336,0,0,0-2.477.7c-.116.047-.23.1-.345.145a6.491,6.491,0,0,1-.862,2.325c-.511.764-1.252,1.3-1.788,2.046-1.933,2.681-.43,6.828,1.935,9.041s5.425,3.361,7.762,5.609a1.976,1.976,0,0,1,.707,1.173,1.518,1.518,0,0,1-1.317,1.5,16.58,16.58,0,0,1-2.076-.034c-2.208.112-3.917,2.965-3.159,5.27.245.744.686,1.39.952,2.124a9.768,9.768,0,0,1,.288,3.92q-.284,4.585-.569,9.169a4.935,4.935,0,0,1-.4,1.99,4.622,4.622,0,0,1-1.782,1.594,22.743,22.743,0,0,0-7.281,7.7c-.085.145-.162.3-.243.443a23.163,23.163,0,0,0,1.372,2.129l1.261,1.8a25.92,25.92,0,0,0,2.075,2.7,25.506,25.506,0,0,0,1.944,1.842,11.477,11.477,0,0,0,1.221-5.283,5.389,5.389,0,0,1,.235-2.722,5.225,5.225,0,0,1,1.644-1.469,5.917,5.917,0,0,0,2.073-5.318c1.213,1.313,3.467.01,3.844-1.824s-.486-3.688-1.44-5.243a2.407,2.407,0,0,1,4.211.137,3.069,3.069,0,0,0,.009-4.364l6.153-1.82c-.2-1.346.89-2.458,1.87-3.281l4.121-3.456,1.37-3.249a5.756,5.756,0,0,1,2.008,4.777,3.588,3.588,0,0,0,2.179-2.763,3.709,3.709,0,0,1,1.037,5.212c2.809,1.115,5.634-2.479,5.5-5.788A8.3,8.3,0,0,0,5478.832,4961.747Z"
          transform="translate(-2072.878 -4175.929)"
          fill="#45af6d"
          stroke="#fff"
          stroke-miterlimit="10"
          stroke-width="1"
        />
        <path
          id="パス_59"
          data-name="パス 59"
          d="M4644.066,4851.6a1.4,1.4,0,0,1,.064-.231,20.563,20.563,0,0,0-2.781-.439c-1.645-.132-3.358-.057-4.866-.8-1.77-.871-3.052-2.777-4.908-3.393-2.232-.74-4.539.582-6.67,1.627a2.527,2.527,0,0,1-1.951.349,2.979,2.979,0,0,1-.937-.693,9.138,9.138,0,0,0-4.388-2.685,3.78,3.78,0,0,0-4.249,2.227c-.487,1.323-.19,2.994-1.026,4.08a3.749,3.749,0,0,1-2.9,1.092l-5.086.348c1.394,1.537,1.605,4.031,1.035,6.118a12.7,12.7,0,0,1-1.295,2.99c-.1.171-.208.335-.312.5.5,2.592.951,5.2,1.309,7.82a105.773,105.773,0,0,1,1.034,13.211,13.473,13.473,0,0,0,.389,3.891,10.646,10.646,0,0,0,.94,2.018q.234.417.46.837,3.849,1.4,7.771,2.528c-.554-.984.606-2.259,1.641-2.094s1.786,1.141,2.438,2.048,1.408,1.881,2.444,2.037c1.438.216,2.63-1.223,4.037-1.621a19.645,19.645,0,0,1,2.813-.189,2.217,2.217,0,0,0,2.046-1.8,2.362,2.362,0,0,0-1.74-2.218,14.532,14.532,0,0,1-2.757-.846c1.331-2.082,4.142-1.736,6.4-1.291s5.2.389,6.128-1.947c.18-.453.257-.951.457-1.394a3.684,3.684,0,0,1,1.394-1.5c.141-.1.28-.194.425-.284-.79-5.184-.684-10.608-1.782-15.75-.3-1.39-.676-2.887-.175-4.2.816-2.142,3.623-2.871,4.075-5.142.109-.548.058-1.12.115-1.678a5.712,5.712,0,0,1,.687-2.088A2.837,2.837,0,0,1,4644.066,4851.6Z"
          transform="translate(-1339.548 -4106.917)"
          fill="#fc9555"
          stroke="#fff"
          stroke-miterlimit="10"
          stroke-width="1"
        />
        <path
          id="パス_60"
          data-name="パス 60"
          d="M4944.372,4742.02a4.3,4.3,0,0,1-.558-1.726,10.823,10.823,0,0,1,.28-1.519c.3-2.208-1.887-3.739-2.809-5.725a10.536,10.536,0,0,1-.659-2.26q-.237-1.118-.475-2.238a26.086,26.086,0,0,1-.582-3.667c-1.6-.3-3.474-.09-4.979-.834,1.311-1.062.189-3.923-1.4-3.581l.2-3.884a6.675,6.675,0,0,1-5.188.842,4.424,4.424,0,0,1-3.026-4.354,1.691,1.691,0,0,1,.22-.782,2.379,2.379,0,0,1,.884-.665c2.216-1.317,2.443-5.378.39-6.988-1.467-1.151-3.674-1.132-4.684-2.782a6.019,6.019,0,0,1-.643-2.58l-.366-3.806q-.186-.133-.38-.263c-1.561-1.062-3.419-1.983-4.982-1.036-.575.349-1.022.917-1.6,1.263-1.874,1.126-4.1-.444-6.223-.628-2.449-.212-4.619,1.486-6.191,3.676-.16.222-.322.441-.468.672a6.019,6.019,0,0,0,.429,2.714c.709,1.589,2.243,2.472,3.385,3.711a9.255,9.255,0,0,1,1.532,9.518,3.225,3.225,0,0,1-.8,1.212,4.385,4.385,0,0,1-2.537.627c-.114.225-.234.445-.361.652-.185.3-.379.6-.574.9-.3.463-.6.931-.85,1.416a5.712,5.712,0,0,0-.687,2.088c-.057.558-.005,1.13-.115,1.678-.452,2.271-3.259,3-4.075,5.142-.5,1.316-.122,2.813.175,4.2,1.1,5.143.992,10.567,1.782,15.75.021.136.049.269.071.4a8.434,8.434,0,0,0,7.836-2.681c1.4-1.608,2.956-4,4.857-3.258.635.249,1.129.834,1.767,1.075,1.247.471,2.585-.492,3.9-.353a4.925,4.925,0,0,1,1.969.843l5.4,3.307c.8.491,1.7,1.141,1.775,2.154a2.69,2.69,0,0,1-.441,1.518c-1.273,2.185-3.615,3.246-5.352,4.993s-2.7,5.176-.847,6.77a9.6,9.6,0,0,0-5.7,5.173,3.147,3.147,0,0,1,2.463,2.459,6.948,6.948,0,0,0,.34,1.534c.733,1.529,2.846.827,4.086-.223s2.914-2.308,4.183-1.3a11.143,11.143,0,0,1,.809-12.3,14.6,14.6,0,0,0,1.881-2.356c.794-1.5.869-3.665,2.273-4.442a5.216,5.216,0,0,1,1.792-.4c2.205-.34,4.079-1.886,5.919-3.278s3.913-2.725,6.134-2.548a4.015,4.015,0,0,1,1.85.68A11.7,11.7,0,0,0,4944.372,4742.02Z"
          transform="translate(-1596.549 -3973.782)"
          fill="#d5c12b"
          stroke="#fff"
          stroke-miterlimit="10"
          stroke-width="1"
        />
        <path
          id="パス_61"
          data-name="パス 61"
          d="M5214.955,5305.1a25.92,25.92,0,0,1-2.075-2.7l-1.261-1.8a23.17,23.17,0,0,1-1.372-2.129c-.047-.085-.082-.177-.126-.263-1.094.52-2.228.944-3.26.405-.906-.473-1.557-1.64-2.558-1.634-1.1.006-2.42,1.356-3.039.353a10.33,10.33,0,0,0-.278-8.069,3.167,3.167,0,0,1-.527-2.1c.216-.793,1.1-1.244,1.184-2.068.066-.671-.447-1.273-.43-1.948a2.137,2.137,0,0,1,.595-1.267c1.537-1.845,3.925-3.3,4.032-5.815a7.389,7.389,0,0,0-.534-2.629,11.281,11.281,0,0,0-2.149-4.232c-.146.023-.29.052-.434.081a12.957,12.957,0,0,0-5.253,2.341c-1.21.907-2.375,2.07-3.826,2.249-1.788.222-3.792-1.082-5.281.04-.609.458-.978,1.249-1.616,1.654a3.392,3.392,0,0,1-1.792.374l-5.731.125a3.048,3.048,0,0,0,.18,3.276c.462.567,1.149.857,1.624,1.412a4.693,4.693,0,0,1,.866,2.236,21.6,21.6,0,0,1-3.079,15.458c1.145,1.121,2.748-.939,4.274-.91,1.969.039,2.354,3.113,2.093,5.281,3.533-2.2,8.646.01,9.909,4.284a2.39,2.39,0,0,0-3.386-.027,3.1,3.1,0,0,0-.279,3.748,5.154,5.154,0,0,0,.993.979q6.916,5.659,14.2,10.724l7.5-10.958a33.383,33.383,0,0,0,2.776-4.622A25.506,25.506,0,0,1,5214.955,5305.1Z"
          transform="translate(-1844.894 -4479.479)"
          fill="#d5c12b"
          stroke="#fff"
          stroke-miterlimit="10"
          stroke-width="1"
        />
        <path
          id="パス_62"
          data-name="パス 62"
          d="M5208.779,4962.421c.928-.891.491-2.721-.522-3.489a5.584,5.584,0,0,0-3.553-.766c-1.45.018-3.04.092-4.12,1.168a2.629,2.629,0,0,1-.891.747,1.543,1.543,0,0,1-1.278-.342,10.375,10.375,0,0,1-3.963-5.108,9.757,9.757,0,0,0-1.235-2.844,3.7,3.7,0,0,0-2.34-1.268,26.086,26.086,0,0,0,.582,3.667q.238,1.119.475,2.238a10.508,10.508,0,0,0,.659,2.26c.922,1.985,3.114,3.517,2.809,5.725a10.892,10.892,0,0,0-.279,1.519,4.3,4.3,0,0,0,.558,1.726,11.693,11.693,0,0,1,1.021,4.511,3.98,3.98,0,0,1,1.887,4.259,6.392,6.392,0,0,1-1.375,2.263l-1.771,2.156c-1.53,1.862-3.06,3.724-4.654,5.519-2.021,2.274-4.141,4.438-6.322,6.521a10.2,10.2,0,0,0-2.278,3.111l5.731-.125a3.392,3.392,0,0,0,1.792-.374c.638-.406,1.007-1.2,1.616-1.654,1.489-1.122,3.493.182,5.281-.04,1.451-.179,2.616-1.342,3.826-2.249a12.957,12.957,0,0,1,5.253-2.341c0-.16,0-.322,0-.482,0-2.908-.584-5.889-.538-8.826.073-4.652,1.755-9.448.342-13.828a3.1,3.1,0,0,1-.252-1.835C5205.685,4962.822,5207.755,4963.405,5208.779,4962.421Z"
          transform="translate(-1847.856 -4199.417)"
          fill="#a73396"
          stroke="#fff"
          stroke-miterlimit="10"
          stroke-width="1"
        />
        <path
          id="パス_64"
          data-name="パス 64"
          d="M6905.658,2498.053a4.5,4.5,0,0,0-.491-5.971,1.278,1.278,0,0,0-1.047-.363c-1.363.318-.424,3.3-1.708,3.9-.61.284-1.319-.291-1.522-.99a4.718,4.718,0,0,1,.082-2.175,54.234,54.234,0,0,0,.946-9.482,5.449,5.449,0,0,0-.25-2.045c-.236-.6-.67-1.087-.925-1.681-.827-1.928.208-4.881-1.453-5.959-.5-.326-1.145-.356-1.59-.771a2.935,2.935,0,0,1-.667-1.369l-2-6.953a64.177,64.177,0,0,0-3.015-8.856c-.724-1.6-1.579-3.124-2.175-4.784-.16-.447-.284-.9-.406-1.359a4.4,4.4,0,0,1-.937-.66c-.014-.013-.025-.031-.04-.044l-6.744,5.406a2.09,2.09,0,0,1-1.5.652c-.658-.1-1.182-.851-1.841-.757s-.975.96-1.533,1.367c-1.434,1.047-3.061-1.334-4.776-1.365a3.523,3.523,0,0,0-2.59,1.755c-1.258,1.7-2.181,3.68-3.442,5.377s-3,3.154-4.979,3.22a6.2,6.2,0,0,1-1.892-.282l-.658.984-.371.555c-.994,1.487-2.037,3.378-1.349,5.065a11.113,11.113,0,0,0,1.923,2.4c1.7,2.195,1.05,6.078-1.249,7.445-.771-.622-2.018-1.16-2.517-.259-.521.941.56,1.914,1.172,2.785,1.017,1.447.771,3.5.475,5.308l-.943,5.742c-.414,2.523-.869,5.15-2.271,7.187a13.282,13.282,0,0,0-1.829,2.746,6.942,6.942,0,0,0,.023,3.95,22.072,22.072,0,0,0,3.678,8.047c1.672,2.27,3.935,4.709,3.406,7.583a11.8,11.8,0,0,1-.784,2.225,15.8,15.8,0,0,0-1,4.112c.059.042.121.078.18.12,1.05.744,2.156,1.407,3.255,2.053l2.333,1.373,13.24,7.793a2.639,2.639,0,0,0,1.443.506c.918-.06,1.526-1.042,2.281-1.625a12.385,12.385,0,0,1,1.972-1.022c3.245-1.69,4.543-5.968,5.515-9.8l6.293,5.027a28.418,28.418,0,0,0-1.271-6.161,5.052,5.052,0,0,0,3.472.232c1.1-.473,1.824-2.164,1.04-3.144a2.966,2.966,0,0,0,2.29-1.238,3.682,3.682,0,0,0,.289-1.637q.062-2.667.123-5.333c.1-1.192,1.97-1.237,2.226-2.4.2-.917-.775-1.635-.932-2.563-.331-1.952,2.917-3.023,2.466-4.945a3.37,3.37,0,0,1-.278-1.111,1.468,1.468,0,0,1,.5-.815l2.825-2.873-2.725-1.624C6903.822,2499.458,6904.923,2498.921,6905.658,2498.053Z"
          transform="translate(-3314.708 -2000.539)"
          fill="#d5c12b"
          stroke="#fff"
          stroke-miterlimit="10"
          stroke-width="1"
        />
        <path
          id="パス_65"
          data-name="パス 65"
          d="M6820.9,3125.4c-1.2-1.036-.906-3.281.182-4.455a6.5,6.5,0,0,1,3.331-1.7c0-.03,0-.06-.007-.09l-6.293-5.027c-.972,3.832-2.27,8.11-5.515,9.8a12.385,12.385,0,0,0-1.972,1.022c-.755.583-1.363,1.564-2.281,1.625a2.639,2.639,0,0,1-1.443-.506l-13.24-7.793-2.333-1.373c-1.1-.647-2.205-1.31-3.255-2.053-.1.29-.187.589-.264.893a7.3,7.3,0,0,1-.92,2.49,5.561,5.561,0,0,1-1.551,1.328,7.361,7.361,0,0,1-3.482,1.515,7.688,7.688,0,0,0-1.75.08,2.236,2.236,0,0,0-.591.286c.012.115.029.229.042.344a18.518,18.518,0,0,0,2.834,7.993c.943,1.428,2.16,3.064,1.666,4.749-.32,1.089-1.314,1.867-1.451,3-.209,1.736,1.588,2.841,2.4,4.339,1.282,2.352,0,5.337-1.272,7.7l-5.785,10.742a13.285,13.285,0,0,0-1.368,3.179c-.2.84-.244,1.725-.511,2.543-.777,2.38-3.349,3.973-3.288,6.5a3.666,3.666,0,0,0,.285,1.271c.224.046.447.092.671.136a39,39,0,0,0,6.916.785c1.821.023,3.781-.086,5.3,1.029,1.559,1.145,2.273,3.325,3.764,4.576,2.074,1.74,5.04,1.222,7.44.115,1.473-.679,2.9-1.552,4.379-2.2l-1.925-7.461a6.6,6.6,0,0,1-.294-2.976,16.934,16.934,0,0,1,1.43-2.963c.666-1.563.508-3.38.658-5.1s.828-3.645,2.316-4.154c.941-.323,2.407-.45,2.288-1.536a2.181,2.181,0,0,0-.63-1.052,3.988,3.988,0,0,1-.529-3.86c.139-.835,1.292-.876,1.864-.311s.819,1.434,1.334,2.062,1.588.874,1.954.128c.259-.529-.021-1.184.046-1.781.133-1.174,1.479-1.627,2.539-1.506s2.181.529,3.148.033c.529-.271,1.171-.784,1.6-.346.354.362.145,1,.045,1.522-.384,2.03,1.985,3.934,3.6,2.894a1.672,1.672,0,0,0,.817-1.346c0-.808-.729-1.407-.848-2.2-.14-.944.606-1.8.615-2.754.02-2.176-3.507-3.046-3.09-5.172l3.518-.044c.526-.367.309-1.292-.095-1.818s-.964-1.015-.985-1.706c-.015-.528.3-1.011.306-1.539,0-1.58-2.621-2.208-2.242-3.731a6.259,6.259,0,0,0,3.475-1.261c.955-.872,1.348-2.647.47-3.612C6822.379,3126.038,6821.518,3125.925,6820.9,3125.4Z"
          transform="translate(-3245.737 -2585.525)"
          fill="#45af6d"
          stroke="#fff"
          stroke-miterlimit="10"
          stroke-width="1"
        />
        <path
          id="パス_66"
          data-name="パス 66"
          d="M6542.086,3633.673a14.435,14.435,0,0,0,.194-3.979c-.191-1.4-.786-2.686-1.107-4.054-.958-4.081.315-9.241-2.553-12a4.1,4.1,0,0,1-.6-.665c-.095.007-.19,0-.286.009q-.119-.461-.238-.922c-1.479.646-2.906,1.519-4.379,2.2-2.4,1.107-5.366,1.625-7.44-.115-1.491-1.251-2.205-3.431-3.764-4.576-1.519-1.115-3.479-1.006-5.3-1.029a39,39,0,0,1-6.916-.785q-.065.441-.13.882l-1.506,10.246-6.178-1.151a16.346,16.346,0,0,1-5.269-1.618c-1.184-.68-2.253-1.669-3.553-2a7.58,7.58,0,0,0-2.658-.042l-1.951.2-.434.044c-1.714,5.29-.53,11.86-3.9,16.053a9.512,9.512,0,0,0-1.516,2.042c-.388.887-.373,1.94-.764,2.826a4.13,4.13,0,0,1-3.518,2.2c-1.4.136-2.819-.122-4.219.042a2.006,2.006,0,0,0-1.4.632,2.976,2.976,0,0,0-.31,2.15q.727,6.657,1.452,13.314a6.583,6.583,0,0,0,.344,1.717,11.591,11.591,0,0,0,1.255,1.954c1.343,2.063,1.381,4.573.837,7.1-.035.164-.077.327-.117.491a7.8,7.8,0,0,0,1.28,2.008,6.925,6.925,0,0,0,2.458,1.634c.143-.114.28-.234.423-.347,2.726-2.155,5.529-4.2,8.332-6.227l4.163-3.014c2.651-1.92,5.371-3.873,8.449-4.691a16.509,16.509,0,0,1,4.293-.5,10.906,10.906,0,0,1,6.4,1.689c2.164,1.541,3.461,4.171,4.669,6.691.208.435.413.889.61,1.348.078.057.156.113.232.172a10.074,10.074,0,0,1,2.042,2.152,12.334,12.334,0,0,0,1.938,2.558,2.072,2.072,0,0,0,2.779.135,4.172,4.172,0,0,0,.793-2.123,15.746,15.746,0,0,1,1.27-3.771,1.43,1.43,0,0,1,.536-.683c.418-.218.9.066,1.284.349a29.023,29.023,0,0,0,4.364,2.926l.019-.021a24.792,24.792,0,0,1,6.252-4.685c1.248-.651,2.747-1.479,2.852-3.005.1-1.4-1.1-2.557-1.159-3.958-.076-1.655,1.426-3.01,1.368-4.666-.041-1.153-.829-2.1-1.091-3.219a7.271,7.271,0,0,1,.047-2.67Z"
          transform="translate(-2981.691 -3019.34)"
          fill="#a73396"
          stroke="#fff"
          stroke-miterlimit="10"
          stroke-width="1"
        />
        <path
          id="パス_67"
          data-name="パス 67"
          d="M6440.876,4598.042c-2.219-1.465-2.146-5-1.793-7.84.247-1.985.768-4.354,2.485-4.967a8.746,8.746,0,0,0,1.282-.387c1.028-.554,1.2-2.256.54-3.294a3.72,3.72,0,0,0-3-1.552,2.919,2.919,0,0,1-1.573-.329,2.3,2.3,0,0,1-.731-1.089,6.033,6.033,0,0,1-.131-3.614c-.09-.046-.181-.092-.27-.14a24.654,24.654,0,0,0-2.541-1.358c-2.327-.926-5.15-.461-7.067-2.2.438.855-.486,1.922-1.371,1.883a4.016,4.016,0,0,1-2.3-1.363,3.13,3.13,0,0,0-2.37-1.129,9.765,9.765,0,0,0-1.651.695c-2.357.819-5-2.261-7.149-.92-.964.6-1.378,1.863-1.925,2.928a4.936,4.936,0,0,1-.409.655c-.074.1-.151.194-.231.287.063.14.122.284.191.419a13.412,13.412,0,0,0,4.228,4.572c2.19,1.586,4.968,3.676,4.4,6.509a6.4,6.4,0,0,1-2.5,3.385l-3.246,2.757a11.072,11.072,0,0,1,1.3,4.716c.042,1.576-.328,3.128-.433,4.7a2.344,2.344,0,0,0,.189,1.323c.515.89,1.715.611,2.644.374a8.334,8.334,0,0,1,1.284-.219c.027,0,.055,0,.082,0l1.709-1.483a11.636,11.636,0,0,1,3.123-2.166,10.644,10.644,0,0,1,4.034-.517l5.881.007a4.354,4.354,0,0,1,2.641.577,5.086,5.086,0,0,1,1.161,1.4l1.277,1.971c.918,1.418,1.885,3.069,1.554,4.777l1.869-.168a8.9,8.9,0,0,1,.858-4.812,3.714,3.714,0,0,0,.656-2.155C6443.365,4599,6441.88,4598.7,6440.876,4598.042Z"
          transform="translate(-2927.491 -3865.089)"
          fill="#45af6d"
          stroke="#fff"
          stroke-miterlimit="10"
          stroke-width="1"
        />
        <path
          id="パス_69"
          data-name="パス 69"
          d="M6638.489,2047.464c-.445-1.244-2.166-.512-2.964.49s-2.069,2.218-3,1.369a2.112,2.112,0,0,1-.524-.988c-.792-2.724-.008-6.1-1.731-8.23a6.645,6.645,0,0,1-1.227-1.56c-.4-.985.04-2.109.237-3.167.78-4.179-2.355-8.449-1.312-12.556.3-1.181.941-2.309.83-3.53a9.156,9.156,0,0,0-1.076-2.761c-1.544-3.516-.245-7.65.414-11.493a4.8,4.8,0,0,0-.158-2.927c-.437-.872-1.646-1.3-2.253-.567-.477.578-.362,1.538-.8,2.152a2.22,2.22,0,0,1-2.142.577c-2.1-.206-4.373-.5-5.882-2.13-.623-.673-1.123-1.576-1.952-1.865-1.156-.4-2.395.583-3.583.316-2.023-.454-2.971-4.219-4.95-3.571-1.282.42-1.441,2.31-1.57,3.788-.258,2.949-1.376,5.707-2.145,8.544s-1.169,6.005-.035,8.687a1.625,1.625,0,0,0,.591.812c.7.4,1.474-.437,1.749-1.257s.417-1.805,1.087-2.263c1.19-.813,2.822.8,4.073.111.833-.46,1.165-1.805,2.083-1.972.671-.122,1.371.478,2,.2.461-.207.662-.789.933-1.251a3.29,3.29,0,0,1,4.38-1.105,6.1,6.1,0,0,1,2.737,4.3,2.276,2.276,0,0,1-.091,1.463c-.367.692-1.22.771-1.871,1.12-1.58.848-1.843,3.227-1.6,5.157s.753,4-.025,5.746a3.427,3.427,0,0,1-4.373,1.854c-1.578-.7-2.448-2.543-3.675-3.849s-3.561-1.89-4.411-.255c-.763,1.467.3,3.68-.774,4.877a1.853,1.853,0,0,1-2.43.088,6.39,6.39,0,0,1-1.689-2.2c-1.868-3.34-3.778-6.8-4.3-10.691a12.977,12.977,0,0,0-.535-2.972,2.4,2.4,0,0,0-2.054-1.728,1.507,1.507,0,0,0-1.19,2.116c-1.457,1.3-3.228-2.524-4.97-1.766-1.469.639-.611,3.3-1.524,4.73-.95,1.488-3.429,1.032-4.151,2.671.635,1.443,2.671.994,3.825,1.962,1.283,1.076.933,3.277.453,4.981l-2.46,8.737a2.921,2.921,0,0,1-.652,1.359,2.485,2.485,0,0,1-1.541.5,21.984,21.984,0,0,0-7.172,1.989,3.334,3.334,0,0,0-1.326.945,7.941,7.941,0,0,0-.8,2.28c-.808,2.4-3.264,3.48-5.455,4.287a21.01,21.01,0,0,0,5.387,6.3c.058-.038.118-.069.175-.106a7.007,7.007,0,0,1,2.027-.948c2.532-.644,5.089.705,7.658,1.135a19.239,19.239,0,0,0,7.216-.521c1.261-.273,2.652-.555,3.76.168a13.149,13.149,0,0,1,1.436,1.349,4.123,4.123,0,0,0,4.807.514c.995-.587,1.748-1.575,2.694-2.253a5.317,5.317,0,0,1,6.67.476,6.9,6.9,0,0,1,1.532,7.226c-.562,1.451-1.626,2.69-1.823,4.255-.009.069,0,.133,0,.2.247.082.495.157.743.227a6.2,6.2,0,0,0,1.892.282c1.98-.067,3.719-1.523,4.979-3.22s2.184-3.677,3.442-5.377a3.523,3.523,0,0,1,2.59-1.755c1.715.031,3.342,2.412,4.776,1.365.558-.407.871-1.272,1.533-1.367s1.183.657,1.841.757a2.09,2.09,0,0,0,1.5-.652l6.744-5.406C6638.013,2050.619,6637.557,2048.65,6638.489,2047.464Z"
          transform="translate(-3065.327 -1603.706)"
          fill="#a73396"
          stroke="#fff"
          stroke-miterlimit="10"
          stroke-width="1"
        />
        <path
          id="パス_71"
          data-name="パス 71"
          d="M6382.854,4405.784a42.221,42.221,0,0,1-2.969-3.045,10.908,10.908,0,0,1-1.357-2.41,12.816,12.816,0,0,1-.855-7.443c.014-.067.036-.132.051-.2-.245-.231-.487-.465-.712-.714a4.315,4.315,0,0,1-.292-.362,7.1,7.1,0,0,1-1.235-.97,3.386,3.386,0,0,0-.941-.787c-.338-.148-.718-.137-1.063-.263-.877-.319-1.269-1.36-1.808-2.227-.015-.023-.028-.048-.043-.072a3.239,3.239,0,0,0-.674-.794,2.056,2.056,0,0,0-.183-.116,5.532,5.532,0,0,1-4.73.141c-.547-.255-1.159-.6-1.7-.328-.767.389-1.233,1.9-1.959,1.425.213-1.56-1.722-2.352-3.119-2.067s-2.919,1.012-4.149.222c-.7-.45-1.121-1.308-1.8-1.8-1.408-1.011-3.412.016-4.244,1.633a11.431,11.431,0,0,0-.779,5.446,1.848,1.848,0,0,0-2.526.332c-.7.681-1.145,1.627-1.816,2.34a7.223,7.223,0,0,1-1.936,1.366,24.322,24.322,0,0,1-8.3,2.625,31.478,31.478,0,0,0,.467,3.923,14.342,14.342,0,0,0,1.357,2.659,11.19,11.19,0,0,1,.845,2.089c.072.238.143.475.2.718a3,3,0,0,0,.893.345c.628.12,1.277-.032,1.91.054a5.97,5.97,0,0,1,2.268,1.061c.574.363,1.164.692,1.757,1.016.153.083.3.177.456.258a4.881,4.881,0,0,0,.409-.654c.547-1.065.961-2.329,1.925-2.929,2.155-1.34,4.792,1.74,7.149.921a9.728,9.728,0,0,1,1.651-.7,3.132,3.132,0,0,1,2.37,1.129,4.011,4.011,0,0,0,2.3,1.363c.885.04,1.81-1.028,1.371-1.883,1.917,1.733,4.74,1.269,7.067,2.2a24.693,24.693,0,0,1,2.541,1.357q.253-.341.524-.655a3.33,3.33,0,0,1,1.962-1.268c1.171-.172,2.258.621,3.386,1.011a15.317,15.317,0,0,1,2.145.688c1.34.694,2.334,2.377,3.813,2.349a2.157,2.157,0,0,0,1.721-1.116,3.545,3.545,0,0,0,.546-2.023A6.257,6.257,0,0,0,6382.854,4405.784Z"
          transform="translate(-2859.861 -3701.166)"
          fill="#5060a9"
          stroke="#fff"
          stroke-miterlimit="10"
          stroke-width="1"
        />
        <path
          id="パス_73"
          data-name="パス 73"
          d="M6734.584,4470.015l-7.691-1.049c-.951-.13-2.072-.4-2.43-1.384a2.107,2.107,0,0,1,1.4-2.525,4.933,4.933,0,0,1,2.958.311l3.718,1.188a34.262,34.262,0,0,0-7.093-10.588c-.067.092-.134.185-.2.279-1.872,2.683-3.276,6.125-6.191,6.583a4.516,4.516,0,0,0-2.031.453c-.669.476-.963,1.489-1.7,1.819s-1.535-.167-2.2-.644l-4.865-3.5a2.273,2.273,0,0,0-1.827-.63c-.748.213-1.111,1.118-1.561,1.815a4.19,4.19,0,0,1-4.036,1.938,4.486,4.486,0,0,1-3.438-3.044,25.233,25.233,0,0,0-.748-2.7,6.98,6.98,0,0,0-1.7-2.037c-.015.067-.037.131-.051.2a12.817,12.817,0,0,0,.855,7.444,10.894,10.894,0,0,0,1.357,2.41,42.021,42.021,0,0,0,2.969,3.045,6.259,6.259,0,0,1,1.894,3.849,3.545,3.545,0,0,1-.546,2.023,34.71,34.71,0,0,1,3.323,3.683,3.344,3.344,0,0,1,.154,5.125l-3.864,4.661a30.022,30.022,0,0,0-2.317,3.05,16.971,16.971,0,0,0-2.041,12.817c.663,2.724,1.911,5.948.239,8.072-.82,1.042-2.325,2.262-1.543,3.339.483.665,1.429.434,2.167.676,1.464.48,1.97,2.795,3.453,3.194,1.325.357,2.543-1.141,2.754-2.637a20.239,20.239,0,0,0-.352-4.509c-.128-1.508.184-3.27,1.373-4.01,1.1-.684,2.567-.248,3.643-.976,1-.674,1.307-2.081,1.872-3.213s1.93-2.106,2.828-1.281c1.1,1.015.246,3.666,1.6,4.192a33.246,33.246,0,0,0,4.09-6.653,9.867,9.867,0,0,0,1.171-5.714c-.261-1.5-1.1-2.813-1.334-4.316-.343-2.239.731-4.454,2.042-6.2s2.9-3.25,3.931-5.216c.822-1.573,1.267-3.416,2.383-4.747,1.921-2.292,5.13-2.337,7.94-2.083.554.05,1.22.05,1.531-.462C6737.064,4471.089,6735.641,4470.159,6734.584,4470.015Z"
          transform="translate(-3177.084 -3764.784)"
          fill="#fbb0c8"
          stroke="#fff"
          stroke-miterlimit="10"
          stroke-width="1"
        />
        <path
          id="パス_75"
          data-name="パス 75"
          d="M6685.186,4067.26a55.455,55.455,0,0,0,.824-10.193l-.02-.011a29.023,29.023,0,0,1-4.364-2.926c-.385-.282-.866-.567-1.284-.349a1.43,1.43,0,0,0-.536.683,15.746,15.746,0,0,0-1.27,3.771,4.172,4.172,0,0,1-.793,2.123,2.072,2.072,0,0,1-2.779-.135,12.334,12.334,0,0,1-1.938-2.558,10.074,10.074,0,0,0-2.042-2.152c-.026.068-.046.138-.072.207a17.023,17.023,0,0,0-1.22,6.179c.028,2.863.882,6.116-.757,8.325a6.258,6.258,0,0,0-1.132,1.6,4.173,4.173,0,0,0-.042,1.8,34.186,34.186,0,0,1-.248,9.494c-.185,1.1-.618,2.408-1.615,2.589a4.018,4.018,0,0,1-1.65-.345,5,5,0,0,0-3.632.842,18.347,18.347,0,0,0-7.609,8.8,2.846,2.846,0,0,1-1.04,1.522,2.413,2.413,0,0,1-1.185.158,10.307,10.307,0,0,0-3.759.669c-.005.032-.009.064-.015.1.54.866.931,1.907,1.808,2.226.345.126.725.115,1.063.263a3.379,3.379,0,0,1,.941.788,7.121,7.121,0,0,0,1.235.969,7.825,7.825,0,0,0,1.127.6c-.045.16-.087.32-.124.481a6.98,6.98,0,0,1,1.7,2.037,25.233,25.233,0,0,1,.748,2.7,4.486,4.486,0,0,0,3.438,3.044,4.19,4.19,0,0,0,4.036-1.938c.45-.7.813-1.6,1.561-1.815a2.273,2.273,0,0,1,1.827.63l4.865,3.5c.663.476,1.465.971,2.2.644s1.031-1.343,1.7-1.819a4.516,4.516,0,0,1,2.031-.453c2.916-.458,4.32-3.9,6.191-6.583q.038-.2.077-.405c.482-2.522,1-5.042-.275-7.012-.946-1.462-2.781-2.358-2.964-4.147-.29-2.823,3.867-5.082,2.6-7.551-.311-.608-.925-1.043-1.025-1.733a2.594,2.594,0,0,1,.182-1.14A96.573,96.573,0,0,0,6685.186,4067.26Z"
          transform="translate(-3135.196 -3411.261)"
          fill="#d5c12b"
          stroke="#fff"
          stroke-miterlimit="10"
          stroke-width="1"
        />
        <path
          id="パス_77"
          data-name="パス 77"
          d="M5747.128,4096.056a7.912,7.912,0,0,0-.283-.924,11.952,11.952,0,0,1-.785-2.49c-.14-1.063.119-2.159-.055-3.216a10.041,10.041,0,0,0-1.978-3.713c-.17-.259-.328-.527-.481-.8-.036-.064-.074-.126-.109-.191a14.265,14.265,0,0,0-3.95-.076,8.456,8.456,0,0,0-6.941,5.228c-.3.835-.449,1.73-.76,2.559a7.108,7.108,0,0,1-4.081,4.053,14.341,14.341,0,0,1-2.4.63c-2.148.427-4.413.8-6.47-.011a5.144,5.144,0,0,1-3.238-5.562c.44-1.929,2.055-3,3.576-4.186-.007-.087-.019-.173-.027-.26a12.968,12.968,0,0,0-2.5.476c-1.748.588-3.375,2.8-2.413,4.521l-1.845.882a9.8,9.8,0,0,1-1.38,6.641c-.7,1.1-1.657,2.07-1.93,3.381-.356,1.71.547,3.4.867,5.115.323,1.734.046,3.539.227,5.3.354,3.441,2.442,6.674,1.877,10.08a25.322,25.322,0,0,1-1.15,3.592,14.111,14.111,0,0,0-.358,1.389,3.76,3.76,0,0,0,2.313-1.008c1.811-1.771,2.266-4.657,2.61-7.31.94,1.782,3.4,1.871,4.929.7s2.354-3.162,3.052-5.076a7.648,7.648,0,0,1,1.424-2.737,2.028,2.028,0,0,1,2.623-.454,11.159,11.159,0,0,1,1.053,1.24,4.3,4.3,0,0,0,2.7,1l10.031,1.247.151.019c.251.031.505.065.759.1l.383-.952c.584-1.455,1.277-3.033,2.593-3.667a2.438,2.438,0,0,0,1.077-.66c.492-.706-.057-1.678-.39-2.49C5744.266,4104.57,5748.069,4100.169,5747.128,4096.056Z"
          transform="translate(-2310.836 -3438.363)"
          fill="#fd9654"
          stroke="#fff"
          stroke-miterlimit="10"
          stroke-width="1"
        />
        <path
          id="パス_80"
          data-name="パス 80"
          d="M5336.077,4425.941c-2.228-1.744-2.384-5.878-.348-7.867-.958-.141-1.911-.314-2.854-.547a1,1,0,0,1-.633-.343,1.657,1.657,0,0,1-.124-.965c.029-1.805-1.527-3.108-2.993-3.89a1.368,1.368,0,0,0-1.254-.2c-.658.35-.618,1.546-1.267,1.916-1.059.6-1.637-1.545-2.7-2.136-.662-.368-1.447-.06-2.186,0a4.588,4.588,0,0,1-3.811-2.087,16,16,0,0,1-2.013-4.265l-.284-.04-.08-.012c-1.442-.2-3.107-.328-4.143.8a5.537,5.537,0,0,0-.942,1.76l-3.415,8.761a8.344,8.344,0,0,1-1.17,2.282c-.645.789-1.563,1.285-2.1,2.164-1.124,1.821-.126,4.375,1.308,5.9s3.291,2.6,4.416,4.416a7.282,7.282,0,0,1,.8,5.551c-.206.784-.82,1.664-1.511,1.386-.948-.38-.392-1.946-.445-3.063a2,2,0,0,0-2.145-1.93,2.159,2.159,0,0,0-1.508,2.567c.188.791.8,1.49.681,2.3a2.538,2.538,0,0,1-.47,1.008l-2.31,3.48a2.771,2.771,0,0,1-2.4-1.862c-.129-.355-.22-.772-.516-.967-.669-.439-1.3.762-1.12,1.6s.692,1.691.405,2.494a14.027,14.027,0,0,0-8.061.531,3.538,3.538,0,0,1-1.954.377c-1.568-.35-1.9-2.695-3.062-3.919a3.035,3.035,0,0,0-1.851-.913c0,.33.013.659-.007.988-.131,2.176-.59,4.436-.654,6.6a9.664,9.664,0,0,0,.75,4.437c1.581,3.392,5.384,4.572,8.8,5.048a49.365,49.365,0,0,0,6.235.454l.206-.221,2.214-2.377,4.3-4.621,4.262-4.577a6.69,6.69,0,0,0,2.047-3.385c.088-.577.1-1.294.57-1.56a1.2,1.2,0,0,1,.628-.1l4.79.087.045-.11a23.355,23.355,0,0,0,1.2-3.579,6.309,6.309,0,0,1,.839-2.323c1.673-2.267,5.244-.2,7.527-1.67a12.034,12.034,0,0,1,1.5-1.084,4.647,4.647,0,0,1,2.193-.107,8.37,8.37,0,0,0,6.064-2.15,2.256,2.256,0,0,0,.774-1.113C5338.607,4427.545,5337.087,4426.732,5336.077,4425.941Z"
          transform="translate(-1936.756 -3720.319)"
          fill="#45af6d"
          stroke="#fff"
          stroke-miterlimit="10"
          stroke-width="1"
        />
        <path
          id="パス_82"
          data-name="パス 82"
          d="M5155.956,4709.589c-2.337-2.249-5.4-3.4-7.762-5.61s-3.867-6.359-1.935-9.04c.536-.743,1.277-1.283,1.788-2.046a6.494,6.494,0,0,0,.862-2.326c.018-.088.036-.176.052-.265a10.814,10.814,0,0,0-3.711-.293c-1.436.058-3.236-.2-3.7-1.712-.531-1.741,1.194-4,.029-5.3-.456-.511-1.169-.578-1.745-.907-1.378-.787-1.661-2.972-1.009-4.533a9.785,9.785,0,0,1,3.212-3.648c-2.97-2.143-2.469-7.026-3.564-10.768-.025-.085-.066-.164-.093-.248l-.29,0a49.365,49.365,0,0,1-6.235-.454c-3.412-.476-7.215-1.656-8.8-5.048a9.664,9.664,0,0,1-.75-4.437l-2.95,3.338c-.39.441-1.008.905-1.439.515a1.3,1.3,0,0,1-.3-.591l-1.437-4.573-.528,1.518c-.217.378-.768-.037-.82-.482s.087-.942-.132-1.319c-.451-.777-1.555.036-1.8.918s-.372,2.031-1.165,2.311c-1.085.129-1.353-1.8-.669-2.744s1.808-1.471,2.3-2.55a6.911,6.911,0,0,0,.31-2.813,3.252,3.252,0,0,1,.888-2.569c.706-.545,1.979.027,1.818.964,1.423-.063,1.978-2.354,1.192-3.674a6.032,6.032,0,0,0-3.636-2.289,1.4,1.4,0,0,0-.966-.072,1.626,1.626,0,0,0-.532.456c-3.329,3.755-7.746,5.94-12.337,7.468.012.124.024.248.036.372l.366,3.806a6.016,6.016,0,0,0,.643,2.579c1.01,1.65,3.217,1.631,4.684,2.782,2.053,1.61,1.827,5.671-.39,6.988a2.384,2.384,0,0,0-.884.665,1.691,1.691,0,0,0-.22.782,4.423,4.423,0,0,0,3.026,4.354,6.672,6.672,0,0,0,5.188-.842l-.2,3.884c1.593-.342,2.714,2.519,1.4,3.581,1.505.744,3.375.531,4.979.834a3.7,3.7,0,0,1,2.34,1.268,9.752,9.752,0,0,1,1.235,2.844,10.378,10.378,0,0,0,3.963,5.108,1.543,1.543,0,0,0,1.278.341,2.624,2.624,0,0,0,.891-.747c1.08-1.075,2.669-1.15,4.12-1.168a5.59,5.59,0,0,1,3.553.766c1.013.768,1.45,2.6.522,3.489-1.025.984-3.094.4-3.544,1.819a3.1,3.1,0,0,0,.252,1.836c1.413,4.38-.27,9.175-.342,13.828-.046,2.937.541,5.917.538,8.826a4.472,4.472,0,0,1,.438.4,11.289,11.289,0,0,1,2.149,4.232,7.391,7.391,0,0,1,.534,2.629c-.107,2.511-2.5,3.971-4.032,5.816a2.135,2.135,0,0,0-.595,1.266c-.017.675.5,1.277.43,1.948-.081.824-.968,1.274-1.184,2.068a3.165,3.165,0,0,0,.527,2.1,10.332,10.332,0,0,1,.278,8.069c.618,1,1.943-.347,3.039-.353,1-.006,1.652,1.161,2.558,1.633,1.033.539,2.167.115,3.26-.405l.37-.18a22.743,22.743,0,0,1,7.281-7.7,4.622,4.622,0,0,0,1.782-1.594,4.931,4.931,0,0,0,.4-1.989q.285-4.585.569-9.169a9.77,9.77,0,0,0-.288-3.921c-.266-.734-.707-1.38-.952-2.123-.759-2.306.951-5.158,3.159-5.27a16.579,16.579,0,0,0,2.076.033,1.518,1.518,0,0,0,1.317-1.5A1.976,1.976,0,0,0,5155.956,4709.589Z"
          transform="translate(-1775.717 -3925.443)"
          fill="#e3f235"
          stroke="#fff"
          stroke-miterlimit="10"
          stroke-width="1"
        />
        <path
          id="パス_83"
          data-name="パス 83"
          d="M5591.773,3842.331a4.562,4.562,0,0,0-4.984-2.921,10.694,10.694,0,0,0-5.368,3.005,25.34,25.34,0,0,1-4.935,3.934c-2.691,1.386-5.833,1.313-8.563,2.6a3.036,3.036,0,0,0-1.276.972,4.808,4.808,0,0,0-.561,2.128,18.491,18.491,0,0,1-2.788,7.741c-.661,1.02-1.413,2.5-.6,3.37.7.75,1.838.223,2.705-.261s2.158-.755,2.608.2c.318.676-.058,1.5.043,2.259a5.394,5.394,0,0,0,.944,1.871c1.519,2.654.086,6.1-1.342,8.815,1.285.81,1.177,2.993.368,4.366s-2.09,2.343-2.876,3.732a14.675,14.675,0,0,0-1.094,2.931,38.878,38.878,0,0,1-9.351,15.814,22.244,22.244,0,0,0-3.166,3.541,10.546,10.546,0,0,0-.7,1.305l.119.335c.007.021.015.041.022.061a16,16,0,0,0,2.013,4.265,4.587,4.587,0,0,0,3.811,2.087c.738-.057,1.524-.365,2.186,0,1.064.591,1.642,2.739,2.7,2.136.649-.369.609-1.565,1.267-1.916a1.37,1.37,0,0,1,1.254.2c1.466.782,3.022,2.084,2.993,3.89a1.661,1.661,0,0,0,.124.965,1,1,0,0,0,.633.343c.942.233,1.9.406,2.854.547.034-.034.057-.078.092-.11a5.074,5.074,0,0,1,.479-.376,21.782,21.782,0,0,1,.161-7.157,14.1,14.1,0,0,1,.358-1.39,25.312,25.312,0,0,0,1.15-3.592c.564-3.406-1.523-6.639-1.877-10.08-.181-1.759.1-3.564-.227-5.3s-1.224-3.405-.867-5.115a10.6,10.6,0,0,1,1.93-3.381,9.8,9.8,0,0,0,1.38-6.641l1.845-.882c-.963-1.723.665-3.933,2.413-4.521a12.949,12.949,0,0,1,2.5-.476,22.717,22.717,0,0,0-1.717-6.917c1.653-1.334,1.84-3.926,2.113-6.176s1.165-4.891,3.18-5.271c.646-.122,1.385,0,1.887-.47,1.137-1.059-.39-3.433.57-4.689.6-.79,1.719-.546,2.647-.645C5590.922,3847.239,5592.475,3844.534,5591.773,3842.331Z"
          transform="translate(-2171.839 -3222.894)"
          fill="#d5c12b"
          stroke="#fff"
          stroke-miterlimit="10"
          stroke-width="1"
        />
        <path
          id="パス_84"
          data-name="パス 84"
          d="M6599.6,2478.157c.2-1.565,1.261-2.8,1.823-4.255a6.9,6.9,0,0,0-1.532-7.226,5.317,5.317,0,0,0-6.67-.476c-.946.678-1.7,1.666-2.694,2.253a4.123,4.123,0,0,1-4.807-.514,13.149,13.149,0,0,0-1.436-1.349c-1.107-.722-2.5-.441-3.76-.168a19.239,19.239,0,0,1-7.216.521c-2.569-.43-5.125-1.779-7.658-1.135a7.007,7.007,0,0,0-2.027.948c-.017.069-.032.138-.049.207-.171.707-.317,1.421-.448,2.118a3.764,3.764,0,0,0-.067,1.591c.407,1.626,2.437,1.638,3.818,2.339,2.559,1.3,2.859,5.37,1.7,8.214s-3.31,5.064-4.585,7.848c-.793,1.732-1.264,3.7-2.464,5.114s-3.547,1.915-4.588.354a7.8,7.8,0,0,0,3.143,8.06,1.45,1.45,0,0,0,1.211.279c.49-.176.734-.762,1.046-1.218a3.642,3.642,0,0,1,3.855-1.317,9.863,9.863,0,0,1,3.76,2.136,3.178,3.178,0,0,1,1.245,1.569,4,4,0,0,1-.006,1.481,22.8,22.8,0,0,0,.708,8.9,8.615,8.615,0,0,1,.52,2.672,13.268,13.268,0,0,1-.7,2.791,27.371,27.371,0,0,0-.354,5.822c-.08,1.949-.569,4.072-2.014,5.183-.88.676-2,.881-2.879,1.558-1.626,1.253-2,3.765-1.8,5.953a15.942,15.942,0,0,0,.52,2.727c.021.075.041.149.062.224a13.857,13.857,0,0,0,2.073-1.21,7.961,7.961,0,0,1,2.045-1.254c1.463-.476,3.007.256,4.354,1.049,5.514,3.245,10.407,7.786,15.709,11.394.076-.059.154-.111.232-.162a2.236,2.236,0,0,1,.591-.286,7.686,7.686,0,0,1,1.75-.08,7.361,7.361,0,0,0,3.482-1.515,5.554,5.554,0,0,0,1.551-1.328,7.3,7.3,0,0,0,.92-2.49c.018-.339.046-.676.084-1.013a15.8,15.8,0,0,1,1-4.112,11.8,11.8,0,0,0,.784-2.225c.529-2.874-1.734-5.313-3.406-7.583a22.072,22.072,0,0,1-3.678-8.047,6.942,6.942,0,0,1-.023-3.95,13.282,13.282,0,0,1,1.829-2.746c1.4-2.037,1.857-4.664,2.271-7.187l.943-5.742c.3-1.806.542-3.861-.475-5.308-.612-.871-1.693-1.844-1.172-2.785.5-.9,1.746-.363,2.517.259,2.3-1.367,2.95-5.25,1.249-7.445a11.113,11.113,0,0,1-1.923-2.4c-.687-1.687.355-3.578,1.349-5.065l.371-.555a4.283,4.283,0,0,1-.084-1.212C6599.606,2478.291,6599.6,2478.226,6599.6,2478.157Z"
          transform="translate(-3055.886 -2015.263)"
          fill="#fd9654"
          stroke="#fff"
          stroke-miterlimit="10"
          stroke-width="1"
        />
        <path
          id="パス_87"
          data-name="パス 87"
          d="M4241.03,4979.149a18.363,18.363,0,0,0,.542-3.47,3.6,3.6,0,0,0-1.194-2.473c.366-.375.707-.779,1.048-1.182.142-.167.289-.328.426-.5a10.614,10.614,0,0,1-.939-2.018,13.487,13.487,0,0,1-.389-3.891,105.773,105.773,0,0,0-1.034-13.211c-.358-2.622-.8-5.228-1.31-7.82-.042-.217-.079-.437-.122-.654-.227-.078-.459-.136-.68-.236a10.718,10.718,0,0,0-1.352-.6,10.063,10.063,0,0,0-2.668-.139,2.9,2.9,0,0,1-2.414-1.042,7.629,7.629,0,0,1-.478-.892l-.016-.032a11.81,11.81,0,0,1-5.863-1.15c-2-.957-4.517-2.239-6.133-.612-1.657,1.669-.835,5.166-2.593,6.7-.413.36-.927.562-1.326.941-1.159,1.1-.919,3.107-.768,4.792s-.218,3.869-1.712,4.209c-.96.219-2.114-.449-2.861.255-.287.27-.431.69-.719.958-1.144,1.067-2.557-1.1-4.031-1.361-1.338-.239-2.515,1.187-3.87,1.177-1.725-.012-2.683-2.17-3.237-3.985-.8.63-.824,1.9-1.107,2.945s-1.448,2.05-2.147,1.287c-.408,5.2-4.081,9.33-5.536,14.293a20.9,20.9,0,0,0-.705,3.733c-.028.273-.047.547-.068.821a30.8,30.8,0,0,1,3.152,4.056c.78,1.418,1.174,3.091,2.108,4.389a14.6,14.6,0,0,0,1.116,1.308c.093-.07.184-.145.279-.213a29.294,29.294,0,0,1,5.342-2.854l3.9-1.729a3.15,3.15,0,0,1,4.4-1.824,5.633,5.633,0,0,0-.2,4.97,10.243,10.243,0,0,0,3.062,3.868,19.374,19.374,0,0,0,9.586,4.346l-3.518-5.084a2.92,2.92,0,0,1-.734-2.221,2.37,2.37,0,0,1,1.855-1.482,35.993,35.993,0,0,1,5.442-.985l3.708-.477c.914-.117,2.011-.393,2.293-1.364.147-.506.053-1.158.435-1.478.678-.57,1.863.713,2.4-.015.256-.345.1-.859.148-1.3.175-1.52,2.241-1.245,3.464-.536a6.431,6.431,0,0,0,6.216,4.724C4241.222,4981.759,4240.88,4980.316,4241.03,4979.149Z"
          transform="translate(-973.929 -4188.811)"
          fill="#45af6d"
          stroke="#fff"
          stroke-miterlimit="10"
          stroke-width="1"
        />
        <path
          id="パス_88"
          data-name="パス 88"
          d="M6068.879,3379.392a5.657,5.657,0,0,1-3.7-3.6c-.271-.769-.451-1.679-1.09-2.1-.389-.256-.891-.279-1.233-.607-.682-.654-.257-1.9-.466-2.869a3.149,3.149,0,0,0-.817-1.421,3.529,3.529,0,0,0-.6.473,4.025,4.025,0,0,0-.584.765,10.456,10.456,0,0,0-1.082,3.186,29.054,29.054,0,0,0-.993,8.97,13.125,13.125,0,0,1,.168,3.934c-.466,2.239-2.5,3.641-3.354,5.734-.3.747-.45,1.568-.788,2.3a8.145,8.145,0,0,1-3.758,3.358l-10.013,5.641a3.9,3.9,0,0,0-1.59,1.332,7.953,7.953,0,0,0-.533,2.772c-.348,2.225-1.938,3.9-3.31,5.57a36.815,36.815,0,0,0-6.868,13.173c-.609,2.12-1.258,4.593-3.107,5.448a13.463,13.463,0,0,0-1.732.678c-1.379.882-1.468,2.995-2.021,4.652-1,2.988-3.759,4.756-6.449,5.862s-5.589,1.849-7.834,3.833a10.456,10.456,0,0,1-1.721,1.424,9.242,9.242,0,0,1-2.381.693c-3.618.879-6.416,3.855-8.753,7.137-.038.054-.078.106-.116.16.153.271.311.54.481.8a10.041,10.041,0,0,1,1.978,3.713c.174,1.057-.084,2.153.055,3.216a11.952,11.952,0,0,0,.785,2.49,4.851,4.851,0,0,0,1.194-.226,3.512,3.512,0,0,0,2.431-3.445c-.072-.772-.448-1.584-.134-2.278a1.766,1.766,0,0,1,.792-.767,4.47,4.47,0,0,1,5.771,1.49c.949,1.4,1.979,3.653,3.413,2.926.705-.358,1.02-1.367,1.748-1.663,1.124-.457,2.492,1.054,3.46.273a2.46,2.46,0,0,0,.624-1.132,14.417,14.417,0,0,1,4.755-6.617,6.109,6.109,0,0,1,3.524-1.449,3.256,3.256,0,0,1,3.087,2.038,19.847,19.847,0,0,0,.6,2.228c.5.977,1.561,1.362,2.437,1.923a7.472,7.472,0,0,1,2.945,7.392,3.786,3.786,0,0,1,1.676-.509c.751-.029,1.594.172,2.187-.342.5-.436.613-1.216.9-1.85a2.731,2.731,0,0,1,3.184-1.567c-.157-2.7-.067-5.952,2.016-7.348a9.254,9.254,0,0,0,1.726-1.082c.967-1.01.878-2.933,1.969-3.772,1.052-.81,2.524-.082,3.437.916s1.634,2.289,2.8,2.873a2.961,2.961,0,0,0,1.733.286c.1-.013.2-.05.3-.072.544-2.525.506-5.035-.837-7.1a11.591,11.591,0,0,1-1.255-1.954,6.583,6.583,0,0,1-.344-1.717q-.726-6.657-1.452-13.314a2.976,2.976,0,0,1,.31-2.15,2.006,2.006,0,0,1,1.4-.632c1.4-.163,2.817.095,4.219-.042a4.13,4.13,0,0,0,3.518-2.2c.391-.885.375-1.939.764-2.826a9.512,9.512,0,0,1,1.516-2.042c3.367-4.193,2.184-10.764,3.9-16.053.042-.131.078-.264.124-.393.01-.029.024-.056.035-.085-.841-1.382-1.646-2.791-2.368-4.253a3.779,3.779,0,0,1-.5-3,7.77,7.77,0,0,1,1.016-1.388,6.883,6.883,0,0,0,.91-3.194q.374-3.213.747-6.425a3.7,3.7,0,0,1,1.094-2.7c.813-.559,2.16-.4,2.447-1.414C6071.615,3380.236,6069.992,3379.694,6068.879,3379.392Z"
          transform="translate(-2561.435 -2809.341)"
          fill="#d5c12b"
          stroke="#fff"
          stroke-miterlimit="10"
          stroke-width="1"
        />
        <path
          id="パス_90"
          data-name="パス 90"
          d="M6583.25,3104.731c-.817-1.5-2.614-2.6-2.4-4.339.137-1.136,1.131-1.914,1.451-3,.495-1.684-.722-3.32-1.666-4.749a18.524,18.524,0,0,1-2.834-7.993c-.091-.062-.184-.12-.275-.182-5.3-3.607-10.195-8.148-15.709-11.394-1.347-.793-2.891-1.526-4.354-1.049a7.961,7.961,0,0,0-2.045,1.254,13.857,13.857,0,0,1-2.073,1.21c-.065.031-.135.052-.2.083-.038.088-.083.173-.118.261a23.478,23.478,0,0,0-1.225,7q-.225,3.112-.449,6.223a9.245,9.245,0,0,1-.974,4.19c-.988,1.608-2.91,2.369-3.67,4.124-.674,1.557-.25,3.524-1.035,5.016-.377.718-.994,1.24-1.427,1.918a7.713,7.713,0,0,0-.931,2.831c-.045.256-.063.517-.1.774l.539.554c.121.124.242.251.36.383a3.15,3.15,0,0,1,.817,1.421c.209.974-.216,2.215.466,2.868.342.328.844.351,1.233.607.639.421.819,1.331,1.09,2.1a5.657,5.657,0,0,0,3.7,3.6c1.113.3,2.736.844,2.392,2.058-.287,1.013-1.634.855-2.447,1.414a3.7,3.7,0,0,0-1.094,2.7q-.374,3.213-.747,6.425a6.883,6.883,0,0,1-.91,3.194,7.77,7.77,0,0,0-1.016,1.388,3.779,3.779,0,0,0,.5,3c.723,1.462,1.527,2.871,2.368,4.253.089.146.184.288.275.434l1.951-.2a7.574,7.574,0,0,1,2.658.042c1.3.333,2.369,1.322,3.553,2a16.346,16.346,0,0,0,5.269,1.618l6.178,1.151,1.506-10.246a5.177,5.177,0,0,1-.541-1.017,3.666,3.666,0,0,1-.285-1.271c-.061-2.531,2.511-4.124,3.288-6.5.267-.817.311-1.7.511-2.543a13.3,13.3,0,0,1,1.367-3.179l5.786-10.742C6583.248,3110.068,6584.532,3107.083,6583.25,3104.731Z"
          transform="translate(-3043.971 -2548.39)"
          fill="#fbafc7"
          stroke="#fff"
          stroke-miterlimit="10"
          stroke-width="1"
        />
        <path
          id="パス_93"
          data-name="パス 93"
          d="M4106.292,4720.031c-.594.094-1.008.683-1.518,1.036-2.06,1.428-4.983-1.235-7.083.118a7.18,7.18,0,0,0-1.43,1.529c-3.783,4.509-10.615,3.222-15.389,6.365a1.95,1.95,0,0,0-.91,1.051c-.331,1.237,1.206,1.947,1.962,2.927,1,1.3.543,3.4-.517,4.634a13.1,13.1,0,0,1-3.929,2.624c-3.707,2.042-6.806,5.207-9.748,8.438q-4.46,4.9-8.61,10.128c-.837,1.055-1.72,2.458-1.217,3.749a4.609,4.609,0,0,0-2.521-.1,1.948,1.948,0,0,0-1.308,2.119l-2.361.547a9.458,9.458,0,0,1-8.774,5.656,3.052,3.052,0,0,0-2.243.364,3.141,3.141,0,0,0-.71,1.113q-.9,1.969-1.8,3.94l-.1.225a47.789,47.789,0,0,1,2.575,4.407,3.206,3.206,0,0,0,.708,1.044,2.178,2.178,0,0,0,.774.384,6.022,6.022,0,0,0,6.824-2.92,2.853,2.853,0,0,1-.267,2.97,11.865,11.865,0,0,0-1.588,2.647c-.364,1.21-.025,2.558-.294,3.8a7.28,7.28,0,0,0-.41,1.948c.1,1.7,2.115,2.192,3.645,2.217a2.486,2.486,0,0,0,2.067-.622,4.211,4.211,0,0,0,.471-2.548,8.871,8.871,0,0,1,2.92-5.959c.114-.108.241-.2.359-.3.138-.121.279-.236.42-.35a20.882,20.882,0,0,1,.705-3.733c1.456-4.963,5.127-9.093,5.536-14.293.7.763,1.864-.245,2.147-1.287s.307-2.315,1.107-2.945c.554,1.815,1.511,3.973,3.237,3.985,1.355.009,2.532-1.416,3.87-1.177,1.474.263,2.887,2.428,4.03,1.361.288-.268.433-.688.719-.958.747-.7,1.9-.037,2.86-.255,1.494-.34,1.863-2.524,1.712-4.209s-.391-3.691.768-4.792c.4-.379.913-.581,1.326-.941,1.759-1.536.936-5.033,2.594-6.7,1.616-1.627,4.129-.345,6.133.612a11.809,11.809,0,0,0,5.863,1.15l.032,0a4.565,4.565,0,0,0,.465-1.521,9.089,9.089,0,0,0-.9-3.616c-.4-1.185-.5-2.726.392-3.517,1.28-1.142,3.172.312,4.788-.012a2.864,2.864,0,0,0,1.781-3.719c-.424-1.07-1.488-1.919-1.368-3.081a2.754,2.754,0,0,1,.417-1.088,12.135,12.135,0,0,1,.83-1.226c.058-.076.117-.15.176-.224-1.264-1.054-2.3-2.177-1.979-3.731a4.407,4.407,0,0,1,1.984-2.484,5.11,5.11,0,0,0,2.127-2.366C4107.988,4721.367,4107.305,4719.871,4106.292,4720.031Z"
          transform="translate(-842.379 -3996.844)"
          fill="#d5c12b"
          stroke="#fff"
          stroke-miterlimit="10"
          stroke-width="1"
        />
        <path
          id="パス_95"
          data-name="パス 95"
          d="M3858.021,5220.663c-1.29-.214-2.55.472-3.841.678a2.086,2.086,0,0,1-1.806-.395,5.047,5.047,0,0,1-.758-1.239,3.524,3.524,0,0,0-4.615-1.485c1.478-4.981.952-10.413,1.2-15.66-.086-.1-.163-.206-.251-.3a14.641,14.641,0,0,1-1.116-1.308c-.934-1.3-1.329-2.971-2.108-4.389a30.775,30.775,0,0,0-3.152-4.056c-.121-.154-.237-.312-.353-.471-.117.1-.245.19-.359.3a8.871,8.871,0,0,0-2.92,5.959,4.211,4.211,0,0,1-.471,2.548,2.486,2.486,0,0,1-2.067.622c-1.53-.025-3.541-.521-3.645-2.217a7.28,7.28,0,0,1,.41-1.948c.269-1.24-.07-2.588.294-3.8a11.865,11.865,0,0,1,1.588-2.647,2.853,2.853,0,0,0,.267-2.97,6.022,6.022,0,0,1-6.824,2.92,2.178,2.178,0,0,1-.774-.384,3.206,3.206,0,0,1-.708-1.044,47.789,47.789,0,0,0-2.575-4.407c-.035-.055-.074-.106-.109-.161a8.677,8.677,0,0,0-3.836,2c-2.335,2.148-3.643,5.865-6.556,6.8a4.219,4.219,0,0,1-1.906.154c-.58-.086-1.139-.29-1.709-.432a8.727,8.727,0,0,0-8.539,2.8c-.85-.887-2.555-1.563-2.875-.318a3.433,3.433,0,0,0-.008.944c.044,1.6-1.232,2.8-2.31,3.862s-2.15,2.647-1.592,4.124c.354.935,1.258,1.463,1.752,2.315.829,1.433.311,3.3.318,5s1.341,3.77,2.713,3.01c.577-.319.884-1.036,1.4-1.472a3.566,3.566,0,0,1,2.024-.643c1.506-.154,3.153-.27,4.4.689s1.521,3.447.151,4.155c4.724,1.595,10.317-1.167,12.417-6.13.769,2.057-1.871,4.063-1.5,6.252a2,2,0,0,0,3.031,1.39,2.475,2.475,0,0,0,.419-3.064,3.979,3.979,0,0,1-.513-.576,1.776,1.776,0,0,1,.513.576,3.917,3.917,0,0,0,4.575.607,1.984,1.984,0,0,1,.8-2.66,8.02,8.02,0,0,0,.951,3.158,2.184,2.184,0,0,0,2.633,1.043c.333-.163.64-.454,1-.437.75.033.917,1.173,1.385,1.825.823,1.148,2.881.085,2.619-1.354.186,2.674,3.683,3.058,5.271,5.078.5.641.834,1.484,1.5,1.91s1.8-.042,1.636-.872a6.477,6.477,0,0,0,2.4,2.574,2.031,2.031,0,0,0,2.829-1.109c.2-.707.059-1.679.658-2a1.838,1.838,0,0,0,1.789.506l8.359-.765C3860.437,5222.732,3859.312,5220.876,3858.021,5220.663Z"
          transform="translate(-627.727 -4405.317)"
          fill="#e3f235"
          stroke="#fff"
          stroke-miterlimit="10"
          stroke-width="1"
        />
        <path
          id="パス_96"
          data-name="パス 96"
          d="M4586.821,4739.6c-1.143-1.239-2.676-2.122-3.386-3.711a6.025,6.025,0,0,1-.429-2.714q.013-.344.046-.688a2.186,2.186,0,0,0-.84.2c-.973.473-1.5,1.688-2.441,2.242-1.662.982-3.913-.441-5.522.644-.559.376-.975,1.027-1.6,1.227-1.155.367-2.143-.934-3.258-1.43-2.627-1.168-5.118,2.243-7.934,2.556-2.486.276-4.716-1.914-7.213-1.98-3.017-.081-5.311,2.827-7.954,4.446a14.833,14.833,0,0,1-4.561,1.723c-.115.026-.227.059-.342.083a12.055,12.055,0,0,0-.83,1.226,2.754,2.754,0,0,0-.417,1.088c-.12,1.162.944,2.011,1.368,3.081a2.864,2.864,0,0,1-1.78,3.719c-1.616.324-3.508-1.129-4.788.012-.888.791-.788,2.332-.392,3.516a9.091,9.091,0,0,1,.9,3.616,4.564,4.564,0,0,1-.464,1.521l-.016.034a7.629,7.629,0,0,0,.478.892,2.9,2.9,0,0,0,2.414,1.042,10.063,10.063,0,0,1,2.668.139,10.721,10.721,0,0,1,1.352.6c.22.1.453.158.68.236.145.049.286.11.434.151a12.7,12.7,0,0,0,1.295-2.99c.57-2.087.358-4.581-1.035-6.118l5.086-.348a3.75,3.75,0,0,0,2.9-1.092c.835-1.086.539-2.757,1.026-4.08a3.78,3.78,0,0,1,4.249-2.227,9.137,9.137,0,0,1,4.388,2.685,2.973,2.973,0,0,0,.938.693,2.528,2.528,0,0,0,1.951-.349c2.131-1.045,4.438-2.368,6.67-1.627,1.855.616,3.137,2.522,4.908,3.393,1.508.742,3.221.667,4.866.8a20.57,20.57,0,0,1,2.782.439,2.243,2.243,0,0,1,1.988-1.291h.019a4.385,4.385,0,0,0,2.537-.627,3.226,3.226,0,0,0,.8-1.212A9.257,9.257,0,0,0,4586.821,4739.6Z"
          transform="translate(-1278.428 -4007.802)"
          fill="#5060a9"
          stroke="#fff"
          stroke-miterlimit="10"
          stroke-width="1"
        />
        <path
          id="パス_98"
          data-name="パス 98"
          d="M3337.111,5719.97c-2.333-1.273-6.332,2.291-7.671-1.562a4.088,4.088,0,0,1-.218-1.1c-.115-1.767.882-3.05-.752-4.792a52.318,52.318,0,0,1-6.329-7.583,7.4,7.4,0,0,0-1.65-1.991c-.769-.572-1.755-.814-2.352-1.6a4.088,4.088,0,0,1-.229-3.632c.278-.859.667-1.684.917-2.548a6.055,6.055,0,0,0,.217-1.041c.134-1.264-.433-2.766-1.559-3-.805-.168-1.58.351-2.372.584s-1.891-.054-1.979-.958c-.034-.353.105-.706.063-1.057-.137-1.156-1.852-.913-2.406.078s-.572,2.295-1.241,3.193c-.381.511-.932.831-1.336,1.319a3.1,3.1,0,0,0,1.02,4.528,2.4,2.4,0,0,1,1.011.493c.851.948-.705,2.674-.083,3.821.538.991,1.876.4,2.911.266,1.727-.222,3.244,1.217,4.406,2.655a38.108,38.108,0,0,1,6.213,11.145,3.293,3.293,0,0,1-2.565-.442c-.247,1.1-.948,2.49-1.908,2.111-.65-.257-.823-1.216-.671-1.964a14.833,14.833,0,0,0,.557-2.208,4.248,4.248,0,0,0-.872-2.488,11.172,11.172,0,0,0-7.017-4.821,16.015,16.015,0,0,0-1.055,4.01c-.458-.379-1.114.214-1.212.839s.1,1.268.032,1.9c-.124,1.138-1.049,1.916-1.8,2.7s-1.417,2.022-.908,3.02c-2.176-.437-5.031-.5-5.915,1.75a7.909,7.909,0,0,0,8.835-2.45,38.408,38.408,0,0,1,6.381,6.793,3.292,3.292,0,0,1,.831,1.991c-.047,1.219-1.215,1.916-2.036,2.728s-1.151,2.664-.088,2.975a6.709,6.709,0,0,0,3.346-2.985c.284-.508.558-1.1,1.066-1.3.366-.141.778-.04,1.148-.169,1-.349,1.015-1.974,1.78-2.769.815-.848,2.125-.472,3.218-.726a7.022,7.022,0,0,0,2.087-1.094,5.592,5.592,0,0,1,3.032-1.089,2.668,2.668,0,0,1,2.525,1.841c.323,1.139-.494,2.586-1.566,2.492-.46-.04-1.007-.3-1.327.069a1.177,1.177,0,0,0-.2.716,7.141,7.141,0,0,0,.574,3.6,2.649,2.649,0,0,0,2.768,1.59,2.045,2.045,0,0,0,1.2-2.842,7.267,7.267,0,0,0,3.469,1.084,1.224,1.224,0,0,0,1.032-.311,1.657,1.657,0,0,0,.29-.828q.354-2.253.5-4.539C3339.363,5724.2,3339.123,5721.067,3337.111,5719.97Z"
          transform="translate(-194.037 -4848.353)"
          fill="#45af6d"
          stroke="#fff"
          stroke-miterlimit="10"
          stroke-width="1"
        />
        <path
          class="test"
          id="パス_100"
          data-name="パス 100"
          d="M6724.959,271.457c-1.937.375-2.782,3.1-4.6,3.94a22.594,22.594,0,0,1-2.894.614c-2.132.671-3.378,3.664-2.458,5.9l-5.4.711a3.862,3.862,0,0,1-2.307-.17,1.7,1.7,0,0,1-.81-2.13,3.29,3.29,0,0,1,2.487.092c.7-2.09-.529-4.318-1.736-6.1q-2.269-3.349-4.711-6.549a4.071,4.071,0,0,1,4.8.6,3.976,3.976,0,0,0,1.2.982c1.083.4,2.176-1.019,1.981-2.266a3.43,3.43,0,0,0-2.324-2.529,31.773,31.773,0,0,0-3.356-.708c-4.587-1.141-7.741-6.976-6.49-12.009.151-.61.333-1.342-.049-1.81-.271-.331-.775-.436-.9-.862a1.231,1.231,0,0,1,.17-.842l3.338-7.008c-.126.4-.75.177-.808-.242a1.615,1.615,0,0,1,.453-1.124,23.876,23.876,0,0,0,4.312-16.975c-1.082-.073-1.947,1.017-2.37,2.125a17.192,17.192,0,0,1-1.236,3.326c-.661,1.016-1.733,1.614-2.448,2.584-.9,1.217-1.126,2.86-1.692,4.3s-1.8,2.843-3.191,2.528a5.914,5.914,0,0,1-.705,5.22,10.528,10.528,0,0,1-3.893,3.351,21.977,21.977,0,0,1-17.52,1.679,7.272,7.272,0,0,1-4.957-6.339l-2.863,3.955c-.117-2.86-3.17-4.209-5.678-4.872l-9.96-2.631a6.422,6.422,0,0,0-4.061-.173c-.73.3-1.427.878-2.2.765-1.337-.2-1.689-2.1-2.27-3.449-.9-2.089-2.867-3.287-4.688-4.412a105.521,105.521,0,0,1-23.455-19.826c-.925-1.045-1.833-2.109-2.74-3.173l-3.631-4.259L6592.106,188.2a81.341,81.341,0,0,1-9.094-12.132c-1.281-2.236-3.551-4.982-5.533-3.506-1.027.765-1.3,2.383-2.3,3.186-2.443,1.956-6.672-2.354-8.53.278-1.786,2.529,2.461,5.275,2.876,8.456.25,1.908-.972,3.657-1.243,5.561-.488,3.437,2.077,6.333,3.726,9.292a37.206,37.206,0,0,1,2.866,7.613c1.517,5.135,3.053,10.415,2.8,15.812-.194,4.087-1.409,8.016-2.157,12.024a53.072,53.072,0,0,0-.141,18.563,9.055,9.055,0,0,1,.208,2.732,7.35,7.35,0,0,1-2.042,3.677c-3.71,4.257-8.323,9.271-7.075,15.03.4,1.856,1.4,3.482,1.966,5.284s.6,4.06-.667,5.351c2.88,2.435,3.056,7.548,1.026,10.877s-5.678,5.048-9.268,5.562a3.55,3.55,0,0,1-2.188-.195c-1.88-1-2.325-4.8-4.388-4.471a3.806,3.806,0,0,0-1.721,1.153,7.151,7.151,0,0,1-8.469.764,8.963,8.963,0,0,1-3.8-8.444c-1.585-1.184-3.394.992-4.572,2.663a15.13,15.13,0,0,1-8.4,5.965c1.6,4.2,3.49,8.755,7.208,10.686,2.032,1.055,4.857,1.712,5.183,4.177.36,2.716-2.734,4.185-5.164,4.694.975,1.683-.579,3.658-1.607,5.3s-2.3,3.364-2.161,5.358c-1.291.891-2.064-2.984-3.5-2.415a1.461,1.461,0,0,0-.611.588,7.014,7.014,0,0,0-1.128,3.242,2.531,2.531,0,0,1-.275,1.2,1.419,1.419,0,0,1-1,.531c-1.985.314-3.938-.991-5.937-.812-2.838.253-4.9,4.066-3.76,6.966.208-.5.884-.036,1.126.446a16.78,16.78,0,0,1,.231,14.134,6.861,6.861,0,0,0-.948,2.97,5.333,5.333,0,0,0,.9,2.467,13.076,13.076,0,0,0,4.145,4.833c2.675,1.617,6.239,1.286,8.439,3.625,2.287,2.431,2,6.5,1.539,9.984-.421,3.191-.866,6.463-2.283,9.279a27.947,27.947,0,0,0-2.184,4.333c-1.347,4.447,1.672,8.933,4.486,12.434.142.177.354.37.542.259.04-.023.029-.137,0-.284a1.55,1.55,0,0,1-.639-1.487c.022-.185.519.942.639,1.487a2.914,2.914,0,0,0,3.5-.207c1.426-1.3,2.16-3.443,3.757-4.473,1.1-.708,2.469-.791,3.512-1.594,3.172-2.446.579-8.16,1.884-12.2,2.771.333,5.521-2.39,5.539-5.485,1.19,2.374,3.407,5.141,5.584,3.9.56-.318,1.022-.888,1.644-1a2.794,2.794,0,0,1,1.615.44,10.837,10.837,0,0,0,9.371-.062c1.761-2.22.138-5.8-2.026-7.531s-4.911-2.749-6.388-5.212c-.885-1.476-1.215-3.339-2.283-4.658-1.678-2.071-4.511-2.12-6.98-2.6-5.208-1.02-9.7-4.526-14.006-7.94a2.882,2.882,0,0,1-1.136-1.4,3.266,3.266,0,0,1,.1-1.57l2.12-9.2c.5-2.149,1.269-4.634,3.181-5.271,1.549-.516,3.2.449,4.809.279,1.866-.2,4.137-1.733,5.309-.108.7.977.406,2.6,1.248,3.429a3.5,3.5,0,0,0,2.286.588c2.861.277,5.034,2.87,6.909,5.286l-1.925.668c-1.371,1.917.476,5.307,2.642,4.847,2.436-.518,3-4,4.259-6.376,2.425-4.587,8.477-5.8,10.459-10.644.362-.884.643-1.947,1.438-2.349a2.609,2.609,0,0,1,1.562-.1l9.1,1.307c3.711.533,7.539,1.109,10.761,3.222,3.813,2.5,6.632,7.053,10.955,8.117,2.355.58,5.126.128,6.9,1.95a32.714,32.714,0,0,1,1.906,2.8c1.56,1.994,4.107,2.5,6.4,3.2a30.464,30.464,0,0,1,14.358,9.614c2.009,2.389,4.207,5.357,7.144,5.141q.736-9.681,1.473-19.362a13.072,13.072,0,0,0-.245-4.891c-.517-1.646-1.679-3-2.042-4.693-.563-2.631.916-5.214,2.322-7.421l6.968-10.937a8.889,8.889,0,0,1,1.537-1.976,9.392,9.392,0,0,1,3.06-1.492,24.678,24.678,0,0,0,12.113-10.079,8.429,8.429,0,0,1,2.422-2.956,5.027,5.027,0,0,1,3.347-.431c2.81.409,5.6,1.694,8.387,1.121,2.321-.478,5.454-1.823,6.48.538a1.873,1.873,0,0,1,1.865-.725,21.914,21.914,0,0,0-.738-6.8l-2.558-.473c2.078-3.875,7.152-5.289,10.632-2.963a.915.915,0,0,1,.473.61,1.024,1.024,0,0,1-.25.663c-.951,1.358-2.093,2.734-2.2,4.45s1.612,3.557,2.91,2.618a3.61,3.61,0,0,0,1.055-2.375l.851-4.846a6.142,6.142,0,0,0,3.015-1.155,2.674,2.674,0,0,0,.73-3.156l7.228-1.764a2.369,2.369,0,0,1,1.223-.079c.617.182,1.047.841,1.662,1.032,1.509.471,2.34-1.884,2.449-3.622q.221-3.526.443-7.052a13.086,13.086,0,0,0,5.318-.5,5.286,5.286,0,0,0,3.442-4.169C6728.312,273.257,6726.723,271.116,6724.959,271.457Z"
          transform="translate(-3017.357)"
          fill="#5060a9"
          stroke="#000"
          stroke-miterlimit="10"
          stroke-width="1"
        />
        <path
          class="test"
          id="パス_101"
          data-name="パス 101"
          d="M6127.144,3481.113c.832-.567.735-2.105,1.567-2.673.892-.608,2.068.548,2.073,1.71a5.6,5.6,0,0,1-1.333,3.082,4.744,4.744,0,0,0-1.14,3.147c.068.555.318,1.072.348,1.631.074,1.392-1.148,2.364-1.94,3.447s-.805,3.259.449,3.34c.889.057,1.408-1.059,2.11-1.669,1.185-1.03,3.053-.632,4.18-1.74a4.737,4.737,0,0,0,1.007-3.243,8.02,8.02,0,0,1,.537-3.439c.53-1.019,1.888-1.608,2.671-.815,1.6-2.521.293-6.758,2.546-8.56.58-.464,1.368-.721,1.663-1.445a2.012,2.012,0,0,0-1.238-2.387,20.076,20.076,0,0,0-2.735-.535,2.226,2.226,0,0,1-1.793-2.035,2.915,2.915,0,0,1,.673-1.53c1.817-2.528,4.2-5.333,3.512-8.476a2.923,2.923,0,0,0-.742-1.482c-1.2-1.161-3.137-.156-4.067,1.275s-1.383,3.242-2.53,4.463c-1.53,1.63-4.143,2.056-4.964,4.227-.273.723-.292,1.537-.54,2.27-.422,1.244-1.6,1.033-2.08,2.106-.484,1.09.032,2.72,0,3.87-.037,1.224-.536,2.409-.443,3.63S6126.2,3481.753,6127.144,3481.113Z"
          transform="translate(-2676.365 -2886.795)"
          fill="#a73396"
          stroke="#fff"
          stroke-miterlimit="10"
          stroke-width="1"
        />
      </g>
    </svg>