<svg xmlns="http://www.w3.org/2000/svg" width="500" height="571.232" viewBox="0 0 500 571.232">
  <path id="パス_402" data-name="パス 402" d="M5665.447,3134.414a35.175,35.175,0,0,1-24-20.967c-1.758-4.48-2.93-9.785-7.066-12.238-2.52-1.492-5.766-1.627-7.988-3.537-4.418-3.812-1.664-11.045-3.016-16.721-.773-3.238-2.9-5.889-5.293-8.281a22.945,22.945,0,0,0-3.91,2.758,23.987,23.987,0,0,0-3.785,4.463c-3.652,5.395-5.445,12.123-7.008,18.568-4.16,17.156-8.352,34.736-6.437,52.285.84,7.652,2.832,15.434,1.09,22.934-3.02,13.045-16.207,21.223-21.73,33.424-1.969,4.355-2.918,9.135-5.105,13.383-4.848,9.42-14.895,14.783-24.348,19.574q-32.437,16.438-64.883,32.877c-3.879,1.973-7.949,4.1-10.3,7.766-3,4.682-2.5,10.682-3.453,16.158-2.254,12.971-12.555,22.748-21.445,32.465a208.085,208.085,0,0,0-44.494,76.781c-3.955,12.357-8.148,26.773-20.141,31.756-3.668,1.527-7.775,1.969-11.223,3.951-8.934,5.141-9.5,17.455-13.084,27.115-6.453,17.414-24.357,27.721-41.787,34.17s-36.217,10.779-50.75,22.34c-3.643,2.893-7,6.227-11.158,8.3-4.768,2.377-10.219,2.9-15.424,4.041-23.437,5.125-41.568,22.473-56.705,41.6-.256.314-.51.621-.76.934,1,1.582,2.012,3.148,3.121,4.656,5,6.832,11.283,13.311,12.813,21.641,1.131,6.158-.549,12.545.355,18.744.742,5.086,3.162,9.723,5.09,14.512a34.714,34.714,0,0,0,7.732-1.316c8.83-2.691,16.705-10.908,15.75-20.078-.465-4.5-2.9-9.238-.863-13.277a10.978,10.978,0,0,1,5.125-4.475c12.4-6.256,29.025-2.395,37.4,8.689,6.145,8.146,12.814,21.289,22.1,17.053,4.574-2.082,6.611-7.969,11.334-9.689,7.279-2.662,16.137,6.145,22.414,1.592,2.117-1.537,3.082-4.166,4.041-6.6a85.027,85.027,0,0,1,30.8-38.572c6.8-4.65,14.6-8.379,22.834-8.447s16.891,4.262,20,11.881c1.713,4.2,1.682,9.043,3.926,12.988,3.219,5.7,10.1,7.941,15.783,11.209,14.574,8.387,22.3,26.719,19.082,43.084a26.6,26.6,0,0,1,10.859-2.971c4.867-.164,10.328,1,14.172-1.988,3.254-2.543,3.969-7.088,5.824-10.781a18.3,18.3,0,0,1,20.621-9.135c-1.02-15.709-.426-34.693,13.059-42.826,3.684-2.217,8.055-3.367,11.188-6.307,6.262-5.885,5.684-17.094,12.75-21.988,6.824-4.721,16.363-.477,22.27,5.338s10.59,13.34,18.145,16.748a21.1,21.1,0,0,0,11.23,1.664c.66-.076,1.316-.291,1.973-.42,3.527-14.717,3.277-29.348-5.422-41.377-2.742-3.789-6.238-7.109-8.125-11.387a34.843,34.843,0,0,1-2.227-10.014q-4.705-38.8-9.41-77.605c-.523-4.332-.887-9.25,2-12.535,2.207-2.514,5.762-3.332,9.094-3.684,9.07-.953,18.25.553,27.336-.242s18.77-4.627,22.789-12.807c2.531-5.16,2.43-11.3,4.945-16.471,2.254-4.646,6.379-8.051,9.82-11.9,21.816-24.439,14.148-62.736,25.25-93.566.277-.762.508-1.541.8-2.293.066-.17.16-.326.234-.5-5.445-8.055-10.664-16.271-15.348-24.793-2.965-5.406-5.832-11.91-3.227-17.5,1.469-3.166,4.426-5.346,6.578-8.09,4.066-5.2,5.051-12.078,5.9-18.617q2.408-18.727,4.832-37.451c.758-5.914,2.012-12.615,7.078-15.754,5.277-3.254,14-2.332,15.859-8.238C5683.166,3139.336,5672.654,3136.176,5665.447,3134.414Z" transform="translate(-5181.246 -3072.67)" fill="#ea857f"/>
</svg>
