<svg xmlns="http://www.w3.org/2000/svg" width="500" height="543.547" viewBox="0 0 500 543.547">
  <g id="グループ_62" data-name="グループ 62" transform="translate(-53.004 -978.268)">
    <path id="パス_105" data-name="パス 105" d="M2903.371,6537.789l-34.43,3.8-12.562,18.313-47.32,63.2L2771.9,6663.18l-41.949,50.672-29.16,40.078-16.762,26.547-12.4,33.656-7.461,14.531-16.98,26.891-41.434,28.234-26.328,11.531-13.113,9.75-12.387,20.047-22.652,15.109-13,21.891-29.152,46.578-30.848,30.844,3.113,12.078,17.18-3.937,2.352,25.125,21.984,8.531s53.887-28.5,60.9-31.437,43.57-14.172,43.57-14.172l22.484-8.344,90.832-101.891,28.27-38.2,19.824-36.984,25.691-20.984,23.711-3.672,11.773,8.2,19.055-9.172,5.648-30.312-3.516-49.828,9.027-47.219,29.992-46.406,45.359-27.922,22.75-18.75-16.937-19.125-12.07-16.672,3.711-13.5Z" transform="translate(-2405.269 -5559.521)" fill="#b6e67c"/>
  </g>
</svg>
