<svg xmlns="http://www.w3.org/2000/svg" width="499.998" height="459.714" viewBox="0 0 499.998 459.714">
  <path id="パス_402" data-name="パス 402" d="M3622.346,5483.469c-7.266,11.891-20.908,25.535-32.66,18.039-4.145-2.656-7.121-7.734-12.029-8.113-8.15-.648-13.217,12.223-21.189,10.406-2.615-.594-4.586-2.715-6.154-4.887a39.735,39.735,0,0,1,30.418-62.957c4.629-10.328-1.73-24.039-12.609-27.191-7.641-2.215-15.768.285-23.721.3s-17.391-4.383-17.617-12.328c-.182-6.488,5.768-11.2,9.393-16.59,8.42-12.5,2.393-32.09-11.6-37.715-5.424-2.176-11.395-2.422-17.236-2.641q-28.518-1.055-57.039-2.105c-17.715-.656-36.324-1.562-51.455-10.8s-24.924-29.777-16.252-45.23c8.721,5.516,18.008,11.2,28.324,11.457s21.566-7.293,21.33-17.6c-.094-4.215-1.895-9,.746-12.289,2.426-3.016,6.977-2.711,10.842-2.59a49.14,49.14,0,0,0,42.934-75.691c-3.025-4.707-6.883-8.945-9.074-14.105-2.336-5.5-2.59-11.652-4.334-17.371-5.148-16.9-24.795-27.887-41.9-23.43-29.738,7.746-41.164,51.207-71.717,54.508-9.41,1.02-18.939-2.246-28.3-.887s-18.768,11.234-14.184,19.508c-1.811,4.309-8.838,2.035-10.986-2.129s-2.2-9.391-5.289-12.906c-2.721-3.094-7.068-4.031-11.111-4.8q-22.746-4.348-45.5-8.7c-.059.063-.117.125-.172.188-8.85,9.063-18.617,16.98-30.234,21.895-11.248,4.77-23.539,6.441-35.242,9.945s-23.488,9.41-29.781,19.875-4.729,26.254,5.85,32.367A56.385,56.385,0,0,0,3153,5303.84c-5.975,3.34-12.242,6.965-15.582,12.93s-2.24,14.961,3.98,17.8c1.971.895,4.2,1.09,6.166,1.977,5.559,2.523,7.3,9.969,5.553,15.82s-6.018,10.523-9.875,15.246a142.032,142.032,0,0,0-11.377,16.332c.613.465,1.264.891,1.881,1.359a269.072,269.072,0,0,0,60.67,34.391c1.2-19.246,9.754-39.055,26.279-49.008s41.334-6.41,50.879,10.344c5.068,8.9,5.295,19.609,6.715,29.746A121.011,121.011,0,0,0,3316.469,5483c4.791,4.348,10.15,8.613,12.334,14.7,1.943,5.418,1.025,11.387,1.3,17.129.451,9.73,4.313,18.7,8.658,27.527,3.678.344,7.346.723,10.969,1.129q37.576,4.236,75.158,8.5c6.824.77,13.8,1.535,20.506.051,13.426-2.961,23.955-14.5,37.563-16.488,15.408-2.25,29.9,8.563,38.969,21.191,7.24,10.09,12.393,21.559,19.027,32.02a46.512,46.512,0,0,0,4.77-1.223c10.354-3.512,19.508-10.52,24.615-20.207q5.133-2.824,10.273-5.641c-12.2-8.312-7.408-29.121,5.094-36.98s28.439-6.656,43.135-5.187C3634.645,5507.789,3631.877,5492.426,3622.346,5483.469Z" transform="translate(-3131.863 -5129.04)" fill="#00bbf9"/>
</svg>
