<svg xmlns="http://www.w3.org/2000/svg" width="501.079" height="485.206" viewBox="0 0 501.079 485.206">
  <path id="パス_401" data-name="パス 401" d="M6156.8,304.72c-4.5.784-6.462,6.473-10.678,8.236-2.111.883-4.522.659-6.724,1.283a9.354,9.354,0,0,0-5.71,12.339l-12.553,1.486c-1.8.213-3.715.411-5.363-.356s-2.8-2.885-1.881-4.452a8.433,8.433,0,0,1,5.778.193c1.628-4.368-1.229-9.027-4.034-12.751q-5.273-7-10.947-13.689a10.28,10.28,0,0,1,11.146,1.247,9.114,9.114,0,0,0,2.789,2.053c2.516.83,5.056-2.13,4.6-4.737s-2.887-4.458-5.4-5.287-5.214-.9-7.8-1.48c-10.657-2.386-17.985-14.582-15.081-25.1.354-1.274.776-2.805-.115-3.783-.629-.692-1.8-.91-2.088-1.8a2.354,2.354,0,0,1,.4-1.761q3.877-7.324,7.752-14.649c-.292.836-1.739.369-1.875-.506a3.212,3.212,0,0,1,1.053-2.349,46.19,46.19,0,0,0,10.021-35.484c-2.516-.153-4.524,2.125-5.508,4.442s-1.4,4.913-2.872,6.953c-1.534,2.125-4.028,3.374-5.688,5.4-2.083,2.544-2.614,5.978-3.93,8.991s-4.192,5.944-7.415,5.284c1.565,3.518.606,7.783-1.64,10.912s-5.6,5.286-9.044,7.006a56.17,56.17,0,0,1-40.708,3.51c-5.894-1.763-11.365-7.106-11.518-13.251l-6.651,8.268c-.271-5.978-7.365-8.8-13.19-10.184l-23.144-5.5c-3.109-.739-6.437-1.468-9.437-.362-1.7.626-3.314,1.836-5.108,1.6-3.106-.409-3.924-4.383-5.271-7.21-2.084-4.368-6.665-6.871-10.895-9.223a240.6,240.6,0,0,1-54.5-41.441c-2.15-2.184-4.259-4.408-6.366-6.632q-4.222-4.451-8.437-8.9l-30.658-32.352c-7.582-8-15.215-16.064-21.131-25.36-2.977-4.674-8.252-10.413-12.855-7.329-2.385,1.6-3.021,4.981-5.352,6.66-5.675,4.088-15.5-4.92-19.819.582-4.148,5.287,5.718,11.027,6.684,17.676.579,3.988-2.26,7.644-2.886,11.624-1.133,7.184,4.824,13.239,8.654,19.423,3.036,4.9,4.861,10.437,6.662,15.914,3.525,10.733,7.092,21.771,6.5,33.051-.451,8.543-3.275,16.757-5.01,25.133a100.016,100.016,0,0,0-.329,38.8,17.038,17.038,0,0,1,.482,5.711c-.458,3.026-2.612,5.486-4.744,7.686-8.617,8.9-19.338,19.378-16.436,31.419.934,3.879,3.247,7.279,4.567,11.045s1.389,8.486-1.553,11.186c6.693,5.09,7.1,15.778,2.385,22.736s-13.191,10.552-21.534,11.626a9.1,9.1,0,0,1-5.084-.407c-4.368-2.084-5.4-10.03-10.2-9.347-1.562.223-2.767,1.425-4,2.411a17.626,17.626,0,0,1-28.494-16.054c-3.686-2.475-7.887,2.075-10.624,5.566a35.327,35.327,0,0,1-19.514,12.47c3.709,8.779,8.107,18.3,16.747,22.338,4.721,2.206,11.285,3.578,12.042,8.731.835,5.678-6.354,8.748-12,9.812,2.266,3.518-1.343,7.647-3.733,11.079s-5.353,7.031-5.021,11.2c-3,1.863-4.8-6.238-8.12-5.048a3.254,3.254,0,0,0-1.422,1.23,13.75,13.75,0,0,0-2.623,6.777,4.83,4.83,0,0,1-.641,2.512,3.415,3.415,0,0,1-2.315,1.11c-4.61.657-9.147-2.071-13.791-1.7-6.595.53-11.377,8.5-8.736,14.561.483-1.048,2.054-.076,2.617.932a31.9,31.9,0,0,1,.537,29.544c-1.012,1.979-2.271,3.988-2.2,6.209a10.489,10.489,0,0,0,2.08,5.156c2.548,3.952,5.5,7.856,9.63,10.1,6.217,3.38,14.5,2.688,19.61,7.577,5.314,5.081,4.643,13.6,3.575,20.869-.978,6.671-2.012,13.51-5.3,19.4-1.693,3.027-3.967,5.77-5.076,9.056-3.128,9.3,3.887,18.673,10.425,25.99.329.369.823.773,1.261.542.093-.049.065-.287-.008-.594a3.113,3.113,0,0,1-1.485-3.109c.053-.386,1.206,1.97,1.485,3.109a7.375,7.375,0,0,0,8.125-.432c3.314-2.721,5.021-7.2,8.729-9.35,2.551-1.479,5.738-1.653,8.159-3.333,7.372-5.112,1.346-17.058,4.38-25.495,6.438.7,12.825-5,12.871-11.466,2.763,4.962,7.915,10.747,12.975,8.159,1.3-.666,2.373-1.855,3.818-2.086a7.038,7.038,0,0,1,3.751.92,27.733,27.733,0,0,0,21.775-.13c4.092-4.641.319-12.132-4.708-15.742s-11.41-5.747-14.842-10.894c-2.058-3.086-2.823-6.98-5.3-9.737-3.9-4.329-10.481-4.43-16.222-5.442-12.1-2.133-22.542-9.461-32.542-16.6a4.636,4.636,0,0,1-2.41-6.215q2.464-9.611,4.926-19.222c1.151-4.491,2.948-9.687,7.391-11.018,3.6-1.078,7.433.939,11.174.584,4.338-.412,9.611-3.623,12.334-.225,1.639,2.042.945,5.428,2.9,7.168,1.386,1.232,3.466,1.069,5.313,1.23,6.647.58,11.694,6,16.054,11.049l-4.473,1.4c-3.187,4.008,1.1,11.094,6.136,10.132,5.66-1.082,6.978-8.363,9.9-13.327,5.635-9.588,19.7-12.129,24.3-22.249.839-1.847,1.494-4.07,3.343-4.909a6.693,6.693,0,0,1,3.627-.2l21.144,2.732c8.623,1.114,17.516,2.318,25,6.735,8.861,5.226,15.414,14.743,25.456,16.968,5.473,1.213,11.91.267,16.021,4.075,1.8,1.669,2.82,4.011,4.431,5.864,3.623,4.169,9.543,5.235,14.874,6.685a71.7,71.7,0,0,1,33.363,20.1c4.669,4.993,9.775,11.2,16.6,10.747q1.708-20.237,3.422-40.473c.289-3.428.563-6.975-.57-10.223-1.2-3.44-3.9-6.266-4.743-9.811-1.31-5.5,2.126-10.9,5.395-15.513q8.1-11.431,16.191-22.861a19.024,19.024,0,0,1,3.568-4.131c2.048-1.606,4.646-2.294,7.111-3.119a56.362,56.362,0,0,0,28.146-21.068c1.608-2.309,3.15-4.842,5.627-6.178,2.336-1.259,5.146-1.245,7.776-.9,6.528.855,13.015,3.541,19.488,2.342,5.393-1,12.672-3.81,15.057,1.125,1.3-1.2,2.6-1.9,4.333-1.516a41.386,41.386,0,0,0-1.714-14.2l-5.945-.988c4.831-8.1,16.618-11.055,24.7-6.194a1.96,1.96,0,0,1,1.1,1.275,2.02,2.02,0,0,1-.583,1.387c-2.21,2.839-4.865,5.714-5.121,9.3s3.749,7.436,6.764,5.473c1.593-1.036,2.089-3.1,2.449-4.964q.992-5.065,1.979-10.13c2.465-.416,5.037-.879,7-2.414s3.058-4.507,1.7-6.6l16.794-3.687a6.083,6.083,0,0,1,2.841-.165c1.435.38,2.431,1.757,3.86,2.158,3.507.984,5.438-3.939,5.69-7.571q.516-7.37,1.029-14.741c4.156.164,8.427.312,12.356-1.047s7.5-4.588,8-8.715S6160.9,304.007,6156.8,304.72Z" transform="translate(-5663.572 -96.603)" fill="#00bbf9" stroke="#fff" stroke-miterlimit="10" stroke-width="1"/>
</svg>
