<svg xmlns="http://www.w3.org/2000/svg" width="499.999" height="602.037" viewBox="0 0 499.999 602.037">
  <path id="パス_402" data-name="パス 402" d="M6175.531,3765.629c-.672-1.477-1.359-2.937-2.062-4.4-2.555-5.352-5.2-10.625-7.883-15.691-15.625-29.312-32.414-59.918-60.391-77.844-24.219-15.508-54.039-19.57-82.812-19.648-18.633-.055-37.375,1.426-55.508,5.762-39.8,9.512-74.969,32.234-109.258,54.57q-26.918,17.537-53.828,35.07c-36.242,23.609-72.484,47.379-107.742,72.445-.031,2.031.047,4.031.1,6.035.031,1.316-.008,2.672.078,3.973,1.617,28.836,8.609,59-2.273,85.754-7.57,18.586-23.633,37.125-16.742,55.969,10.234,27.938,53.8,18.859,77.961,36.227q-11.2,45.3-22.383,90.609c-5.992,24.258-11.086,52.785,5.094,71.848,27.75,32.688,90.188,6.9,118.883,38.781,6.961,7.738,10.219,17.563,10.938,27.895a67.56,67.56,0,0,1-1.078,17.1,146.858,146.858,0,0,1,48.625-7.789c5.18.074,10.617.379,15.32-1.84,6.852-3.238,10.234-10.848,13.445-17.707a221.89,221.89,0,0,1,98.4-102.387c14.508-7.492,31.039-13.477,46.945-9.8,7.133,1.641,14.141,5.191,21.352,4.016,12.891-2.1,18.492-17.281,20.883-30.117a357.817,357.817,0,0,0,3.2-110.449c-.883-7.012-1.953-14.359.547-20.973,2.8-7.441,9.57-12.527,14.633-18.664,21.2-25.707,10.164-63.555,9.8-96.859C6159.492,3812.566,6165.9,3788.66,6175.531,3765.629Z" transform="translate(-5675.532 -3648.042)" fill="#ed6a3a"/>
</svg>
