<svg xmlns="http://www.w3.org/2000/svg" width="500" height="494.739" viewBox="0 0 500 494.739">
  <path id="パス_402" data-name="パス 402" d="M4845.3,4747.945c4.605-6.211,1.434-8.57,3.207-16.328.188-.816.363-1.629.535-2.441-11.77-3.465-25.445-3.141-37.965-2.7-14.7.527-33.129-1.844-37.844-15.754-5.434-16.031,12.211-36.789.293-48.812-4.66-4.7-11.965-5.32-17.859-8.348-14.105-7.246-16.992-27.371-10.328-41.738s20.031-24.289,32.867-33.586c-30.391-19.723-25.262-64.7-36.48-99.125-.254-.793-.672-1.5-.957-2.285-.98-.008-1.965-.008-2.961-.008a562.85,562.85,0,0,1-63.8-4.187c-34.906-4.379-73.828-15.254-90.008-46.465-6.6-12.758-8.141-26.6-7.676-40.859q-15.105,15.375-30.191,30.742c-3.992,4.059-10.316,8.32-14.73,4.727-1.641-1.328-2.414-3.43-3.105-5.43q-7.365-21.053-14.723-42.105-2.7,6.984-5.395,13.969c-2.223,3.484-7.859-.336-8.4-4.426-.543-4.105.891-8.676-1.355-12.152-4.605-7.152-15.906.328-18.457,8.449s-3.8,18.7-11.914,21.273c-11.105,1.188-13.832-16.551-6.855-25.262s18.5-13.539,23.57-23.484c3.992-7.82,3.094-17.105,3.18-25.895s1.863-18.637,9.078-23.664,20.262.25,18.6,8.887c14.57-.586,20.242-21.672,12.2-33.82s-23.2-17.035-37.2-21.086c-3.238-.93-6.746-1.852-9.895-.648-2.148.824-3.82,2.547-5.43,4.191-34.07,34.574-79.27,54.691-126.254,68.746q.182,1.717.363,3.43,1.875,17.514,3.754,35.039c.875,8.258,1.891,16.891,6.563,23.754,10.34,15.18,32.926,15.016,47.941,25.609,21.008,14.816,18.7,52.215-3.988,64.336-3.242,1.727-6.906,3.129-9.047,6.121a14.254,14.254,0,0,0-2.246,7.2c-1.562,18.23,13.363,35.039,30.957,40.09s36.723.43,53.094-7.754q-1,17.889-2,35.762c16.309-3.156,27.789,23.184,14.363,32.965,15.4,6.852,34.547,4.887,50.957,7.68,9.227,1.574,17.629,4.609,23.949,11.672,6.5,7.27,8.973,17.152,12.641,26.188a97.72,97.72,0,0,0,40.551,47.02c3.984,2.352,8.664,4.477,13.09,3.148,3.68-1.105,6.242-4.309,9.109-6.875,11.051-9.9,27.313-10.6,42.164-10.762,12.543-.129,25.984-.02,36.352,7.051s14.84,23.918,5.355,32.125c-10.492,9.051-31.672,3.688-36.277,16.75C4684.859,4737.047,4840.066,4754.973,4845.3,4747.945Z" transform="translate(-4349.043 -4254.806)" fill="#00bbf9"/>
</svg>
