<svg xmlns="http://www.w3.org/2000/svg" width="500.001" height="757.332" viewBox="0 0 500.001 757.332">
  <path id="パス_401" data-name="パス 401" d="M6470.875,2619.2c12.59-13.391,10.375-37.691-4.441-48.576-2.758-2.018-6.133-3.65-9.465-2.949-12.332,2.584-3.836,26.859-15.453,31.717-5.516,2.309-11.922-2.365-13.766-8.049s-.5-11.85.742-17.7a398.485,398.485,0,0,0,8.551-77.131c.066-5.641-.008-11.463-2.266-16.631-2.129-4.912-6.059-8.85-8.371-13.68-7.473-15.687,1.879-39.7-13.129-48.473-4.539-2.648-10.348-2.895-14.375-6.277-3.281-2.75-4.73-7.053-6.027-11.131q-9.029-28.286-18.055-56.562c-7.816-24.482-15.68-49.09-27.258-72.035-6.551-12.986-14.277-25.414-19.664-38.922-1.449-3.633-2.574-7.344-3.676-11.059a40.034,40.034,0,0,1-8.473-5.361c-.133-.111-.223-.252-.355-.365q-30.48,21.987-60.977,43.973c-4.043,2.918-8.637,5.979-13.57,5.3-5.957-.814-10.687-6.93-16.645-6.158-5.98.773-8.812,7.811-13.859,11.115-12.973,8.518-27.672-10.85-43.184-11.1-9.473-.158-17.414,6.957-23.422,14.273-11.379,13.832-19.727,29.934-31.129,43.736s-27.121,25.654-45.023,26.2a61.978,61.978,0,0,1-17.109-2.291l-5.949,8c-1.113,1.508-2.238,3.014-3.359,4.521-8.977,12.1-18.41,27.475-12.191,41.205,3.617,7.99,11.664,12.9,17.395,19.545,15.371,17.855,9.484,49.441-11.3,60.564-6.961-5.059-18.242-9.439-22.754-2.107-4.715,7.658,5.059,15.57,10.6,22.656,9.2,11.77,6.973,28.488,4.289,43.178q-4.26,23.355-8.523,46.711c-3.746,20.52-7.855,41.893-20.539,58.465-5.645,7.383-12.965,13.744-16.531,22.34-4.184,10.07-2.527,21.568.215,32.129a171.731,171.731,0,0,0,33.25,65.457c15.129,18.465,35.59,38.3,30.813,61.682-1.3,6.361-4.457,12.16-7.1,18.1a118.258,118.258,0,0,0-9.082,33.449c.531.348,1.1.637,1.633.98,9.492,6.049,19.492,11.439,29.43,16.7q10.553,5.584,21.09,11.166,59.871,31.7,119.727,63.4c4.078,2.162,8.434,4.389,13.039,4.115,8.3-.488,13.8-8.473,20.629-13.213,5.395-3.746,11.879-5.525,17.832-8.318,29.34-13.744,41.078-48.545,49.863-79.715l56.906,40.887a211.233,211.233,0,0,0-11.5-50.115c10.273,2.885,21.438,5.742,31.387,1.889,9.965-3.846,16.5-17.6,9.41-25.576,7.84-1.283,16.68-3.223,20.7-10.07,2.328-3.941,2.5-8.742,2.617-13.312q.557-21.694,1.105-43.387c.863-9.7,17.816-10.064,20.125-19.521,1.816-7.461-7.008-13.307-8.426-20.85-3-15.881,26.363-24.59,22.3-40.229-.8-3.055-2.906-5.9-2.516-9.037.344-2.705,2.488-4.785,4.512-6.627q12.762-11.687,25.543-23.369-12.316-6.6-24.629-13.213C6454.273,2630.623,6464.227,2626.262,6470.875,2619.2Z" transform="translate(-5979.082 -2216.016)" fill="#fcef6e"/>
</svg>
