<svg xmlns="http://www.w3.org/2000/svg" width="500.003" height="519.654" viewBox="0 0 500.003 519.654">
  <path id="パス_402" data-name="パス 402" d="M3146.188,5591.313c-30-14.723-81.395,26.5-98.617-18.059a42.756,42.756,0,0,1-2.793-12.664c-1.477-20.43,11.332-35.266-9.668-55.41-29.949-28.727-56.625-53.332-81.367-87.691-6.121-8.512-12.48-17.184-21.211-23.02-9.883-6.617-22.562-9.414-30.23-18.488-9.5-11.242-7.926-28.164-2.945-42.008,3.574-9.937,8.578-19.484,11.793-29.469a63.413,63.413,0,0,0,2.793-12.035c1.723-14.617-5.562-31.984-20.035-34.7-10.348-1.957-20.316,4.047-30.488,6.746s-24.3-.613-25.437-11.074c-.445-4.078,1.355-8.164.82-12.23-1.77-13.352-23.812-10.547-30.926.9s-7.352,26.547-15.953,36.934c-4.895,5.9-11.984,9.609-17.18,15.25-14.395,15.684-6.988,45.309,13.109,52.367,4.512,1.59,9.621,2.309,13,5.7,10.938,10.961-9.066,30.93-1.062,44.184,6.91,11.465,24.105,4.621,37.406,3.078,22.207-2.559,41.7,14.082,56.641,30.7A430.493,430.493,0,0,1,2973.7,5559.2a46.268,46.268,0,0,1-32.973-5.129c-3.176,12.688-12.187,28.813-24.516,24.43-8.363-2.977-10.586-14.066-8.625-22.715s6.688-16.672,7.16-25.527c.555-10.5-4.957-20.34-11.211-28.789a144.869,144.869,0,0,0-90.191-55.746,170.806,170.806,0,0,0-13.57,46.379c-5.887-4.375-14.312,2.473-15.574,9.707s1.3,14.648.422,21.93c-1.6,13.168-13.488,22.156-23.125,31.27s-18.211,23.391-11.676,34.918c-27.973-5.055-64.676-5.809-76.035,20.238,38.977,13.691,85.609,2.059,113.574-28.344a468.251,468.251,0,0,1,82.02,78.559c5.477,6.7,11.043,14.375,10.68,23.016-.6,14.117-15.621,22.164-26.164,31.555s-14.793,30.8-1.129,34.4a83.971,83.971,0,0,0,43.012-34.523c3.656-5.875,7.168-12.719,13.711-15.008,4.7-1.633,10-.461,14.75-1.953,12.852-4.031,13.047-22.82,22.887-32.008,10.473-9.8,27.309-5.469,41.359-8.4,9.727-2.031,18.227-7.68,26.828-12.664,11.969-6.914,25.152-12.828,38.98-12.59s28.3,8.121,32.453,21.293-6.344,29.914-20.129,28.82c-5.914-.469-12.953-3.492-17.059.8-2.051,2.125-2.375,5.328-2.535,8.273-.758,14.266.273,29.211,7.379,41.6s21.621,21.422,35.574,18.383,23.531-21.1,15.445-32.867a101.012,101.012,0,0,0,44.586,12.547c4.73.2,10.02-.18,13.273-3.609,2.395-2.516,3.133-6.141,3.734-9.57a509.636,509.636,0,0,0,6.379-52.484C3175.121,5640.227,3172.043,5604.008,3146.188,5591.313Z" transform="translate(-2673.785 -5232.314)" fill="#b6e67c"/>
</svg>
