<svg xmlns="http://www.w3.org/2000/svg" width="500" height="386.738" viewBox="0 0 500 386.738">
  <path id="パス_402" data-name="パス 402" d="M5657.6,4530.65c-3.3-5.5-9.621-8.309-14.422-12.551a30.357,30.357,0,0,1-8.109-32.654c2.027-5.344,5.555-9.986,7.855-15.211,5.633-12.775,3.434-27.117,1.023-41.145-.016-.137-.051-.279-.07-.424a72.4,72.4,0,0,0-10.043,1.541c-7.254,1.672-16.648,3.635-20.668-2.629-1.723-2.691-1.723-6.119-1.484-9.312.832-11.059,3.719-21.975,3.395-33.062-.348-11.871-4.387-22.844-10.176-33.174q-24.662,18.844-49.309,37.68c-4.789,3.654-9.91,7.453-15.906,8.049-10.133,1-18.871-7.324-28.949-8.783-10.359-1.5-20.73,4.783-26.5,13.5s-7.66,19.449-8.16,29.893l-53.578-6.158c-10.91-8.111-30.836,8.676-38.344-2.654,5.566-15.816,10.355-32.146,10.887-48.9a99.49,99.49,0,0,0-24.746-68.393c-1.758-1.982-3.625-3.838-5.512-5.668-.789.27-1.523.645-2.281.98a14.811,14.811,0,0,0-3.379,1.877c-4.957,4.041-5.672,11.191-6.289,17.555a233.87,233.87,0,0,1-23.23,81.4c-4.875,9.84-10.523,19.432-18.168,27.328-7.891,8.158-17.641,14.244-27.285,20.24q-30.973,19.254-61.922,38.51a21.1,21.1,0,0,0,1.957,2.029c8.7,6.707,23.035,6.162,28.105,15.906,4.082,7.844-.832,17.387-6.773,23.938-5.957,6.543-13.395,12.559-15.469,21.156-1.262,5.242-.41,11.164-3.324,15.719-5.012,7.867-16.969,6.289-25.18,10.711-10.578,5.7-12.652,19.531-16.773,30.8-2.957,8.1-7.492,15.512-11.566,23.109a218.022,218.022,0,0,0-13.25,30.309,46.242,46.242,0,0,0,22.422,1.016c5.617-1.2,11.2-3.445,16.9-2.77,6.789.8,12.34,5.539,18.395,8.7,28.313,14.8,63.57-5.8,94.488,2.234,9.91,2.574,18.82,7.988,28.324,11.82s20.43,6.055,29.855,2.039,15.723-16.2,10.508-25c-2.293-3.859-6.59-7.387-5.625-11.77.926-4.2,5.949-5.715,9.836-7.566,11.063-5.285,16.344-17.746,21.105-29.035a554.317,554.317,0,0,1,74.2-126.24c-.1-.719-.2-1.453-.3-2.174q-.369-2.581-.723-5.15c1.387,1.146,2.707,2.395,4.043,3.6.453.4.9.791,1.344,1.2,15.8-1.268,31.633-2.129,47.48-2.273,16.18-.141,35.609,2.262,42.668,16.807a30.836,30.836,0,0,1-26.34,12.064c-3.285-.227-6.727-.973-9.789.246-6.355,2.555-6.809,11.586-4.309,17.973,2.484,6.379,6.867,12.438,6.488,19.273-.664,11.875-15.4,22.484-9.73,32.941,2.355,4.359,7.617,6.453,10.25,10.652,9.016,14.395-18.973,35.516-6.437,47,3.988,3.66,10.227,3.465,14.852,6.3,11.84,7.242,7.828,29.844,21.012,34.188,8.758,2.895,16.836-5.262,23.2-11.941s17.3-12.715,23.98-6.355c-7.316-29.984,4.828-63.8,29.566-82.289q-3.492,2.7-6.977,5.4C5642.957,4563.979,5667.531,4547.092,5657.6,4530.65Zm-229.879-85.836,4.309,15.379C5428.148,4456.379,5427.8,4450.645,5427.723,4444.814Z" transform="translate(-5159.953 -4300.596)" fill="#eddb29"/>
</svg>
