<svg xmlns="http://www.w3.org/2000/svg" width="500" height="858.841" viewBox="0 0 500 858.841">
  <path id="パス_401" data-name="パス 401" d="M6179.973,2360.432c2.191-15.609,13.984-27.969,20.211-42.445,10.469-24.287,3.223-55.008-16.988-72.082-20.2-17.072-51.73-19.1-73.957-4.744-10.492,6.764-18.852,16.621-29.871,22.479-16.7,8.855-38.6,6.754-53.3-5.129-5.406-4.377-9.9-9.941-15.918-13.465-12.281-7.205-27.707-4.4-41.684-1.678-26.359,5.145-53.457,9.2-80.012,5.2-28.5-4.285-56.844-17.744-84.914-11.322-8.012,1.836-15.363,5.369-22.477,9.459-.191.688-.348,1.381-.539,2.066-1.9,7.053-3.512,14.184-4.969,21.127-1.1,5.236-2.176,10.711-.742,15.865,4.512,16.219,27.012,16.344,42.336,23.338,28.367,12.951,31.688,53.563,18.793,81.939s-36.691,50.516-50.84,78.283c-8.8,17.277-14.016,36.914-27.324,51.014s-39.312,19.107-50.863,3.529c-7.582,30.463,7.43,65.092,34.84,80.4,4.121,2.3,8.957,4.227,13.434,2.783,5.441-1.75,8.145-7.6,11.6-12.143,9.52-12.516,27.352-16.328,42.758-13.141s28.914,12.133,41.684,21.309c5.758,4.143,11.8,8.846,13.8,15.646,1.406,4.762.6,9.857-.07,14.781a205.506,205.506,0,0,0,7.855,88.777c2.766,8.719,6.16,17.523,5.758,26.656-.426,9.658-5.039,18.557-7.746,27.842-5.434,18.693-3.051,38.629-3.926,58.076s-6.3,40.621-22.324,51.7c-9.754,6.748-22.176,8.781-31.922,15.547-18.035,12.5-22.207,37.559-20.012,59.375a144.466,144.466,0,0,0,5.758,27.2c.238.744.461,1.488.7,2.234a158.539,158.539,0,0,0,22.977-12.076c7.281-4.7,14.359-10.078,22.676-12.512,16.23-4.75,33.348,2.561,48.289,10.473,61.137,32.373,115.391,77.664,174.18,113.654.836-.586,1.715-1.115,2.578-1.619a26.242,26.242,0,0,1,6.566-2.863c6.281-1.631,12.914-.477,19.391-.787,13.965-.664,26.6-7.984,38.605-15.115,6.277-3.713,12.684-7.551,17.215-13.246,5.621-7.057,7.7-16.045,10.2-24.838.191-3.381.516-6.736.934-10.1a144.973,144.973,0,0,1,11.141-41.025c3.238-7.271,7.105-14.387,8.691-22.189,5.863-28.672-19.227-53-37.777-75.641a210.914,210.914,0,0,1-40.777-80.271c-3.352-12.947-5.395-27.051-.258-39.4,4.379-10.535,13.344-18.342,20.266-27.4,15.555-20.318,20.6-46.529,25.191-71.691q5.221-28.646,10.461-57.279c3.277-18.018,6.012-38.518-5.266-52.949-6.789-8.693-18.793-18.4-13-27.789,5.531-8.986,19.352-3.617,27.906,2.586,25.48-13.639,32.707-52.377,13.848-74.268-7.027-8.148-16.9-14.174-21.332-23.969-7.633-16.836,3.938-35.7,14.965-50.535,1.371-1.842,2.727-3.691,4.121-5.537a38.237,38.237,0,0,1-.941-12.092C6180.008,2361.764,6179.871,2361.119,6179.973,2360.432Z" transform="translate(-5704.955 -2231.612)" fill="#ed6a3a"/>
</svg>
