<svg xmlns="http://www.w3.org/2000/svg" width="500" height="442.172" viewBox="0 0 500 442.172">
  <path id="パス_402" data-name="パス 402" d="M3989.711,4996.422c-.484-2.84-1.049-5.762-2.652-8.152-1.775-2.648-4.594-4.336-7.256-6.141-.762.371-1.51.773-2.287,1.086a141.393,141.393,0,0,0-7.891,44.641c-16.859,5.023-31.213-13.355-48.227-17.848-11.1-2.937-22.789.277-33.818,3.477-5.426,1.582-11.631,3.883-13.32,9.27-.928,2.953-.256,6.367-1.832,9.031a10.126,10.126,0,0,1-4.418,3.609c-15.752,7.844-35.486.484-47.965-11.91s-19.773-28.922-28.533-44.168c-3.387-5.891-7.7-12.141-14.332-13.633s-14.643,5.613-11.285,11.52c1.838,3.238,5.889,4.332,9.039,6.32s5.5,6.8,2.654,9.211a48.392,48.392,0,0,0-34.629,5.352c-13.992,8.168-22.871,22.754-30.053,37.266-8.125,16.41-14.953,33.906-15.717,52.2-.252,6.094.121,12.434-2.318,18.023-5.4,12.355-21.135,15.254-33.354,20.977-22.627,10.594-36.168,34.113-56.3,48.891-14.549,10.676-32.041,16.422-48.131,24.586a175.137,175.137,0,0,0-63.41,54.813c6.07,4.383,14.422.293,20.748-3.707q34.84-22.037,71.67-40.676c2.8-1.418,5.834-2.855,8.926-2.379,6.736,1.047,8.814,9.863,7.842,16.6s-3.285,14.141.268,19.945c12.117-3.289,25.986-.965,35.367,7.371s13.221,22.871,7.814,34.184c11.016-.422,26.691,4.5,23.756,15.121-2.359,8.543-14.127,8.535-22.969,9.207s-19.186,10.8-12.406,16.516q-14.6-5.373-29.211-10.73c11.7,11.2,14.361,30.684,6.1,44.617,11.459-1.879,23.773,4.9,28.307,15.586s.852,24.23-8.469,31.16q31.269-2.971,62.543-5.926-3.284-35.631-6.57-71.277c-.33-3.629-.631-7.477,1-10.746,1.891-3.789,5.926-5.934,9.723-7.828q20.4-10.242,40.824-20.48c4.574-2.3,9.49-4.941,11.563-9.621,1.34-3.035,1.26-6.484,1.154-9.8-.828-26.047-1.936-53.187-14.443-76.055a32.043,32.043,0,0,1,33.475,4.863c4.484,3.891,9.826,9.52,15.184,6.953,2.973-1.426,4.279-4.859,6.365-7.406,7.41-9.051,24.957-7.352,28.645-18.449,2.34-7.023-2.924-14.031-5.256-21.055-4-12.043,1.047-25.605,9.529-35.051s19.941-15.586,31.152-21.539l59.408-31.551c24.133-12.816,52.635-25.824,77.787-17.125A294.136,294.136,0,0,0,3989.711,4996.422Z" transform="translate(-3493.672 -4965.48)" fill="#eddb29"/>
</svg>
