<svg xmlns="http://www.w3.org/2000/svg" width="500" height="536.173" viewBox="0 0 500 536.173">
  <path id="パス_402" data-name="パス 402" d="M5798.148,4319.867c-22.57-14.7-43.969-32.477-57.383-55.824-.961-1.668-1.75-3.414-2.6-5.121-1.094-2.184-2.109-4.391-3.047-6.648-8.047-3.957-16.039-7.984-23.836-12.414-9.758-5.531-19.656-11.59-30.781-12.937-8.594-1.043-17.391.793-25.922-.668a43.017,43.017,0,0,1-12.125-4.223,97.283,97.283,0,0,1-8.969-5.227,26.43,26.43,0,0,1-3.641,1.539c-30.18,8.523-57.508-35.184-87.336-25.516-6.7,2.18-12.453,6.945-19.352,8.328-16.945,3.453-30.1-13.539-41.18-26.8-11.1-13.258-32.852-24.348-43.9-11.051-3.68,4.441-4.758,10.422-7.172,15.66-7.828,16.957-28.109,23.836-41.086,37.277-12.969,13.465-17.82,32.613-21.266,50.969a575.22,575.22,0,0,0-9.648,113.883c1.406,1.3,2.766,2.621,4.133,3.953,3.273,3.184,6.516,6.395,9.563,9.836a172.819,172.819,0,0,1,42.953,118.719c-.906,29.1-9.234,57.441-18.883,84.9,13.023,19.691,47.617-9.473,66.578,4.609,16.977,12.645,1.438,44.168,16.539,59.008,30.547-3.055,57.875,11.27,82.117,31.359-3.664-26.7-6.883-53.5-5.648-79.676.844-18.125,4.133-36.75,14.164-51.883,10.023-15.148,28.008-26.043,45.984-23.453,17.508,2.543,32.664,17,50.258,15.25,10.414-1.027,19.3-7.609,27.617-13.965q42.809-32.713,85.6-65.4,22.02-16.828,44.063-33.672c14.469-11.051,29.9-23.566,33.875-41.332C5865.578,4364.742,5827.867,4339.238,5798.148,4319.867Z" transform="translate(-5358.849 -4157.303)" fill="#ea857f"/>
</svg>
