<svg xmlns="http://www.w3.org/2000/svg" width="500" height="442.226" viewBox="0 0 500 442.226">
  <path id="パス_402" data-name="パス 402" d="M6210.809,2113.182c-3.109-7.814-15.137-3.217-20.7,3.079-5.594,6.3-14.457,13.939-20.969,8.6a13.009,13.009,0,0,1-3.664-6.207c-5.523-17.117-.055-38.348-12.086-51.721-2.926-3.243-6.77-5.826-8.582-9.8-2.8-6.188.273-13.251,1.66-19.9,5.453-26.263-16.449-53.095-9.168-78.911,2.1-7.42,6.574-14.514,5.8-22.184-.637-6.313-4.73-11.649-7.516-17.353-10.793-22.1-1.7-48.077,2.895-72.23,1.18-6.164,1.957-12.914-1.1-18.394s-11.5-8.189-15.742-3.563c-3.336,3.633-2.531,9.668-5.6,13.522-3.34,4.189-9.625,4.1-14.961,3.625-14.656-1.3-30.547-3.138-41.094-13.387-4.348-4.229-7.84-9.906-13.633-11.723-8.078-2.535-16.73,3.663-25.023,1.986-14.129-2.855-20.754-26.516-34.582-22.443-8.957,2.637-10.066,14.521-10.973,23.8-1.8,18.532-9.613,35.863-14.977,53.7s-8.168,37.738-.242,54.6c.941,2.016,2.145,4.076,4.129,5.1,4.875,2.528,10.293-2.75,12.211-7.9s2.91-11.346,7.6-14.225c8.313-5.107,19.715,5.047,28.453.7,5.813-2.893,8.137-11.343,14.547-12.394,4.688-.77,9.578,3.007,13.984,1.229,3.215-1.3,4.621-4.958,6.52-7.866,6.227-9.581,20.328-11.964,30.6-6.945s16.781,15.85,19.113,27.035c.645,3.081.953,6.484-.637,9.2-2.559,4.352-8.516,4.844-13.07,7.042-11.027,5.329-12.871,20.281-11.18,32.412s5.266,25.135-.18,36.11c-5.316,10.726-19.426,16.108-30.547,11.652-11.02-4.418-17.094-15.981-25.676-24.188s-24.875-11.881-30.816-1.605c-5.32,9.219,2.137,23.128-5.406,30.653-4.328,4.32-11.8,3.826-16.973.554s-8.566-8.644-11.8-13.837c-13.047-20.989-26.391-42.747-30.008-67.19-.93-6.3-1.219-12.822-3.73-18.681s-7.977-11.049-14.352-10.858-11.883,8.012-8.32,13.293c-10.176,8.2-22.543-15.86-34.707-11.1-10.266,4.016-4.273,20.748-10.656,29.728-6.637,9.354-23.949,6.486-29,16.789,4.43,9.064,18.66,6.248,26.723,12.327,8.961,6.76,6.516,20.594,3.168,31.3q-8.6,27.458-17.187,54.91c-.977,3.124-2.07,6.42-4.559,8.544-2.891,2.464-6.984,2.784-10.758,3.12a166.928,166.928,0,0,0-50.1,12.5c-3.422,1.444-6.9,3.089-9.262,5.939-3.3,3.979-3.809,9.491-5.617,14.329-5.645,15.092-22.809,21.868-38.1,26.938a136.9,136.9,0,0,0,37.629,39.574c.4-.239.816-.433,1.227-.664a51.488,51.488,0,0,1,14.16-5.959c17.688-4.046,35.543,4.431,53.492,7.134,16.734,2.519,33.8-.035,50.4-3.272,8.809-1.716,18.535-3.486,26.27,1.055,3.777,2.22,6.617,5.723,10.027,8.48a31.344,31.344,0,0,0,33.578,3.229c6.945-3.687,12.211-9.895,18.816-14.159,14-9.037,33.867-7.763,46.6,2.991s17.293,30.112,10.7,45.412c-3.926,9.122-11.363,16.905-12.738,26.739-.059.432.02.839-.016,1.267,1.723.516,3.457.988,5.188,1.429a47.67,47.67,0,0,0,13.215,1.771c13.832-.42,25.984-9.571,34.785-20.237s15.262-23.109,24.043-33.792c4.645-5.651,10.781-11.148,18.1-11.029,11.988.2,23.348,15.158,33.367,8.581,3.9-2.559,6.082-7.994,10.7-8.591,4.6-.593,8.262,4.128,12.855,4.755,3.82.522,7.367-1.843,10.484-4.094l47.117-33.972C6207.48,2133.014,6204.293,2120.642,6210.809,2113.182Z" transform="translate(-5714.953 -1795.706)" fill="#b6e67c"/>
</svg>
