<svg xmlns="http://www.w3.org/2000/svg" width="500.002" height="251.09" viewBox="0 0 500.002 251.09">
  <path id="パス_402" data-name="パス 402" d="M4302.082,4400.434c-10.422-10.184-24.422-17.422-30.9-30.477-3.426-6.906-4.246-14.523-3.914-22.277.086-1.875.227-3.766.422-5.645a21.884,21.884,0,0,0-7.668,1.66c-8.875,3.887-13.719,13.848-22.27,18.4-15.176,8.066-35.719-3.629-50.4,5.289-5.094,3.086-8.906,8.43-14.637,10.066-10.543,3.023-19.559-7.66-29.738-11.738-23.973-9.594-46.711,18.414-72.4,20.988-22.691,2.27-43.051-15.715-65.832-16.266-27.543-.668-48.477,23.211-72.59,36.508-12.984,7.16-27.1,11.184-41.617,14.145-1.047.215-2.082.48-3.137.684a98.6,98.6,0,0,0-7.566,10.066c-1.785,2.738-3.434,5.688-3.8,8.934-1.1,9.543,8.613,16.516,12.488,25.3,5.344,12.141-3.2,28.18-16.254,30.539-14.742,2.656-32.012-9.277-43.7.1-8.1,6.492-7.191,19.145-3.574,28.871s9.277,19.367,8.219,29.688a34.719,34.719,0,0,1-4.242,12.484c-.043.1-.1.191-.148.289a62.332,62.332,0,0,0,4.363,7.324c4.992,6.438,13.879,8.383,22.035,8.555s16.477-.965,24.355,1.137c4.273,1.148,8.238,3.211,12.34,4.895,2.008.828,4.129,1.3,6.2,1.941,1.32.4,2.613.9,3.965,1.234a99.526,99.526,0,0,0,11.816-24.547c5.2-17.129,3.266-37.613-9.449-50.227q23.2-1.436,46.414-2.855c9.559-.582,20.223-1.691,26.438-8.965,7.625-8.922,4.922-22.637,9.363-33.5,5.84-14.281,23.551-20.793,38.777-18.285,15.242,2.512,28.34,12,40.051,22.051,2.613,2.238,5.285,4.582,8.555,5.688,5.832,1.977,12.176-.371,17.809-2.855,19.449-8.586,40.5-19.441,60.875-13.367,16.93,5.051,28.629,20.7,44.789,27.852,13.766,6.094,29.387,5.477,44.4,6.563a207.136,207.136,0,0,1,25.4,3.609c2.41-6.648,10.77-9.891,18.141-10.594.051-.012.113-.012.164-.02,8.016-.742,16.785-.266,23.152-5.148,3.3-2.52,5.512-6.2,7.293-9.949C4328.188,4453.063,4322.3,4420.164,4302.082,4400.434Z" transform="translate(-3822.331 -4342.035)" fill="#00bbf9"/>
</svg>
