<svg xmlns="http://www.w3.org/2000/svg" width="500.001" height="668.538" viewBox="0 0 500.001 668.538">
  <path id="パス_402" data-name="パス 402" d="M6278.258,3866.512c7.078-38.465,11.539-78.34,10.563-117.535-.078-.031-.172-.086-.242-.121-20.016-8.66-37.734-21.746-55.945-33.734-4.945-3.258-11.1-6.547-16.445-4.027-3.234,1.512-5.2,4.758-6.883,7.879a169.428,169.428,0,0,0-16.273,43.48c-1.969,8.773-3.586,18.359-10.164,24.48-9.437,8.789-25.273,6.184-35.617-1.543-10.336-7.742-16.937-19.3-24.836-29.5a123.044,123.044,0,0,0-26.172-24.8c-.352.785-.609,1.594-.93,2.379-9.555,22.84-15.9,46.512-15.633,71.246.359,33.008,11.3,70.523-9.719,96-5.008,6.078-11.711,11.121-14.5,18.492-2.461,6.563-1.414,13.844-.531,20.793a354.7,354.7,0,0,1-3.18,109.477c-2.359,12.715-7.922,27.766-20.7,29.852-7.148,1.164-14.1-2.359-21.156-3.984-15.773-3.652-32.148,2.281-46.539,9.715a219.95,219.95,0,0,0-97.531,101.477c-3.18,6.8-6.539,14.34-13.32,17.555-4.656,2.191-10.039,1.895-15.187,1.816a145.422,145.422,0,0,0-48.187,7.73c-.062.363-.117.73-.18,1.105,6.914,9.984,11.945,21.977,23.164,25.668,4.422,1.457,9.281,1.324,13.617,3.031,4.727,1.855,8.328,5.68,12.086,9.074a90.337,90.337,0,0,0,15.813,11.184,103.313,103.313,0,0,0,14.461,6.859c-.578,1.836-1.117,3.691-1.594,5.559,8.313,7.059,16.852,13.91,21.828,23.477,5.031,9.652,5.789,20.93,9.586,31.113a54.779,54.779,0,0,0,95.8,12.758c5.758-8.039,10.43-18.473,20.016-20.922,8.156-2.094,16.336,2.68,23.422,7.254q31.172,20.156,62.352,40.3c8.477,5.492,18.773,11.2,28.156,7.418,9.445-3.8,13.2-15.492,21.789-20.969,7.531-4.82,17.18-3.973,26.031-5.227,37.375-5.277,55.383-44.973,79.359-75.906.313-1.555.648-3.113.984-4.672,6.2-29.078,12.844-58.125-3.523-80.844-12.125-16.863-35.633-27.191-37.992-47.82-3.719-32.547,49.563-58.6,33.359-87.078-3.977-7-11.852-12.023-13.141-19.988-.711-4.437.836-8.891,2.336-13.141A1020.7,1020.7,0,0,0,6278.258,3866.512Z" transform="translate(-5788.953 -3710.202)" fill="#eddb29"/>
</svg>
