<svg xmlns="http://www.w3.org/2000/svg" width="499.997" height="686.233" viewBox="0 0 499.997 686.233">
  <path id="パス_402" data-name="パス 402" d="M6309.16,4235.309q-45.844-5.625-91.7-11.254c-11.328-1.391-24.7-4.262-28.977-14.844-4.477-11.1,5.2-23.8,16.711-27.09s23.758.035,35.258,3.336q22.184,6.369,44.344,12.742a367.7,367.7,0,0,0-84.57-113.562c-.8.992-1.594,1.977-2.383,2.992-22.32,28.777-39.055,65.7-73.82,70.609-8.234,1.156-17.2.383-24.219,4.855-7.992,5.1-11.477,15.973-20.266,19.512-8.742,3.512-18.312-1.8-26.211-6.906q-28.992-18.738-57.992-37.488c-6.586-4.25-14.2-8.691-21.773-6.754-8.922,2.289-13.266,11.992-18.625,19.469a50.951,50.951,0,0,1-89.109-11.863c-3.539-9.477-4.234-19.969-8.93-28.941-4.617-8.9-12.555-15.281-20.3-21.848-.18.715-.437,1.4-.609,2.125-6.109,26.633-1.375,55.074,10.188,79.836a114.816,114.816,0,0,0,16.188,25.852c10.4,12.25,23.813,21.52,35.4,32.664s21.742,25.238,22.578,41.277a35.3,35.3,0,0,1-6.508,21.7,389.959,389.959,0,0,1,39.617,39.508c8.664,10.063,17.313,22.586,14.352,35.512-1.742,7.617-7.219,13.723-12.508,19.453q-23.039,25.014-46.078,50c-9.687,10.5-19.383,21.059-27.625,32.711-27.711,39.3-36.875,91.09-24.336,137.48,7.9,29.227,22.789,63.813,2.852,86.586-9.773,11.18-27.719,24.266-18.391,35.828,5.766,7.121,17.039,4.633,25.836,7.227,17.438,5.16,23.484,29.988,41.164,34.277,15.813,3.82,30.328-12.25,32.844-28.3s-2.672-32.176-4.2-48.355c-1.539-16.164,2.18-35.074,16.367-43,13.109-7.336,30.609-2.656,43.43-10.473,11.875-7.215,15.594-22.32,22.32-34.469s23.008-22.586,33.711-13.734c13.172,10.887,2.945,39.332,19.063,44.973a352.17,352.17,0,0,0,48.773-71.363c9.789-18.992,18.016-40.316,13.961-61.289-3.117-16.051-13.172-30.184-15.906-46.293-4.1-24.023,8.719-47.785,24.344-66.477,15.648-18.707,34.641-34.863,46.875-55.949,9.789-16.879,15.109-36.641,28.406-50.926,22.9-24.578,61.164-25.062,94.656-22.332,6.625.539,14.555.539,18.266-4.961C6338.738,4246.844,6321.762,4236.852,6309.16,4235.309Z" transform="translate(-5833.317 -4084.637)" fill="#ea857f"/>
</svg>
