<svg xmlns="http://www.w3.org/2000/svg" width="500" height="441.716" viewBox="0 0 500 441.716">
  <path id="パス_403" data-name="パス 403" d="M3327.793,5465.1c-.225-4.941.561-10.059-1.109-14.723-1.879-5.219-6.482-8.887-10.6-12.617a103.989,103.989,0,0,1-32.8-62.039c-1.213-8.715-1.414-17.918-5.766-25.559-8.2-14.391-29.51-17.422-43.705-8.875s-21.545,25.559-22.57,42.09a231.532,231.532,0,0,1-52.115-29.539c-.951.285-1.916.508-2.863.813-3.738,1.211-7.439,2.563-11.039,4.125-5.434,2.359-10.953,5.188-16.877,5.074-13.937-.238-24.965-16.375-38.633-13.637-10.258,2.059-15.49,14.363-14.113,24.727.287,2.156.709,4.6-.631,6.313-1.369,1.754-3.932,1.906-6.16,1.9q-25.532-.047-51.07-.094c-.992,0-1.979,0-2.967,0q-4.31,4.635-8.617,9.27c-3.113,3.352-6.365,6.957-7.176,11.457-1.318,7.309,4.111,13.941,9.16,19.387,13.08,14.1,26.574,28.516,43.871,36.945,10.074,4.906,21.352,7.738,30.105,14.73a117.8,117.8,0,0,0-35.906,38.426,55.674,55.674,0,0,0-11.105,35.348,40.322,40.322,0,0,0-33,29.109c-1.932,7.426-2.264,16.359-8.588,20.707-9.086,6.25-22.49-2.551-32.275,2.547-4.916,2.563-7.627,8.066-12.248,11.137-9.824,6.539-25.363-4.145-22.762-15.656-7.592-3.75-16.426.6-24.26,3.8s-18.686,4.371-23.072-2.855c-6.354,3.906-12.6,9.168-14.291,16.43s3.648,16.27,11.084,15.676q-5.581,6.422-11.164,12.84c-5.9,6.8-11.941,13.809-14.936,22.3-2.994,8.477-2.289,18.9,4.107,25.238s19.008,5.883,23.1-2.125c3.7-2.2,7.947,3.5,6.3,7.461s-6.135,5.8-10.182,7.238q-18.847,6.709-37.687,13.414a134.933,134.933,0,0,1,36.707,57.254c6.705-7.023,13.932-15.715,12.021-25.234-.814-4.047-3.271-7.738-3.387-11.867-.162-6.039,4.6-10.93,9.018-15.047q36.885-34.383,73.766-68.754c2.4-2.23,4.873-4.508,7.916-5.719a13.128,13.128,0,0,1,13.471,22.094c-4.137,3.609-10.074,4.3-14.742,7.184s-7.416,10.523-2.793,13.488c1.844,1.184,4.213,1.117,6.391.828a40.724,40.724,0,0,0,32.758-27.625c4.846-15.59.793-35.246,12.885-46.219,2.922-2.652,6.715-4.672,8.293-8.285,2.4-5.523-1.467-11.629-2.016-17.621-.859-9.332,6.844-17.727,15.678-20.875s18.518-2.289,27.852-1.383c2.727.262,5.732.66,7.547,2.719,6.9,7.813-13.521,20.516-6.062,27.8a15.916,15.916,0,0,1-13.9.66q-1.3,17.953-3.424,35.832c-2.049,17.258-5.455,35.965-18.51,47.438-3.316,2.922-7.234,5.34-9.564,9.094-1.9,3.059-2.545,6.7-3.3,10.219a132.362,132.362,0,0,1-4.717,16.6c-1.754,4.922-3.838,9.8-7.072,13.906a32.824,32.824,0,0,1-9.164,7.719c.029.324.109.652.129.973,12.178,1.523,24.873,1.578,37.055,2,25.834.906,55.387,6.9,67.867,29.523a54.588,54.588,0,0,1,2.621,5.68,40.491,40.491,0,0,1,6.324-9.215c3.742-3.8,8.615-6.277,13.563-8.285,35.252-14.3,78.387-8.445,108.775-31.32,2.08-1.559,4.275-3.754,3.85-6.316-.375-2.27-2.611-3.645-4.381-5.121-8.137-6.855-6.824-21.828,2.4-27.148,2.525-1.449,5.564-2.355,7.246-4.738,2-2.816,1.385-6.656.68-10.043q-3.94-18.855-7.871-37.719c-.484-2.348-1.041-4.816-2.656-6.586-1.576-1.727-3.941-2.523-5.611-4.148-1.922-1.879-2.707-4.6-3.416-7.18q-4.166-15.211-8.342-30.414c-2.639-9.629-4.934-21.031,1.475-28.691,7.836-9.367,23.9-7.125,32.471-15.816,4.482-4.547,5.961-11.137,8-17.168,4.572-13.48,13.217-25.969,25.59-33.016,14.465-8.23,31.754-8.145,48.584-6.6C3331.5,5481.156,3328.182,5473.449,3327.793,5465.1Z" transform="translate(-2835.23 -5336.542)" fill="#ed6a3a"/>
</svg>
