<svg xmlns="http://www.w3.org/2000/svg" width="500" height="471.303" viewBox="0 0 500 471.303">
  <path id="パス_402" data-name="パス 402" d="M3850.141,4330.5c-4.268.607-7.24,4.414-10.9,6.686-14.787,9.227-35.777-7.975-50.854.764-4.129,2.393-7.014,6.389-10.264,9.879-27.162,29.117-76.213,20.807-110.482,41.1-2.768,1.646-5.613,3.717-6.529,6.8-2.371,7.988,8.66,12.572,14.088,18.9,7.184,8.375,3.9,21.945-3.715,29.926s-18.316,12.045-28.2,16.947c-26.609,13.191-48.859,33.625-69.982,54.494q-32.027,31.629-61.818,65.412c-6.006,6.824-12.342,15.877-8.732,24.215-5.98-1.229-12.268-2.443-18.1-.631s-10.852,7.76-9.389,13.682q-8.467,1.767-16.949,3.533c-11.654,22.84-37.354,37.754-62.986,36.539-5.547-.266-11.713-1.049-16.105,2.346-2.344,1.813-3.758,4.545-5.1,7.193q-6.454,12.721-12.91,25.445c-.244.482-.486.963-.732,1.441a305.212,305.212,0,0,1,18.486,28.467c1.391,2.475,2.814,5.041,5.08,6.748a16.4,16.4,0,0,0,5.561,2.479c18.064,5.027,38.971-3.023,48.994-18.857,4.227,5.428,1.955,13.486-1.916,19.18s-9.219,10.568-11.4,17.094c-2.615,7.822-.18,16.525-2.115,24.535-1.018,4.217-3.238,8.262-2.945,12.578.744,10.961,15.184,14.158,26.168,14.318,5.291.078,11.264-.121,14.842-4.016,3.885-4.221,3.156-10.721,3.377-16.455.594-15.016,9.516-28.73,20.965-38.484.82-.7,1.732-1.262,2.578-1.932.986-.777,2-1.518,3.018-2.258a122.858,122.858,0,0,1,5.061-24.113c10.451-32.055,36.811-58.73,39.746-92.316,5.021,4.93,13.385-1.578,15.416-8.312s2.205-14.955,7.947-19.021c3.977,11.719,10.85,25.658,23.238,25.736,9.73.066,18.178-9.143,27.783-7.6,10.584,1.7,20.729,15.682,28.936,8.8,2.063-1.736,3.107-4.455,5.164-6.2,5.359-4.549,13.645-.234,20.533-1.648,10.725-2.2,13.381-16.3,12.295-27.187s-2.809-23.842,5.508-30.949c2.869-2.451,6.555-3.756,9.521-6.088,12.627-9.92,6.719-32.5,18.621-43.287,11.6-10.5,29.639-2.221,44.027,3.957a93.057,93.057,0,0,0,42.092,7.43c.08-.012.156-.014.23-.018a27.366,27.366,0,0,0,3.34-9.828c.826-8.125-3.619-15.705-6.465-23.357s-3.562-17.6,2.811-22.707c9.186-7.371,22.775,2.012,34.373-.082,10.271-1.857,16.986-14.473,12.783-24.018-3.047-6.916-10.682-12.4-9.82-19.9a16.77,16.77,0,0,1,2.99-7.031,77.639,77.639,0,0,1,5.957-7.916c.416-.488.84-.971,1.264-1.449-9.074-6.811-16.5-14.059-14.205-24.1,1.635-7.15,8.109-12.012,14.242-16.041s12.8-8.379,15.273-15.287S3857.406,4329.471,3850.141,4330.5Z" transform="translate(-3360.486 -4330.426)" fill="#eddb29"/>
</svg>
