<svg xmlns="http://www.w3.org/2000/svg" width="499.998" height="533.15" viewBox="0 0 499.998 533.15">
  <path id="パス_402" data-name="パス 402" d="M3409.762,5237.59c-5.5-13.113-12.25-25.609-21.2-36.875-5.168-6.5-11.031-12.664-14.332-20.285-2.34-5.4-3.348-11.445-6.7-16.285-8.008-11.555-28.3-15.594-27.684-29.633.375-8.414,9.219-15.582,7.168-23.738-2.441-9.773-18.227-11.535-20.039-21.434-1.168-6.453,4.422-11.879,9.008-16.559,8.672-8.832,15.633-20.383,15.16-32.738s-10.672-24.738-23.035-24.137c-12.676.625-20.961,12.953-30.9,20.832-14.863,11.762-36.762,13.809-53.547,4.988-7.73-4.055-14.445-10.187-22.8-12.711-24.91-7.527-46.625,19.152-72.023,24.813-15.117,3.371-31.617-.895-45.988,4.883-15.543,6.266-24.578,22.977-27.5,39.477-2.922,16.477-1,33.391-1.422,50.129a179.072,179.072,0,0,1-19.566,76.8c-11.094-5.594-24.285-1.145-36.559.8s-28.156-1.242-31.105-13.309c-1.3-5.316.371-11.336-2.258-16.148-1.707-3.113-4.91-5.078-7.977-6.914-12.5-7.43-25.988-15.113-40.516-14.312s-29.211,14.266-25.465,28.313c2.074,7.832,9.066,13.586,11.367,21.348,2.41,8.1-.676,16.664-2.973,24.789-.832,2.934-1.129,5.992-1.742,8.961q2.777,2.109,5.563,4.215c2.074,1.559,4.145,3.137,6.207,4.691,9.012,6.8,18.223,13.723,28.949,17.258,18.055,5.953,37.684,1.566,56.7,1.691,23.52.141,46.359,7.258,68.793,14.3,1.984.621,4.125,1.355,5.277,3.086,1.211,1.809,1,4.164.727,6.324a351.891,351.891,0,0,1-52.82,145.148c-7.355,11.449-15.527,24.047-20.309,36.848,4.855,1.949,10.375,1.922,15.551,2.98a22.219,22.219,0,0,1,4.5,1.313,24.1,24.1,0,0,1,8.77,7.367c9.031,11.508,11.211,26.535,14.2,41.156.262,1.281.512,2.59.793,3.863q37.811.07,75.621.148c3.309,0,7.1-.223,9.133-2.832,1.977-2.527,1.355-6.148.926-9.34-2.035-15.352,5.707-33.57,20.9-36.617,20.234-4.055,36.566,19.832,57.2,20.2,8.77.164,16.941-4.008,24.992-7.516,5.332-2.316,10.8-4.312,16.344-6.109.582-1,1.254-1.945,1.855-2.934a180.205,180.205,0,0,1,14.473-20.754c4.9-6.02,10.332-11.98,12.555-19.41s.016-16.9-7.062-20.105c-2.5-1.141-5.336-1.387-7.832-2.531-7.922-3.6-9.316-15.047-5.07-22.637s12.219-12.191,19.813-16.437a71.741,71.741,0,0,1,2.281-57.176c-13.453-7.773-15.449-27.859-7.441-41.16,8-13.316,22.988-20.824,37.879-25.277,14.887-4.469,30.52-6.59,44.828-12.648,14.773-6.262,27.2-16.332,38.449-27.863C3409.844,5237.789,3409.8,5237.691,3409.762,5237.59Z" transform="translate(-2909.885 -5015.885)" fill="#eddb29"/>
</svg>
