<svg xmlns="http://www.w3.org/2000/svg" width="500" height="418.822" viewBox="0 0 500 418.822">
  <path id="パス_403" data-name="パス 403" d="M4156.156,5184.7c-.141-.094-.3-.137-.436-.238-4.676-3.738-3.467-10.918-3.867-16.887-.93-13.766-12.2-24.18-21.687-34.215a189.818,189.818,0,0,1-29.912-41.75c-2.117-4.008-4.34-8.359-8.365-10.449-6.379-3.324-13.916.371-20.76,2.582s-16.674,1.223-18.145-5.8c-9.652,3.668-6.107,25.008-16.295,23.344-7.176-1.168-5.373-12.562-10.062-18.113-4.219-4.988-11.795-3.6-18.5-3.875-.627-.027-1.256-.047-1.865-.109-10.131-1.031-18.154-8.687-27.344-13.078a47.83,47.83,0,0,0-4.855-1.984c-23.8-8.23-50.76,4.07-73.594,16.2l-56.205,29.859c-10.609,5.633-21.453,11.445-29.477,20.375s-12.8,21.773-9.014,33.16c2.2,6.648,7.188,13.27,4.975,19.918-3.5,10.5-20.088,8.895-27.1,17.461-1.975,2.414-3.211,5.664-6.02,7.008-5.072,2.43-10.127-2.9-14.373-6.586a30.306,30.306,0,0,0-31.664-4.6c11.826,21.637,12.881,47.316,13.66,71.953.1,3.141.178,6.4-1.094,9.27-1.955,4.438-6.607,6.93-10.936,9.1q-19.315,9.686-38.623,19.379c-3.59,1.8-7.408,3.824-9.2,7.414-1.537,3.086-1.258,6.727-.939,10.164q3.1,33.715,6.207,67.434.372,3.979.738,7.965c.42,4.609.795,9.516-1.363,13.621-2.791,5.309-8.943,7.727-13.73,11.352-13.154,9.93-14.975,31.66-3.66,43.641a29.443,29.443,0,0,0,14.033-8.629c-3.229,10.352,7.953,20.719,18.809,20.691s20.387-6.945,28.5-14.148c7-6.211,15.809-13.4,24.6-10.2,8.369,3.043,11.313,13.957,19.2,18.09,5.963,3.113,13.182,1.609,19.719.027,1.252-19.187-20.393-30.711-38.506-37.2,18.527-10.906,29.605-33.254,27.068-54.594-.33-2.8-.84-5.816.494-8.3,2.271-4.234,8.434-4.363,12.912-2.605s8.6,4.828,13.4,5.109c20.82-6.27,14.271-44.152,34.531-52.039,3.227-1.254,6.988-1.613,9.488-4.012,2.549-2.445,3.027-6.281,3.355-9.793q1.975-20.971,3.934-41.914c.451-4.8.947-9.738,3.258-13.961,4.943-9.047,16.242-11.941,25.959-15.406s20.369-10.738,19.568-21.02q32.361-6.545,64.723-13.078c1.975-.4,4.387-.656,5.658.91a1.4,1.4,0,0,1,.176.777q9.882-7.406,19.766-14.809c11.906,10.18,31.039.719,45.6,6.508,5.416,2.164,9.775,6.3,13.988,10.328,23.781,22.8,47.578,45.625,70.1,69.672,6.938-3.742,10.551-11.5,13.422-18.832a319.012,319.012,0,0,0,18.783-72.727C4162.01,5186.713,4158.707,5186.494,4156.156,5184.7Z" transform="translate(-3665.192 -5061.446)" fill="#ea857f"/>
</svg>
