<svg xmlns="http://www.w3.org/2000/svg" width="500" height="767.722" viewBox="0 0 500 767.722">
  <path id="パス_402" data-name="パス 402" d="M5137.078,4773.461c-23.727-32.531-48.391-70.773-39.609-110.062,6.914-30.945,34.016-61.047,21.258-90.07-4.992-11.352-15.4-19.57-20.727-30.773-17.336-36.367,23.578-88.586-5.961-116.031-13.055-12.109-34.016-11.422-48.125-22.3-15.82-12.187-18.336-34.437-23.055-53.812a168.788,168.788,0,0,0-14.641-38.2l-1.961-.023q-46.055-.785-92.109-1.523c-4.125-.062-8.422-.078-12.078,1.766-9.031,4.609-9.266,17.016-10.961,27-3.992,23.586-22.133,41.906-39.359,58.539l-81.945,79.188q-41.379,39.984-82.766,79.953-21.258,20.566-42.555,41.117c.508,1.313,1.141,2.539,1.617,3.852.516,1.477,1.3,2.82,1.789,4.3,21.055,64.719,11.43,149.2,68.547,186.273-24.125,17.461-49.242,36.1-61.781,63.117-12.523,26.992-7.078,64.8,19.406,78.422,11.086,5.68,24.8,6.852,33.555,15.688,22.422,22.6-10.75,61.6-.547,91.734,8.859,26.133,43.5,30.594,71.109,29.609,23.547-.852,49.234-1.445,71.359,5.063,1.945.563,3.742,1.406,5.633,2.086,15.5-5.641,31.281-10.492,47.633-12.086,21.367-2.062,42.906,1.484,64.352.813,57.648-1.789,113.141-36.516,139.891-87.57,23.43-44.75,24.922-97.742,20.094-148.023-1-10.531-2.219-21.516,1.648-31.375,2.758-7.109,7.891-12.484,13.727-17.352.7-.586,1.258-1.258,1.969-1.828C5140.688,4778.461,5138.883,4775.945,5137.078,4773.461Z" transform="translate(-4642.484 -4310.653)" fill="#eddb29"/>
</svg>
