<svg xmlns="http://www.w3.org/2000/svg" width="500" height="629.836" viewBox="0 0 500 629.836">
  <path id="パス_402" data-name="パス 402" d="M4896.8,5265.68c-10.016-9.8-18.645-20.859-27.246-31.91q-8.285-10.617-16.551-21.266c-6.3-8.078-12.664-16.363-18.016-25.133-.609-1.016-1.07-2.086-1.652-3.1-14.359,6.121-29.254,11.156-42.812,4.766-11.879-5.574-20.441-19.352-33.578-19.289-14.371.07-31.773,16.012-39.895,4.168a110.874,110.874,0,0,0-3.648-95.309c-4.176-7.8-9.48-16.383-6.926-24.859,2.84-9.375,14.484-14.687,15.555-24.418.875-7.934-5.863-15.043-5.645-23.012.156-5.746,3.9-10.742,7.8-14.957,20.188-21.785,51.535-39.027,52.945-68.7.5-10.664-3.285-21.031-7-31.055-6.719-18.047-14.535-37.164-28.223-49.988-1.895.277-3.8.609-5.7.957a179.664,179.664,0,0,0-68.969,27.656c-15.895,10.691-31.191,24.43-50.227,26.547-23.48,2.629-49.809-12.777-69.348.473-7.984,5.406-12.832,14.746-21.223,19.543-7,4.008-15.445,4.254-23.516,4.418q-37.623.732-75.262,1.465c-6.535,13.621-7.715,27.563,2.379,38.7,6.074,6.7,15.086,10.133,21.316,16.676,6.7,7.047,9.453,16.895,11.371,26.41,12.652,62.926-2.395,130.875-40.422,182.574,15.043,13.262,36.07-11.094,56.105-10.734,25.863.445,30.918,36.766,27.492,62.375,46.375-25.98,113.516.133,130.1,50.594-11.863-11.156-32.434-11.3-44.457-.316s-13.723,31.465-3.664,44.266c3.6,4.59,8.348,8.117,13.031,11.582q90.814,66.832,186.488,126.656,49.236-64.729,98.457-129.434c13.078-17.2,26.461-35.352,36.449-54.59C4913.539,5280.477,4904.785,5273.5,4896.8,5265.68Z" transform="translate(-4422.313 -4841.617)" fill="#eddb29"/>
</svg>
