<svg xmlns="http://www.w3.org/2000/svg" width="499.996" height="730.265" viewBox="0 0 499.996 730.265">
  <path id="パス_402" data-name="パス 402" d="M4648.891,4747.414c-2.562-5.031-5.656-10.145-5.676-15.785-.031-4.742,2.121-9.215,2.84-13.91,3.105-20.2-19.2-34.2-28.57-52.375-3.336-6.465-5.035-13.609-6.7-20.68q-2.414-10.248-4.832-20.484c-2.574-10.93-5.1-22.316-5.906-33.551-16.32-2.766-35.336-.82-50.645-7.629,13.332-9.719,1.926-35.887-14.273-32.766q1-17.754,1.988-35.527c-16.273,8.121-35.281,12.719-52.773,7.7-17.488-5.031-32.324-21.734-30.77-39.844a14.367,14.367,0,0,1,2.23-7.168c2.137-2.961,5.777-4.355,9-6.074,22.535-12.055,24.84-49.211,3.965-63.937-14.926-10.539-37.367-10.367-47.645-25.461-4.648-6.82-5.656-15.4-6.539-23.6q-1.857-17.414-3.73-34.832c-1.25-.809-2.543-1.605-3.848-2.395-15.891-9.73-34.781-18.152-50.676-9.473-5.855,3.172-10.41,8.375-16.258,11.551-19.07,10.3-41.7-4.062-63.3-5.758-24.9-1.934-46.98,13.613-62.969,33.648-1.617,2.035-3.27,4.043-4.754,6.141-.379,8.648.543,17.137,4.359,24.836,7.215,14.547,22.813,22.617,34.434,33.957,22.531,21.988,29.086,58.664,15.582,87.086-1.984,4.18-4.449,8.285-8.117,11.1-7.113,5.43-16.883,4.906-25.8,5.738-1.164,2.059-2.383,4.074-3.672,5.961-1.883,2.754-3.867,5.477-5.852,8.223-3.051,4.234-6.043,8.523-8.641,12.949-3.492,5.98-6.211,12.238-6.98,19.113-.574,5.105-.055,10.34-1.168,15.359-4.6,20.77-33.152,27.449-41.441,47.043-5.094,12.043-1.242,25.734,1.773,38.457,11.172,47.051,10.094,96.68,18.133,144.109.207,1.242.5,2.469.719,3.711,28.555,4.566,59.473-3.668,79.7-24.539,14.266-14.719,30.066-36.625,49.4-29.8,6.457,2.273,11.48,7.629,17.969,9.832,12.688,4.313,26.289-4.508,39.633-3.238,7.168.688,13.711,4.242,20.016,7.715q27.457,15.129,54.91,30.266c8.152,4.492,17.3,10.422,18.055,19.7.41,4.938-1.785,9.73-4.484,13.887-12.945,19.992-36.762,29.7-54.426,45.691s-27.465,47.355-8.621,61.93a94.721,94.721,0,0,0-57.973,47.332,30.63,30.63,0,0,1,25.043,22.508c1.152,4.7,1.188,9.773,3.453,14.035,7.465,13.988,28.953,7.574,41.57-2.031s29.633-21.117,42.547-11.9c-22.84-33.574-19.246-82.684,8.227-112.59,6.516-7.1,14.25-13.254,19.137-21.57,8.074-13.746,8.832-33.523,23.117-40.633,5.574-2.785,12.047-2.812,18.223-3.672,22.422-3.113,41.488-17.25,60.207-29.988,18.7-12.73,39.789-24.941,62.379-23.312a43.472,43.472,0,0,1,18.809,6.219A98.107,98.107,0,0,0,4648.891,4747.414Z" transform="translate(-4159.277 -4306.003)" fill="#b6e67c"/>
</svg>
