<svg xmlns="http://www.w3.org/2000/svg" width="500.001" height="575.716" viewBox="0 0 500.001 575.716">
  <path id="パス_402" data-name="パス 402" d="M3304.879,5256.023c-1.664-2.484-4.746-3.539-7.621-4.437-32.375-10.164-65.344-20.437-99.285-20.648-27.449-.18-55.77,6.156-81.832-2.437-15.465-5.117-28.773-15.086-41.77-24.914-2.984-2.25-5.98-4.5-8.969-6.781a54.027,54.027,0,0,1-9.437,1.172c-18.32.672-38.836-4.68-51.77,7.641-4.406,4.211-7.059,9.906-9.4,15.523-5.117,12.328-9.332,25.2-16.992,36.109-7.66,10.922-19.711,19.836-33.047,19.648s-26.512-12.4-24.238-25.531c1.066-6.148,5.023-11.312,7.844-16.891a48.545,48.545,0,0,0,3.258-35.2c-3.871-13.172-17-25.531-30.137-21.437-6.75,2.1-11.539,7.891-16.691,12.727a74.541,74.541,0,0,1-51.383,19.945c-5.539-.07-12-.4-15.555,3.852-2.363,2.836-2.578,6.891-2.117,10.547,4.09,32.844,46.289,44.219,66.531,70.414a60.18,60.18,0,0,1-31.723,94.813c-7.293,2.008-14.844,2.461-22.437,2.563-4.461,13.852-11.406,27.094-16.363,40.875-6.918,19.234-9.105,42.7,4.078,58.3,10.656,12.594,28.242,16.477,41.949,25.656,12.125,8.094,20.938,20.133,29.449,31.953,34.332,47.68,71.348,81.813,112.91,121.688,29.152,27.969,11.371,48.555,13.422,76.914,21.973,4,43.957,9.18,61.766-2.516,9.109-6.008,15.2-15.5,20.965-24.75,7.352-11.758,14.953-25.539,10.82-38.781-4.395-14.109-19.887-20.945-30.77-30.969-17.867-16.453-23.355-42.039-27.914-65.891-.875-4.555-1.727-9.406-.008-13.711,1.32-3.367,4.031-5.937,6.66-8.422q31.934-30.023,63.867-60.055c4.426,24.859,31.586,40.391,56.871,40.469a94.621,94.621,0,0,0,20.57-2.477,101.594,101.594,0,0,1,4-13.156c6.9-18.469,18.688-36.656,29.3-53.172a507.86,507.86,0,0,0,76.238-209.516C3306.324,5262.047,3306.621,5258.625,3304.879,5256.023Z" transform="translate(-2806.23 -5177.047)" fill="#ea857f"/>
</svg>
