<svg xmlns="http://www.w3.org/2000/svg" width="500.003" height="257.303" viewBox="0 0 500.003 257.303">
  <path id="パス_402" data-name="パス 402" d="M5978.746,4212.977c-9.523-9.152-20.547-16.773-29.094-26.84a94.3,94.3,0,0,1-13.293-21.23c-9.508-20.352-13.4-43.723-8.379-65.613.137-.582.348-1.156.5-1.742-2.4-2.035-4.781-4.1-6.977-6.3a37.293,37.293,0,0,1-2.848-3.2,68.4,68.4,0,0,1-12.094-8.547c-2.883-2.594-5.633-5.516-9.23-6.934-3.316-1.3-7.035-1.2-10.406-2.316-8.605-2.816-12.43-11.988-17.723-19.625-.148-.207-.281-.426-.434-.637a29.492,29.492,0,0,0-6.594-7c-.559-.406-1.2-.668-1.785-1.02-14.687,6.293-31.531,7.438-46.336,1.234-5.359-2.242-11.355-5.293-16.645-2.883-7.5,3.43-12.078,16.754-19.2,12.563,2.09-13.746-16.863-20.73-30.559-18.215-13.676,2.508-28.594,8.918-40.648,1.957-6.863-3.965-10.984-11.535-17.645-15.832-13.8-8.91-33.43.137-41.574,14.387s-8,31.594-7.637,48c-6.785-6.055-17.922-3.074-24.754,2.922s-11.215,14.344-17.789,20.621c-5.437,5.191-12.176,8.8-18.969,12.035a257.545,257.545,0,0,1-81.316,23.137c2.047,11.113.93,23.691,4.578,34.578,2.855,8.535,8.621,15.727,13.3,23.43a93.335,93.335,0,0,1,8.266,18.41c.707,2.1,1.4,4.188,1.977,6.324a31.2,31.2,0,0,0,8.746,3.043c6.164,1.055,12.5-.277,18.715.477,8.023.984,15.172,5.344,22.215,9.344,5.617,3.2,11.4,6.109,17.219,8.957,1.5.734,2.945,1.563,4.461,2.27a42.91,42.91,0,0,0,4-5.766c5.371-9.395,9.43-20.531,18.859-25.8,21.117-11.82,46.957,15.332,70.047,8.109,5.527-1.723,10.438-5.367,16.176-6.129,8.6-1.129,16.547,4.414,23.223,9.953s13.859,11.668,22.523,12.016,17.738-9.066,13.434-16.6c18.777,15.281,46.438,11.188,69.227,19.348,8.68,3.105,16.617,7.926,24.9,11.961,1.652-2,3.375-3.93,5.141-5.766,5.438-5.645,11.559-10.164,19.219-11.176,11.469-1.523,22.117,5.469,33.168,8.91,6.973,2.168,14.4,2.98,21.012,6.059,13.133,6.125,22.875,20.957,37.352,20.7,6.938-.125,12.859-4.16,16.863-9.84a28.929,28.929,0,0,0,5.352-17.824C5996.6,4233.711,5988.262,4222.129,5978.746,4212.977Z" transform="translate(-5497.328 -4017.259)" fill="#00bbf9"/>
</svg>
