<svg xmlns="http://www.w3.org/2000/svg" width="500" height="832.439" viewBox="0 0 500 832.439">
  <path id="パス_402" data-name="パス 402" d="M5586.223,4204.242c-4.316-7.125-9.656-13.773-12.3-21.672-3.371-10.07-2.328-21.7-4.223-31.977-.965-5.207-2.617-10.09-6.1-14.2-5.566-6.562-14.676-9.746-19.121-17.105-2.9-4.8-3.344-10.633-3.672-16.227q-2.273-38.906-1.754-77.914c.156-11.344.438-23.008-3.516-33.648s-13.277-20.141-24.633-20.637c-9.594-.426-19.969,5.34-28.281.52-5.961-3.457-8-10.934-9.523-17.656-5.223-23.184-8.848-51.613,9.313-66.953,7.586-6.395,17.586-9.012,26.2-13.906,18.7-10.625,32.055-32.039,50.289-40.926,4.5-22.887-6.3-48.521-26.684-60.254-7.937-4.566-17.57-7.709-22.082-15.67-3.129-5.521-3.086-12.289-5.48-18.16-4.355-10.662-16.449-16.711-27.965-16.615s-22.43,5.307-31.937,11.811a118.941,118.941,0,0,0-43.078,53.941c-1.348,3.4-2.687,7.08-5.652,9.229-8.773,6.363-21.16-5.949-31.352-2.232-6.594,2.414-9.449,10.643-15.828,13.559-13,5.922-22.336-12.463-30.934-23.854-11.7-15.492-34.945-20.893-52.293-12.145-2.879,1.451-5.711,3.371-7.172,6.256-2.84,5.646.566,12.273,1.211,18.563,1.34,12.826-9.676,24.318-22.02,28.082a49.012,49.012,0,0,1-10.82,1.842,58.578,58.578,0,0,1,2.559,7.533c8.531,33.525-25.934,69.4-11.59,100.881,3.012,6.621,7.992,14.547,3.535,20.3-2.309,2.98-6.309,3.887-9.754,5.383-11.922,5.164-18.2,18.031-23.5,29.883l-3.461,7.762q-1.389,3.094-2.762,6.188c7.734,9.8,15.68,19.832,14.926,31.9-.461,7.477-4.348,14.23-7.492,21.027a117.216,117.216,0,0,0,.152,97.359c2.063,4.43,4.469,9.27,3.176,13.984-1.1,3.988-4.578,6.793-7.891,9.281-34.5,25.941-73.055,50.8-90.832,90.109,23.09-7.461,45.871,12.773,58.148,33.691a176.741,176.741,0,0,1,22.289,63.039c.844,5.688,1.473,11.6,4.43,16.539,4.813,8.051,14.426,11.531,22.4,16.48s15.313,14.445,11.512,23.016c-1.148,2.594-3.191,4.68-4.824,7-6.02,8.57-6.266,19.773-6.289,30.246q-.076,31.676-.141,63.367c0,1.188-.039,2.426-.074,3.648-.016.9-.031,1.785-.082,2.691,8.438.594,17.238.043,24.355,4.434,8.1,5.012,11.684,14.926,18.363,21.641q35.895-22.318,71.77-44.633c11.176-6.953,22.48-14,31.625-23.457,8.848-9.148,15.395-20.262,21.055-31.668a270.81,270.81,0,0,0,26.918-94.324c.7-7.379,1.543-15.664,7.289-20.348a17.389,17.389,0,0,1,3.918-2.176c-.027-1.258-.1-2.512-.113-3.766a384.048,384.048,0,0,1,6.43-76.031c2.313-12.258,5.547-25.051,14.207-34.031s22.2-13.562,27.43-24.879c1.605-3.5,2.324-7.492,4.781-10.457,7.371-8.879,21.895-1.469,29.3,7.375s16.176,20.2,27.492,17.9c4.609-.93,8.445-4.113,12.914-5.566,19.914-6.461,38.156,22.719,58.313,17.035a19.7,19.7,0,0,0,2.434-1.035,22.446,22.446,0,0,0,4.145-2.352A85.707,85.707,0,0,0,5586.223,4204.242Z" transform="translate(-5093.871 -3721.241)" fill="#b6e67c"/>
</svg>
