<svg xmlns="http://www.w3.org/2000/svg" width="500.001" height="666.891" viewBox="0 0 500.001 666.891">
  <path id="パス_402" data-name="パス 402" d="M3379.846,6074.684c-4.859-11.113-20.426-18.273-29.51-10.223-2.312,2.047-3.9,4.77-6.029,6.992-10.945,11.43-31.949,4.34-39.818-9.387s-6.521-30.645-4.943-46.391c-23.3,6.82-50.051-3.691-64.084-23.492s-15.447-47.238-5.361-69.3c3.789-8.3,9.166-16.3,9.563-25.41.635-14.492-11.441-26.344-23.822-33.914-12.387-7.59-26.533-13.465-35.154-25.141-5.986-8.105-8.65-18.051-12.5-27.391a70.932,70.932,0,0,0-3.383-7.312c-16.068-29.125-54.113-36.848-87.379-38.02-15.678-.543-32.023-.609-47.705-2.574.293,4.359-.318,8.6-2.8,12.141-5.3,7.555-16.463,8.5-22.826,15.172-4.643,4.871-5.965,11.949-9.242,17.824s-10.771,10.832-16.479,7.262c-6.562-4.1-6.6-16.93-14.342-16.871-8.236.043-14.717,16.016-19.963,9.676-4.484-10.273-8.994-22.047-4.4-32.262,2.281-5.086,6.545-8.984,9.8-13.516,12.336-17.207,8.787-40.691,4.7-61.453A192.5,192.5,0,0,0,2930.4,5746.3c-6.775-5.27-17.33-2.316-22.975,4.133-5.66,6.457-7.586,15.281-9,23.742-3.213,19.227-1.727,44.164,16.428,51.313,7.938,3.133,18.172,2.223,23.521,8.863,9.3,11.582-7.709,27.891-5.113,42.5,2.254,12.648,18.662,20.234,18.209,33.063-.51,14.172-19.7,18.492-28.7,29.465-10.26,12.512-5.166,31.77,4.492,44.75s23.209,22.949,31.365,36.926c10.707,18.328,10.656,40.758,10.3,62-.348,21.1-.846,42.914-9.668,62.105-8.812,19.172-28.3,35.145-49.322,33-9.164-.945-18.043-5.164-27.205-4.2-.07,13.563,12.416,23.27,20.012,34.512s5.951,32.055-7.627,32.246a183.76,183.76,0,0,0,117.617,25.324c6.516-.809,13.471-1.918,19.373.953,4.949,2.414,8.234,7.219,11.186,11.871,7.186,11.309,14.1,23.363,25.049,31.1s27.42,9.668,37.1.391c4.377-5.629,4.424-13.8.928-19.934a4.868,4.868,0,0,1-2.865-4.016,16.3,16.3,0,0,1,2.865,4.016c2.959,1.688,7.463,1.578,10.053-1.027,3.938-3.973,4.232-10.176,4.279-15.77q.231-26.988.467-54c-21.344,5.09-49.59,7.242-59.465-12.336-2.568-5.1-3.285-10.887-3.809-16.559a317.231,317.231,0,0,1,24-152.863c6.02-14.113,14.123-28.809,28.2-34.957,24.631-10.766,50.91,9.762,69.957,28.711,2.8,2.789,5.725,5.8,6.572,9.641.811,3.7-.434,7.488-1.666,11.051q-6.22,18.082-12.445,36.18c-1.365,3.977-3.314,8.516-7.393,9.551-4.361,1.113-8.459-2.477-11.18-6.062a61.756,61.756,0,0,1-11.672-46.758q-10.436,7.84-20.883,15.7c-10.156,7.625-21.555,19.441-16.4,31.055,6.688,15.066,34.531,11.879,38.6,27.859,1.34,5.277-.732,10.914.238,16.27,2.92,16.113,28.479,17.555,34.756,32.688,6.135,14.793-10.018,28.773-14.7,44.082-4.3,14.059,1.453,29.48-1.576,43.863-4.207,20-24.512,40.43-12.834,57.215q-12.645,5.725-25.3,11.461a120.986,120.986,0,0,0,2.592,42.578c19.908-18.645,47.93-25.035,73.932-33.3s53.432-21.156,64.746-45.961c2.65-5.824,4.324-12.156,8-17.379,5.43-7.73,14.393-11.992,22.307-17.141,11.393-7.4,21.77-18.367,23.109-31.875s-10.395-28.359-23.766-25.926c-6.766,1.234-15.58,5.574-19.094-.336-1.121-1.895-1.064-4.242-.715-6.418,2.486-15.441,17.7-25.984,32.953-29.508s31.188-1.871,46.8-3.074a79.858,79.858,0,0,0,21.463-4.852c.051-1.07.137-2.117.191-3.191a378.02,378.02,0,0,1,3.846-38.469C3382.387,6098.57,3384.711,6085.813,3379.846,6074.684Z" transform="translate(-2882.744 -5701.094)" fill="#00bbf9"/>
</svg>
