<svg xmlns="http://www.w3.org/2000/svg" width="500" height="444.876" viewBox="0 0 500 444.876">
  <path id="パス_402" data-name="パス 402" d="M3988.73,4869.871c1.383-9.637,5.672-18.953,4.984-28.664a28.733,28.733,0,0,0-10.959-20.426c3.354-3.1,6.482-6.43,9.613-9.766,1.3-1.383,2.648-2.711,3.906-4.133-3.33-5.34-6.559-10.734-8.625-16.668-3.561-10.227-3.439-21.309-3.568-32.133-.42-36.535-4.01-72.988-9.49-109.105-3.287-21.66-7.385-43.191-12.018-64.594-.391-1.8-.725-3.605-1.121-5.4-2.086-.637-4.221-1.125-6.238-1.953-4.125-1.687-8.117-3.762-12.418-4.918-7.922-2.121-16.3-.977-24.5-1.152s-17.143-2.121-22.16-8.6a61.97,61.97,0,0,1-4.385-7.363c-.047-.094-.1-.176-.15-.262a119.064,119.064,0,0,1-53.828-9.492c-18.4-7.91-41.461-18.5-56.3-5.062-15.217,13.781-7.67,42.668-23.811,55.352-3.789,2.98-8.51,4.652-12.174,7.781-10.637,9.09-8.434,25.66-7.045,39.574s-2,31.957-15.721,34.773c-8.812,1.8-19.4-3.715-26.262,2.109-2.625,2.227-3.955,5.7-6.6,7.906-10.5,8.813-23.469-9.066-37-11.238-12.285-1.973-23.086,9.8-35.527,9.727-15.84-.1-24.627-17.926-29.715-32.91-7.346,5.2-7.568,15.7-10.166,24.32s-13.293,16.934-19.711,10.633c-3.752,42.941-37.461,77.055-50.826,118.051a156.842,156.842,0,0,0-6.471,30.824c-.26,2.258-.437,4.52-.627,6.789,9.73,11.094,21.236,20.9,28.936,33.5,7.156,11.711,10.777,25.523,19.359,36.246a124.286,124.286,0,0,0,10.242,10.8c.854-.582,1.689-1.2,2.559-1.762,15.186-9.824,32.166-16.848,49.041-23.574q17.93-7.143,35.846-14.277c5.834-15.129,26.035-22.664,40.367-15.059-8.17,11.77-7.76,28-1.82,41.043s16.65,23.328,28.107,31.949a187.634,187.634,0,0,0,88.008,35.891q-16.148-20.988-32.287-41.98c-4.131-5.367-8.494-11.812-6.746-18.348,1.895-7.094,9.922-10.4,17.037-12.246,16.342-4.246,33.178-6.2,49.957-8.137q17.016-1.963,34.039-3.934c8.389-.965,18.465-3.238,21.059-11.262,1.35-4.18.488-9.566,3.988-12.211,6.23-4.7,17.107,5.887,22.082-.129,2.35-2.844.891-7.09,1.361-10.758,1.6-12.555,20.568-10.277,31.8-4.422,7.723,23.523,32.324,40.352,57.068,39.016C3990.492,4891.418,3987.35,4879.5,3988.73,4869.871Z" transform="translate(-3499.818 -4533.753)" fill="#b6e67c"/>
</svg>
