<svg xmlns="http://www.w3.org/2000/svg" width="500.003" height="843.204" viewBox="0 0 500.003 843.204">
  <path id="パス_401" data-name="パス 401" d="M6185.781,3160.58c-10.055-16.609-32.211-28.855-29.625-48.1,1.68-12.594,13.93-21.219,17.875-33.293,6.094-18.676-8.9-36.812-20.523-52.648-19.023-25.906-30.727-56.777-34.937-88.621-1.117-.676-2.25-1.328-3.383-2.012-65.336-39.992-125.633-90.336-193.586-126.316-16.6-8.789-35.625-16.914-53.664-11.637-9.242,2.711-17.109,8.688-25.187,13.906a176.489,176.489,0,0,1-25.555,13.418c-.812.352-1.664.582-2.477.922-.469.969-1.023,1.906-1.453,2.891-10.727,24.242-12.984,51.242-15.109,77.66q-2.754,34.494-5.531,68.992c-1.3,16.133-2.859,33.086-12,46.453-12.172,17.832-35.859,26.258-45.227,45.719-8.3,17.266-3.086,39.063-12.75,55.613-4.641,7.953-12.25,13.754-17.57,21.266-6.508,9.152-9.328,20.363-11.484,31.383-.562,2.836-.781,5.727-1.266,8.578q3.316,3.082,6.633,6.148c1.484,1.379,2.984,2.781,4.438,4.242,4.539,4.543,8.6,9.586,10.055,15.746,2.586,10.8-2.664,24.559,5.758,31.809,4.211,3.633,10.391,3.887,15.18,6.727,7.891,4.668,10.1,14.758,13.445,23.277a66.914,66.914,0,0,0,45.641,39.879c13.719,3.355,33.711,9.359,29.469,22.816-3.531,11.23-20.141,9.477-30.141,15.668-9.664,5.973-12.031,18.715-13.484,29.965q-4.594,35.619-9.2,71.234c-1.6,12.441-3.469,25.535-11.211,35.406-4.094,5.227-9.719,9.375-12.523,15.391-4.945,10.645.5,23.012,6.164,33.3,8.9,16.2,18.8,31.828,29.172,47.148,1.109,1.625,2.273,3.2,3.383,4.809q12.023-1.1,24.063-2.211c10.922-1,22.063-2,32.75.469,16.008,3.7,29.2,14.656,43.781,22.2,20.039,10.352,42.68,14.215,64.938,17.945q38.051,6.369,76.125,12.758,9.293-56.789,18.555-113.59a56.134,56.134,0,0,1-6.664-11.281,37.173,37.173,0,0,1-3.516-14.082c-.75-28.055,30.938-45.723,40.531-72.105,3.281-9.055,3.828-18.867,6.289-28.187,3.352-12.629,10.141-24.027,16.852-35.238q35.66-59.549,71.3-119.094C6185.766,3219.752,6201.594,3186.65,6185.781,3160.58Z" transform="translate(-5692.328 -2796.279)" fill="#00bbf9"/>
</svg>
