<svg xmlns="http://www.w3.org/2000/svg" width="500" height="733.407" viewBox="0 0 500 733.407">
  <path id="パス_402" data-name="パス 402" d="M3581.5,5542.793c-7.043-11.1-12.506-23.27-20.2-33.977-9.629-13.41-25.012-24.871-41.357-22.492-14.447,2.1-25.621,14.352-39.873,17.5-7.117,1.578-14.516.758-21.764-.066q-39.882-4.488-79.775-9.008c-3.842-.434-7.729-.832-11.635-1.2-20.8-1.922-42.168-2.027-60.035,8.152-15.289,8.7-25.977,24.133-31.617,40.781-2.531,7.461-4.357,15.6-9.893,21.223-10.6,10.746-30.439,7.969-40.127,19.547-7.922,9.465-5.08,23.551-1.818,35.453q5.147,18.785,10.3,37.574c.875,3.2,1.848,6.559,4.221,8.871,2.064,2.008,4.992,3,6.934,5.129,2,2.191,2.682,5.238,3.287,8.141q4.857,23.3,9.719,46.605c.873,4.188,1.645,8.926-.834,12.414-2.084,2.941-5.834,4.059-8.953,5.852-11.391,6.574-13.02,25.074-2.957,33.535,2.176,1.836,4.941,3.527,5.4,6.336.525,3.172-2.187,5.879-4.75,7.8-37.557,28.262-90.857,21.023-134.412,38.7-6.111,2.48-12.135,5.539-16.76,10.238a49.489,49.489,0,0,0-7.812,11.391c3.707,8.961,6.26,18.508,12,26.277,8.277,11.207,21.857,16.859,33.738,24.137s23.477,18.637,22.869,32.551c-.381,8.738-5.543,16.422-9.18,24.387-9.676,21.172-8.311,47.5,5.152,66.508s39.139,29.1,61.5,22.555c-1.512,15.109-2.8,31.344,4.746,44.516s27.705,19.98,38.213,9.012c2.051-2.133,3.566-4.754,5.783-6.711,8.721-7.727,23.66-.855,28.326,9.816s2.432,22.918.666,34.418a363.332,363.332,0,0,0-3.693,36.922c.766.672,1.484,1.395,2.219,2.094a68.74,68.74,0,0,1,14.941,20.328c4.967,10.6,13.15,25.25,23.77,20.324-4.3-7.27-.859-16.812,4.527-23.32s12.568-11.492,17.27-18.516c11.17-16.676,5.84-40.738,17.676-56.957,5.17-7.086,13.844-14.336,10.869-22.594-1.037-2.855-3.373-5.066-4.588-7.859-1.572-3.629-1.07-7.773-.535-11.7q5.9-43.582,11.818-87.184c1.867-13.773,3.8-27.8,9.74-40.379,7.887-16.715,22.572-30.332,26.391-48.41,2.65-12.52-.342-25.465-.537-38.266-.373-24.441,9.4-47.754,19-70.234q13.919-32.59,27.842-65.168c5.385-12.6,11.725-26.246,24.1-32.156,8.154-3.9,20.5-7.457,18.719-16.309a24.2,24.2,0,0,1-22.115-14.949c15.289,2.992,31.932-8.148,34.986-23.414q-17.684.123-35.367.242c8.025-19.141,30.219-31.215,50.668-27.539a187.581,187.581,0,0,1,2.371-45.477c1.766,12.3,18.262,18.246,29.357,12.609,10.818-5.484,16.156-18.176,16.754-30.324C3584.883,5548.055,3583.174,5545.438,3581.5,5542.793Z" transform="translate(-3086.797 -5486.01)" fill="#b6e67c"/>
</svg>
