<svg xmlns="http://www.w3.org/2000/svg" width="500" height="289.722" viewBox="0 0 500 289.722">
  <path id="パス_402" data-name="パス 402" d="M3619.279,5007.4c-9.771-1.453-19.32,3.219-29.094,4.625-4.748.68-10.045.434-13.686-2.687-2.6-2.227-3.926-5.539-5.74-8.445-7.037-11.254-22.99-15.867-34.957-10.113,11.2-33.945,7.211-70.961,9.076-106.719-.654-.676-1.234-1.4-1.9-2.062a103.358,103.358,0,0,1-8.453-8.906c-7.078-8.844-10.064-20.246-15.967-29.91-6.352-10.4-15.852-18.484-23.875-27.648-.922-1.039-1.8-2.121-2.672-3.2-.885.7-1.855,1.293-2.717,2.031-12.084,10.293-21.494,24.762-22.117,40.613-.238,6.051.531,12.9-3.566,17.359-3.777,4.105-10.076,4.313-15.66,4.23-11.59-.164-26.82-3.543-27.611-15.1-.307-4.555,2.037-8.832,3.109-13.273,2.039-8.457-.527-17.637,2.229-25.891,2.3-6.883,7.941-12.031,12.025-18.031s6.484-14.5,2.02-20.238c-10.572,16.711-32.629,25.2-51.689,19.895a17.21,17.21,0,0,1-5.863-2.609c-2.389-1.8-3.895-4.512-5.361-7.117a320,320,0,0,0-19.506-30.035c-.266-.371-.561-.719-.826-1.1-10.592,2.414-20.521,6.574-29.061,13.637-17.686,14.637-27.594,39.965-49.66,46.32a35.317,35.317,0,0,1-14.434,1.055c-4.393-.582-8.627-1.969-12.941-2.945a70.665,70.665,0,0,0-64.684,19.09c-6.437-6.051-19.352-10.656-21.785-2.168-.59,2.074-.115,4.281-.053,6.434.328,10.91-9.334,19.086-17.5,26.328s-16.285,18.035-12.061,28.094c2.68,6.375,9.531,9.969,13.27,15.781,6.281,9.758,2.357,22.5,2.408,34.109s10.162,25.688,20.551,20.508c4.375-2.172,6.7-7.059,10.572-10.027,4.283-3.273,9.967-3.883,15.336-4.387,11.406-1.043,23.887-1.832,33.295,4.7s11.523,23.484,1.139,28.313c35.783,10.867,78.152-7.953,94.051-41.773,5.824,14.02-14.172,27.688-11.4,42.605,1.8,9.648,14.875,15.039,22.961,9.465,6.518-4.488,7.426-14.48,3.174-20.883a28.869,28.869,0,0,1-3.879-3.922,12.474,12.474,0,0,1,3.879,3.922c9.4,7.887,23.693,9.848,34.658,4.137-3.924-6.156-.764-15.566,6.078-18.117,1.3,7.512,2.727,15.328,7.2,21.516s12.955,10.2,19.945,7.109c2.518-1.109,4.852-3.086,7.6-2.98,5.682.23,6.953,8,10.492,12.441,6.232,7.828,21.816.574,19.838-9.223,1.408,18.223,27.9,20.836,39.928,34.605,3.807,4.359,6.32,10.105,11.332,13.012s13.621-.285,12.4-5.945c4.943,6.949,10.293,14.238,18.166,17.539s18.9.594,21.428-7.555c1.492-4.816.447-11.445,4.984-13.645,2.951,3.875,8.691,3.848,13.551,3.449q31.655-2.607,63.316-5.211C3637.574,5021.5,3629.051,5008.859,3619.279,5007.4Z" transform="translate(-3133.135 -4763.066)" fill="#ed6a3a"/>
</svg>
