<svg xmlns="http://www.w3.org/2000/svg" width="500.002" height="586.625" viewBox="0 0 500.002 586.625">
  <path id="パス_401" data-name="パス 401" d="M6372.008,2933.8c-11.59-9.021-8.777-28.58,1.77-38.814,8.613-8.367,20.375-12.092,32.254-14.791-.031-.26-.047-.523-.082-.785q-30.457-21.9-60.937-43.795c-9.406,33.383-21.988,70.656-53.418,85.383-6.363,2.986-13.312,4.893-19.09,8.9-7.316,5.08-13.2,13.635-22.09,14.156-4.945.287-9.613-2.094-13.984-4.41q-64.1-33.952-128.223-67.9-11.285-5.988-22.59-11.961c-10.633-5.639-21.355-11.414-31.527-17.9-.98,2.529-1.793,5.137-2.547,7.781-2.187,7.676-4.012,15.525-8.918,21.691-3.957,4.973-9.555,8.324-15.027,11.568-10.488,6.229-21.527,12.619-33.723,13.2-5.664.27-11.445-.738-16.945.693a22.749,22.749,0,0,0-5.73,2.494c.113,1,.285,2,.414,3,3.309,25.02,12.5,49.281,27.453,69.643,9.133,12.443,20.914,26.7,16.125,41.373-3.09,9.492-12.727,16.271-14.051,26.164-2.031,15.127,15.383,24.75,23.293,37.807,12.414,20.486-.016,46.5-12.32,67.051q-28.02,46.8-56.035,93.592c-5.277,8.809-10.613,17.77-13.246,27.693-1.93,7.32-2.367,15.035-4.949,22.154-7.535,20.734-32.434,34.615-31.844,56.664a29.226,29.226,0,0,0,2.758,11.068c2.172.4,4.332.807,6.5,1.182,22.184,3.865,44.488,6.59,66.984,6.844,17.629.205,36.621-.746,51.324,8.967,15.105,9.98,22.016,28.971,36.469,39.871,20.082,15.158,48.8,10.648,72.051,1.006,14.262-5.918,28.082-13.527,42.406-19.154q-9.311-32.5-18.648-65.006c-2.418-8.457-4.863-17.371-2.84-25.93,2.258-9.545,9.656-16.953,13.855-25.82,6.445-13.613,4.91-29.445,6.371-44.439s8.023-31.76,22.426-36.2c9.117-2.811,23.316-3.928,22.152-13.391-.449-3.709-3.605-6.375-6.1-9.164a31.905,31.905,0,0,1-5.125-33.631c1.34-7.273,12.512-7.625,18.047-2.713s7.93,12.5,12.914,17.971,15.383,7.613,18.926,1.115c2.5-4.607-.2-10.316.449-15.52,1.3-10.229,14.332-14.172,24.582-13.119,10.266,1.059,21.133,4.607,30.5.283,5.121-2.363,11.336-6.83,15.484-3.016,3.438,3.156,1.4,8.7.441,13.264-3.719,17.689,19.219,34.275,34.879,25.213,4.277-2.479,7.918-6.789,7.914-11.732-.02-7.039-7.074-12.256-8.223-19.207-1.359-8.223,5.871-15.66,5.953-23.994.188-18.959-33.965-26.545-29.922-45.066q17.027-.19,34.063-.383c5.105-3.2,3-11.264-.914-15.844s-9.34-8.844-9.535-14.859c-.152-4.6,2.953-8.807,2.961-13.41.043-13.768-25.383-19.242-21.715-32.51,11.871-1.555,24.414-3.391,33.656-10.986s13.055-23.066,4.551-31.471C6386.289,2939.395,6377.941,2938.412,6372.008,2933.8Z" transform="translate(-5906.029 -2835.611)" fill="#ea857f"/>
</svg>
