<svg xmlns="http://www.w3.org/2000/svg" width="500.002" height="838.702" viewBox="0 0 500.002 838.702">
  <path id="パス_402" data-name="パス 402" d="M5139.324,4920.027c-27.754-27.316-73.918-34.289-93.508-67.937-4.918-8.434-8.027-18.4-15.66-24.508-9.633-7.684-23.66-6.953-34.3-13.156-26.27-15.309-14.594-55.043-.918-82.184a1033.969,1033.969,0,0,0,62.074-152.887c.8-2.547,1.7-5.086,2.48-7.645a39.491,39.491,0,0,0-5.484-5.137c-5.387-4.082-11.8-6.664-17.258-10.691a54.455,54.455,0,0,1-6.125-5.734c-4.242-4.242-8.258-8.75-12.785-12.7-19.816-17.324-48.828-17.738-75.16-17.219-2.016.031-4.031.082-6.055.117l-1.973.039c-3.555,2.969-6.68,6.246-8.375,10.566-2.34,6-1.609,12.711-.988,19.121,2.941,30.617,2.035,62.9-12.238,90.152-16.293,31.105-50.086,52.254-85.207,53.34-13.066.4-26.176-1.758-39.2-.5-9.953.977-19.566,3.941-29.008,7.375-1.355.492-2.7,1.012-4.047,1.5-2.031,8.9-4.809,17.41-10.09,24.512-5.977,8.059-14.668,13.742-20.945,21.574-22.629,28.246-5.035,71.945,22.66,95.254s63.539,35.422,90.918,59.113c3.84,3.332,7.734,7.3,8.27,12.363.863,8.066-7.406,14.473-15.426,15.758s-16.2-.73-24.32-.355c-25.848,1.191-45.887,31.246-36.992,55.535,2.859,7.84,8.02,14.648,11.145,22.367,5.207,12.941,4.332,27.414,3.379,41.32q-3.34,48.322-6.676,96.613c-.5,7.219-1.086,14.715-4.723,20.969-4.559,7.813-13.039,12.281-20.879,16.793a252.776,252.776,0,0,0-85.285,81.117c-.988,1.535-1.883,3.113-2.84,4.668A241.645,241.645,0,0,0,4679.852,5292q7.371,9.463,14.762,18.953c7.672,9.836,15.375,19.734,24.3,28.449a284.947,284.947,0,0,0,22.773,19.41c9.1-17.5,15.047-36.008,14.3-55.656-.375-9.754-2.254-20.3,2.754-28.668,4.258-7.141,12.43-10.734,19.246-15.492,17.6-12.254,27.391-34.828,24.277-56.047,14.211,13.844,40.613.105,45.031-19.215s-5.684-38.879-16.863-55.262c10.242-17.168,40.1-16.3,49.328,1.453,14.246-10.625,14.3-35.289.105-45.988q36.023-9.592,72.078-19.176c-2.387-14.191,10.418-25.906,21.906-34.574l48.27-36.422q8.021-17.1,16.043-34.23a57.976,57.976,0,0,1,23.531,50.344,38.877,38.877,0,0,0,25.516-29.105c19.836,8.949,26.355,38.438,12.148,54.914,32.9,11.75,65.98-26.125,64.371-60.992A82.842,82.842,0,0,0,5139.324,4920.027Z" transform="translate(-4663.785 -4520.11)" fill="#b6e67c"/>
</svg>
