<svg xmlns="http://www.w3.org/2000/svg" width="500" height="410.959" viewBox="0 0 500 410.959">
  <path id="パス_402" data-name="パス 402" d="M4468.277,4970.457c-26.012-28.648-51.52-57.742-75.941-87.75-5.781-7.1-13.426-14.984-22.414-13.3-2.477.469-4.812,1.664-7.32,1.719-13.379.328-9.879-25.047-22.1-30.477-10.266-4.578-19.738,9-30.895,10.3-10.344,1.227-18.633-8.219-28.492-11.555-24.758-8.406-44.187,21.594-53.187,46.117-4.176-19.82-24.336-34.945-44.555-33.422a63.688,63.688,0,0,0-13.531,2.789c-28.1,8.523-52.184,26.5-75.633,44.141q-9.527,7.2-19.086,14.383c-18.617,14-39.281,32.516-36.508,55.625a47.461,47.461,0,0,0-46.43-4.984c17.066,26.914,25.121,62.008,11.645,90.883-4.937,10.563-13.434,19.383-23.453,25.516-1.836,1.125-3.793,1.961-5.715,2.891,4.926,3.352,10.129,6.461,13.426,11.367,2.977,4.43,4.016,9.828,4.9,15.078a543.628,543.628,0,0,1,7.02,109.453,89.473,89.473,0,0,1,9.492,3.891c17.973,8.586,33.656,23.563,53.484,25.57,1.2.133,2.43.164,3.648.219a216.17,216.17,0,0,1,13.949-60.906c20.059-50.594,66.371-93.273,120.711-96.914,7.828-.523,16.613-.633,22.074-6.25,6.219-6.4,5.152-16.922,9.461-24.719,4.625-8.352,14.453-12.133,23.563-15a495.5,495.5,0,0,1,125.762-22.3c16.137-.734,32.586-.719,48.012-5.562,19.82-6.2,35.176-21.477,44.5-39.914C4472.543,4975.043,4470.375,4972.777,4468.277,4970.457Z" transform="translate(-3974.664 -4837.958)" fill="#6ca1ea"/>
</svg>
