<svg xmlns="http://www.w3.org/2000/svg" width="500" height="997.43" viewBox="0 0 500 997.43">
  <path id="パス_402" data-name="パス 402" d="M4694.133,4637.93l-69.828,32.242,4.977,32.547,8.164,115.43-10.781,78.906-2.359,95.773,7.055,72.516,10.391,45.992,32.867,51.242,9.469,23.766,10.508,46.617-41.539,67.813-37.883,35.25-11.734,22.445L4611.93,5393l-23.336,36.656,10.375,37.3,18.773,80.477-13.3,62.531,28.7,12.336,31.18-18.57,50.391,28.953,64.219-7.2s68.867-78.07,79.2-87.312c10.344-9.227,71.539-52.289,71.539-52.289l35.094-28.258,19.172-197.766-5.664-69.492-22.281-61.266,19.516-46.289,46.258-23.484,40.9.6,25.945-26.508-41.867-41.727-97.4-58.3-64.719-65.164-16.594-80.937,50.852-70.594,16.961-41.219-72.062-9.9-56.844-10.773-15.984-19.555Z" transform="translate(-4588.594 -4635.25)" fill="#ed6a3a"/>
</svg>
