<svg xmlns="http://www.w3.org/2000/svg" width="500.002" height="392.979" viewBox="0 0 500.002 392.979">
  <path id="パス_402" data-name="パス 402" d="M6124.457,3461.637c1.34-8.463,2.68-17.09,1.383-25.564-1.367-8.98-5.613-17.254-7.906-26.045-6.844-26.217,2.254-59.371-18.23-77.125a27.136,27.136,0,0,1-4.254-4.27c-.684.045-1.367.006-2.039.059q-.85-2.962-1.7-5.924c-10.566,4.148-20.75,9.762-31.273,14.123-17.141,7.109-38.324,10.436-53.137-.742-10.652-8.037-15.75-22.039-26.879-29.4-10.855-7.166-24.848-6.463-37.855-6.613a307.886,307.886,0,0,1-49.387-5.045c-.309,1.887-.625,3.773-.93,5.662q-5.379,32.915-10.754,65.826-22.061-3.7-44.125-7.395c-12.883-2.16-26.02-4.4-37.621-10.4-8.453-4.371-16.09-10.725-25.371-12.865-6.2-1.426-12.656-.852-18.988-.27q-6.967.642-13.934,1.283c-1.035.094-2.062.191-3.1.285-12.23,33.984-3.777,76.2-27.832,103.139-3.789,4.244-8.34,8-10.824,13.119-2.766,5.7-2.66,12.467-5.453,18.156-4.422,9.016-15.105,13.242-25.125,14.117s-20.125-.785-30.121.266c-3.676.387-7.59,1.289-10.031,4.061-3.176,3.619-2.785,9.039-2.2,13.818q5.186,42.771,10.371,85.541c.453,3.758.926,7.574,2.453,11.037,2.086,4.713,5.945,8.375,8.957,12.553,9.59,13.258,9.871,29.383,5.98,45.605-.258,1.055-.547,2.105-.836,3.156a49.817,49.817,0,0,0,9.137,12.9c4.969,4.842,11.055,8.01,17.555,10.5,1.02-.729,2.008-1.5,3.027-2.229,19.469-13.842,39.488-26.971,59.492-40.01q14.865-9.683,29.738-19.363c18.926-12.338,38.355-24.887,60.332-30.139a130.443,130.443,0,0,1,30.656-3.186c15.887.043,32.359,2.289,45.734,10.854,15.457,9.9,24.715,26.8,33.348,42.99,1.488,2.795,2.945,5.709,4.352,8.664.559.367,1.121.727,1.66,1.107a68.344,68.344,0,0,1,14.59,13.822c4.4,5.682,8.078,12.123,13.844,16.436s14.57,5.762,19.84.863c3.668-3.41,4.57-8.758,5.664-13.643a94.489,94.489,0,0,1,9.07-24.227c.938-1.738,2.039-3.547,3.828-4.389,2.984-1.4,6.414.428,9.164,2.238,10.156,6.682,20.023,13.975,31.172,18.8.047-.045.09-.09.137-.135a176.8,176.8,0,0,1,44.648-30.1c8.906-4.182,19.613-9.5,20.359-19.311.691-8.986-7.816-16.426-8.273-25.43-.539-10.633,10.188-19.34,9.77-29.98-.289-7.41-5.922-13.508-7.8-20.682-1.453-5.576-.559-11.461.344-17.152Q6119.766,3491.315,6124.457,3461.637Z" transform="translate(-5626.365 -3295.092)" fill="#b6e67c"/>
</svg>
