<svg xmlns="http://www.w3.org/2000/svg" width="500" height="453.942" viewBox="0 0 500 453.942">
  <path id="パス_402" data-name="パス 402" d="M4510.676,5149.867c-4.168-1.453-8.9-1.734-12.316-4.5-5.984-4.848-4.5-14.992.957-20.422,5.453-5.4,13.379-7.336,20.879-9.039a196.739,196.739,0,0,0-71.809-62.082c-4.055-2.047-8.395-4.129-10.895-7.93-1.742-2.645-2.4-5.824-3.02-8.93-3.172-15.828-3.031-37.543,12.492-42.012,4.73-1.352,9.9-.535,14.586-2.012,12.438-3.9,14.719-20.227,14.727-33.246.02-23.629-7.289-55.227-30.934-55.461-7.539-.066-14.543,3.547-21.41,6.637a172.458,172.458,0,0,1-30.082,10.23,77.6,77.6,0,0,1-3.727,8.168c-8.363,16.551-22.141,30.258-39.934,35.832-13.844,4.336-28.609,4.332-43.105,5a444.486,444.486,0,0,0-112.9,20.012c-8.176,2.574-17.008,5.973-21.156,13.473-3.867,7-2.914,16.445-8.488,22.184-4.91,5.047-12.8,5.148-19.828,5.617-48.785,3.266-90.359,41.578-108.371,87a194.486,194.486,0,0,0-12.5,54.68c11.773.48,25.074-1.953,32.477,6.809,8.223,9.746,5.078,29.754,17.672,31.813,17.9,2.914,11.66-34.559,28.613-41,2.586,12.34,19.852,14.074,31.875,10.188,12-3.879,25.254-10.363,36.441-4.539,7.074,3.68,10.977,11.316,14.691,18.363A334.088,334.088,0,0,0,4238.137,5268c16.648,17.617,36.457,35.9,38.082,60.082.711,10.473-1.414,23.086,6.8,29.645.23.191.512.262.758.441,5.91-2.266,11.746-4.687,17.543-7.2a437.621,437.621,0,0,0,79.387-44.535c8.57-6.082,17.285-12.949,21.25-22.668,5.254-12.871,2.168-30.25,13.355-38.5,9.992-7.367,25.191-2.074,35.781-8.57,13.574-8.348,12.043-30.949,25.68-39.184,9.969-6.016,23.238-1.324,34.188-5.3C4528.281,5185.941,4528.078,5155.918,4510.676,5149.867Z" transform="translate(-4023.84 -4904.229)" fill="#ed6a3a"/>
</svg>
