<svg xmlns="http://www.w3.org/2000/svg" width="499.998" height="511.302" viewBox="0 0 499.998 511.302">
  <path id="パス_402" data-name="パス 402" d="M5903.223,4076.727c-22.555-25.059-71.641-4.777-93.449-30.484-12.719-14.98-8.719-37.406-4.008-56.477q8.795-35.613,17.6-71.23c-19.008-13.648-53.254-6.516-61.289-28.473-5.418-14.809,7.207-29.387,13.152-44,8.559-21.039,3.07-44.746,1.773-67.41-.047-1.027-.008-2.086-.039-3.125-1.473-.5-2.941-1.012-4.379-1.57-9.242-3.535-17.922-8.051-24.984-14.941-5.453-5.316-9.5-11.645-13.008-18.363-.66-1.266-1.277-2.547-1.914-3.832a33.114,33.114,0,0,1-17.617-2.617c-11.859-5.344-19.191-17.145-28.465-26.27s-24.242-15.785-34.934-8.379c-11.1,7.684-10.184,25.27-20.016,34.5-4.914,4.617-11.781,6.426-17.547,9.9-21.172,12.762-22.094,42.547-20.492,67.191-12.32-3.434-26.641,2.9-32.359,14.332-2.914,5.8-4.023,12.934-9.141,16.914-6.027,4.691-14.586,2.867-22.23,3.129a41.517,41.517,0,0,0-17.027,4.648c-20.465,9.977-35.453,34-56.43,45.922-9.664,5.492-20.883,8.426-29.379,15.6-20.383,17.207-16.324,49.109-10.457,75.121,1.7,7.543,4,15.926,10.7,19.813,9.313,5.4,20.949-1.062,31.719-.59,12.734.566,23.191,11.223,27.633,23.16s4.109,25.02,3.941,37.754q-.586,43.711,1.973,87.4c.367,6.281.867,12.828,4.113,18.207,5,8.258,15.215,11.828,21.453,19.2,3.9,4.605,5.762,10.086,6.84,15.93a267.161,267.161,0,0,0,84.379-24c7.051-3.363,14.043-7.1,19.684-12.488,6.816-6.523,11.371-15.176,18.461-21.4s18.641-9.316,25.68-3.035c-.391-17.027-.535-35.016,7.922-49.809s28.828-24.172,43.145-14.93c6.91,4.469,11.184,12.313,18.313,16.43,12.5,7.219,27.977.578,42.172-2.031s33.879,4.637,31.711,18.9c7.379,4.352,12.121-9.469,19.91-13.027,5.488-2.512,11.7.664,17.27,2.992,15.359,6.434,32.84,5.242,48.078-1.285a70.6,70.6,0,0,0,10.137-5.332C5911.254,4090.543,5908.7,4082.816,5903.223,4076.727Z" transform="translate(-5411.819 -3696.378)" fill="#eddb29"/>
</svg>
