<svg xmlns="http://www.w3.org/2000/svg" width="500.001" height="650.346" viewBox="0 0 500.001 650.346">
  <path id="パス_403" data-name="パス 403" d="M5274.336,4400.34c-8.289-5.145-18.273-8.766-23.273-17.133-3.066-5.125-3.727-11.273-4.609-17.176a183.582,183.582,0,0,0-23.148-65.488c-12.754-21.73-36.426-42.75-60.41-35,18.469-40.84,58.531-66.668,94.363-93.613,3.445-2.586,7.063-5.5,8.2-9.645,1.34-4.9-1.176-9.922-3.309-14.531a121.763,121.763,0,0,1-.156-101.141c3.273-7.062,7.3-14.078,7.789-21.844.785-12.539-7.48-22.965-15.52-33.141-1.914-2.426-3.824-4.844-5.586-7.266-.035-.051-.074-.109-.105-.16q-47.209-5.273-94.418-10.555c-9.043-1.008-18.758-2.316-25.4-8.512-3.531-3.289-5.937-7.762-9.922-10.5-7.414-5.105-18.105-2.312-24.684,3.848s-10.02,14.84-13.406,23.176c-6.57,16.2-14.289,33.094-28.719,42.98s-37.555,9.148-46.4-5.945c-3.25,22.461-7.527,46.9-24.574,61.895-5.883,5.188-13.8,7.91-21.766,8.539-4.684,19.641-4.234,40.129-1.508,60.613.219,1.621.508,3.227.742,4.848-2.043-.234-4.086-.465-6.121-.73-19.172,16.84-17.7,51.848,3.273,66.617,9.5,6.688,23.813,13.578,20.855,24.824-1.031,3.91-4.133,6.887-7.289,9.426a84.287,84.287,0,0,1-57.074,18.207c-6.941-.406-14.172-1.637-20.645.91-5.242,2.055-9.27,6.355-14.152,9.176-21.5,12.434-55.109-5.051-70.855,14.148-4.523,5.5-6.07,12.777-7.9,19.668a183.908,183.908,0,0,1-11.246,30.3c.176.313.352.621.527.945a82.51,82.51,0,0,1,7.168,18.688c2.3,9.492,3.543,20.383,11.289,26.348,6.9,5.324,17.164,4.984,23.555,10.918,14.457,13.43-5.57,38.988,2.914,56.793,2.613,5.484,7.711,9.5,10.152,15.059,6.246,14.207-7.027,28.941-10.418,44.082-4.3,19.238,7.8,37.953,19.4,53.883.871,1.211,1.754,2.449,2.648,3.66.2.289.4.574.613.859,1.621-.027,3.238-.062,4.859-.09,21.164-.418,44.473-.086,60.41,13.84,3.633,3.172,6.859,6.789,10.258,10.2,2.16-12.078,2.711-24.844,3.391-36.969,1.375-24.68,4.973-50.047,17.633-71.285s36.262-37.523,60.895-35.16c43.52,4.176,67.2,59.98,110.461,66.313,3,.438,6.266.574,8.883-.977,4.133-2.457,4.988-7.937,7.137-12.238,5.418-10.848,20.387-14.148,31.691-9.738s19.391,14.512,25.438,25.016c3.07,5.34,6.043,11.172,11.367,14.258,5.109,2.949,11.391,2.773,17.266,2.246a195.944,195.944,0,0,0,43.73-9.2c1.984-.648,3.938-1.32,5.895-2.035.027-1.266.07-2.555.07-3.8q.076-32.912.148-65.824c.02-10.879.281-22.523,6.531-31.414,1.7-2.426,3.82-4.586,5.02-7.285C5290.238,4415.336,5282.613,4405.484,5274.336,4400.34Z" transform="translate(-4787.367 -3951.99)" fill="#00bbf9"/>
</svg>
