<svg xmlns="http://www.w3.org/2000/svg" width="500.002" height="516.204" viewBox="0 0 500.002 516.204">
  <path id="パス_402" data-name="パス 402" d="M5413.836,3874.188a85.631,85.631,0,0,0-3.676-10.863c-3.91-9.648-8.758-19-10.254-29.258-1.84-12.5,1.559-25.371-.727-37.789-3.082-16.793-15.758-29.844-25.824-43.625-2.234-3.039-4.285-6.2-6.281-9.375-.477-.758-.977-1.488-1.426-2.25-17.172-2.207-34.4-2.984-51.6-.895-38.051,4.629-76.477,25.844-90.656,61.422-3.895,9.809-5.855,20.328-9.926,30.074-9.461,22.633-30.105,39.566-53.3,47.629-10.137,3.535-20.758,5.516-31.332,7.4-28.066,5.023-57.629,9.406-84.516-.117-26.855-9.512-49.3-37.746-42.293-65.348,5.75-22.664,26.848-35.234,46.711-49.187-.094-1.02-.25-2.039-.34-3.059-11.027,1.281-22.129,2.4-32.66,5.594-22.816,6.914-44.082,32.883-31.512,53.125q-12.053,5.18-24.094,10.363a105.818,105.818,0,0,1-18.016,78.031c-9.2,12.871-21.637,24.324-25.219,39.734-4.648,20.09,7.133,39.906,11.316,60.105,4.223,20.375.617,41.574,2.969,62.242,4.629,40.43,31.895,78.422,24.535,118.445-2.715,14.7-9.984,28.125-15.027,42.2a155.6,155.6,0,0,0-4.7,16.324c11.074-.871,22.031-4.652,30.2-11.848,23.672-20.809,29.609-54.723,34.109-85.891,12.277,20.945,44.344,21.984,64.367,8.254,20.039-13.719,30.746-37.148,39.852-59.648,4.691-11.566,9.492-23.613,18.609-32.156s23.961-12.414,34.258-5.332c5.527,3.789,8.855,10,13.75,14.566,9.238,8.594,22.715,10.4,35.246,11.813q65.508,7.318,131.02,14.645c.664.07,1.324.145,1.984.219,3.273.367,6.6.766,9.914,1.16l5-11.18c7.621-17.094,16.688-35.637,33.871-43.078,4.969-2.16,10.734-3.477,14.063-7.762,6.41-8.289-.754-19.723-5.1-29.262C5376.457,3974.223,5426.145,3922.516,5413.836,3874.188Z" transform="translate(-4915.823 -3738.909)" fill="#ed6a3a"/>
</svg>
