<svg xmlns="http://www.w3.org/2000/svg" width="500.002" height="754.734" viewBox="0 0 500.002 754.734">
  <path id="パス_403" data-name="パス 403" d="M4916.039,4742.484c17.125-14.773,9.055-45.141-9.633-57.9s-42.922-12.953-65.547-12.711c-26.773.3-56.086,1.539-76.016,19.383-5.156,4.633-9.773,10.422-16.43,12.4-7.977,2.4-16.4-1.43-23.578-5.68a176.03,176.03,0,0,1-73.094-84.758c-6.633-16.289-11.078-34.094-22.8-47.2-11.4-12.734-26.523-18.219-43.164-21.039,1.461,20.375,6.063,41.023,10.727,60.859q4.383,18.563,8.75,37.141c3.031,12.82,6.117,25.8,12.148,37.5,17.016,32.961,57.453,58.367,51.828,95.023-1.312,8.508-5.211,16.6-5.164,25.2.047,10.258,5.648,19.516,10.289,28.656a177.752,177.752,0,0,1,18.852,74.859c25.6,15.055,43.43,42.9,34.813,70.688-4.531,14.547-15.086,26.3-25.359,37.547q-16.348,17.895-32.687,35.789c-28.219,30.891-56.461,61.813-85.852,91.6-37.281,37.75-76.4,73.656-116.641,108.234-16.047,13.773-32.812,32.453-42.031,51.633q52.863-1.043,105.75-2.062c11.336-.227,23.2-.586,33.055-6.211,11.758-6.734,18.586-19.844,29.8-27.453,27.461-18.617,64.445,3.023,97.422-.656,26.773-2.969,48.273-22.273,70.594-37.328a253.185,253.185,0,0,1,96.914-38.867c.063-2.641-.078-5.328-.078-7.977.055-48.281-10.766-97.758-9.914-146.492,1.352-77.219,32.391-156.8,6.313-229.508-3.531-9.875-8.148-20.562-4.656-30.461C4858.953,4749.141,4897.141,4758.813,4916.039,4742.484Z" transform="translate(-4425.445 -4544.977)" fill="#ea857f"/>
</svg>
