<svg xmlns="http://www.w3.org/2000/svg" width="500" height="551.736" viewBox="0 0 500 551.736">
  <path id="パス_402" data-name="パス 402" d="M4383.547,4517.2a14.25,14.25,0,0,1,.793-2.551,279.079,279.079,0,0,0-34.289-4.875c-20.289-1.469-41.41-.637-60-8.859-21.836-9.66-37.641-30.809-60.52-37.633-27.516-8.215-55.969,6.453-82.242,18.043-7.613,3.363-16.172,6.535-24.055,3.871-4.406-1.492-8.023-4.656-11.555-7.687-15.824-13.582-33.527-26.395-54.109-29.785s-44.5,5.406-52.391,24.7c-6,14.672-2.344,33.215-12.648,45.254-8.406,9.836-22.8,11.324-35.711,12.121q-31.359,1.928-62.711,3.855c17.176,17.043,19.785,44.7,12.754,67.855-3.586,11.824-9.293,22.746-15.957,33.168-1.219,1.891-2.578,3.711-3.844,5.574,6.23,28.762,11.734,57.664,16.141,86.746,7.363,48.523,12.188,97.477,12.75,146.543.164,14.547.008,29.422,4.793,43.16,2.77,7.969,7.109,15.211,11.586,22.387q2.877,4.629,5.684,9.3,47.455,15.475,95.8,28.035c-6.828-10.914,7.5-25.059,20.25-23.227s22.016,12.656,30.055,22.723,17.363,20.867,30.133,22.59c17.742,2.4,32.434-13.57,49.785-17.984,11.242-2.863,23.148-.723,34.676-2.094s24.113-8.391,25.227-19.941c1.121-11.73-10.219-21.043-21.461-24.6s-23.59-3.848-34-9.387c16.426-23.094,51.07-19.266,78.98-14.328s64.105,4.316,75.559-21.594c2.227-5.02,3.176-10.555,5.633-15.457,3.652-7.312,10.109-12.266,17.188-16.6,1.738-1.074,3.449-2.16,5.242-3.156-9.746-57.5-8.437-117.676-21.973-174.715-3.664-15.41-8.336-32.027-2.16-46.621,10.051-23.762,44.668-31.84,50.238-57.031,1.348-6.086.719-12.43,1.418-18.621.938-8.344,4.227-15.93,8.465-23.164C4384.836,4528.1,4382.621,4522.691,4383.547,4517.2Z" transform="translate(-3887.066 -4447.012)" fill="#ea857f"/>
</svg>
