<svg xmlns="http://www.w3.org/2000/svg" width="500" height="424.049" viewBox="0 0 500 424.049">
  <path id="パス_402" data-name="パス 402" d="M5402.27,4558.781c-7.156-13.77-27.41-13-39.7-22.465a30.555,30.555,0,0,1-2.77-2.875c-8.152-8.187-12.527-20.273-22.4-26.387-8.66-5.344-19.395-4.668-29.687-5.395-1.391-.105-2.8-.141-4.16-.312-.906-.109-1.75-.434-2.652-.582a229.6,229.6,0,0,1-51.32,10.8c-6.891.617-14.254.82-20.246-2.641-6.258-3.609-9.738-10.469-13.34-16.723-7.105-12.328-16.582-24.191-29.855-29.355-13.258-5.172-30.828-1.309-37.187,11.426-2.523,5.047-3.523,11.477-8.383,14.359-3.062,1.816-6.895,1.664-10.426,1.145-50.754-7.43-78.543-72.918-129.617-77.816-28.9-2.766-56.594,16.332-71.453,41.27-14.855,24.918-19.074,54.676-20.691,83.637-.8,14.23-1.441,29.219-3.984,43.391a51.577,51.577,0,0,0,5.793,5.41c5.141,3.785,11.2,6.219,16.277,10.074a38.055,38.055,0,0,1,5.164,4.836,39.921,39.921,0,0,1,3.125,4.117c13.133-7.094,27.844-12.1,42.074-16.668,2.742-.875,5.684-1.758,8.449-.922,6.477,1.988,6.719,10.973,5.648,17.668q-4.482,27.785-8.93,55.559c-6.207,38.625-9.34,85.551,21.813,109.242a55.251,55.251,0,0,0,45.57,9.617c5.758-9.961-3.98-21.281-11.168-30.254-21.492-26.8-23.09-67.738-3.8-96.156,15.148,3.953,19.52,23.3,18.91,38.926-.625,15.617-2.625,33.5,8.273,44.727,16.852,17.363,46.379,2.926,70.035,8.031-2.945-10.086,4.727-20.918,14.5-24.793s20.8-2.4,31.016.094c3.563.867,7.207,1.914,10.074,4.2,13,10.379-.852,30.508-14.133,40.539-26.645,20.117-54.73,40.875-87.7,46.219-3.238.523-6.648.961-9.27,2.926-7.09,5.3-2.4,17.82,5.9,20.863s17.465-.129,25.734-3.285q57.568-21.937,115.113-43.887c13.777-5.258,28.824-10.578,42.949-6.312a35.278,35.278,0,0,1,4.605,2.027c.477-1.422.91-2.836,1.41-4.25a307.036,307.036,0,0,1,18.719-42.809c5.746-10.746,12.148-21.219,16.34-32.652,5.824-15.93,8.738-35.469,23.68-43.52,11.605-6.246,28.508-4.016,35.582-15.125,4.113-6.434,2.914-14.8,4.707-22.215,2.922-12.137,13.434-20.641,21.84-29.887S5408.039,4569.859,5402.27,4558.781Z" transform="translate(-4904.391 -4411.69)" fill="#ea857f"/>
</svg>
