<svg xmlns="http://www.w3.org/2000/svg" width="500" height="506.843" viewBox="0 0 500 506.843">
  <path id="パス_402" data-name="パス 402" d="M6025.094,4570.465c-33.508-19.906-32.391-67.922-27.062-106.5,3.711-26.969,11.57-59.145,37.531-67.477,6.375-2.051,13.32-2.336,19.344-5.262,15.547-7.527,18.094-30.641,8.148-44.742s-28.1-20.152-45.32-21.086c-8.148-.441-16.875-.086-23.75-4.469-5.289-3.355-8.633-9.027-11.047-14.789-6.539-15.539-6.586-32.937-1.984-49.09q-2.051-.932-4.062-1.914c-12.773-6.219-25-13.652-38.375-18.437-35.141-12.582-77.758-6.277-106.719-29.832,6.633,11.617-7.336,26.129-20.687,25.586-13.375-.531-24.437-9.984-34.719-18.516-10.312-8.535-22.539-17.082-35.8-15.34-8.852,1.164-16.43,6.777-24.945,9.441-35.586,11.137-75.422-30.7-107.953-12.5-14.547,8.141-20.8,25.313-29.062,39.793a67.27,67.27,0,0,1-6.187,8.883c-1.1,1.359-2.273,2.645-3.484,3.891.945,1.91,1.828,3.863,2.891,5.7,14.914,25.992,38.734,45.758,63.844,62.113,33.063,21.559,75.023,49.926,66.391,88.422-4.437,19.758-21.609,33.688-37.7,45.984q-24.5,18.732-49.008,37.457c11.18,19.953,18.961,41.137,19.641,64.059.641,21.422-4.961,42.5-6.555,63.863-.445,6.168-.469,12.781,2.867,17.984,7.773,12.082,25.9,8.3,39.914,5.078a140.363,140.363,0,0,1,19.4-2.984c.414-.027.828-.008,1.242-.035q12.914-10.066,25.8-20.152c14.68-11.453,29.648-23.074,47.156-29.418,19.32-7,40.375-7.055,60.922-7.023q44.379.041,88.813.105c13.742.016,28.375.277,39.867,7.82,7.25,4.754,12.492,11.945,17.547,18.984q9.621,13.377,19.281,26.77c13.844,19.266,28.453,41.691,23.453,64.9q14.109-1.154,28.227-2.3a110.477,110.477,0,0,1,12.961-65.355c5.094-9.227,11.781-18.926,9.891-29.293C6062.672,4583.461,6040.25,4579.469,6025.094,4570.465Z" transform="translate(-5568.961 -4190.883)" fill="#b6e67c"/>
</svg>
